<svg xmlns="http://www.w3.org/2000/svg" xmlns:xlink="http://www.w3.org/1999/xlink" contentStyleType="text/css" height="511px" preserveAspectRatio="none" style="width:514px;height:511px;background:#FFFFFF;" version="1.1" viewBox="0 0 514 511" width="514px" zoomAndPan="magnify"><title>&lt;&lt;stm&gt;&gt; CVSIM_OGLApp Primary State Machine</title><defs/><g><!--bg-injected--><rect x="0" y="0" width="100%" height="100%" fill="#FFFFFF"/><text fill="#000000" font-family="sans-serif" font-size="14" font-weight="bold" lengthAdjust="spacing" textLength="308.0889" x="96.3955" y="24.5332">&#171;stm&#187; CVSIM_OGLApp Primary State Machine</text><!--cluster Browse--><g id="cluster_Browse"><path d="M19.5,167.6094 L386.5,167.6094 A12.5,12.5 0 0 1 399,180.1094 L399,190.2188 L7,190.2188 L7,180.1094 A12.5,12.5 0 0 1 19.5,167.6094 " fill="#E3F2FD" style="stroke:#E3F2FD;stroke-width:1.0;"/><rect fill="none" height="338" rx="12.5" ry="12.5" style="stroke:#1565C0;stroke-width:0.5;" width="392" x="7" y="167.6094"/><line style="stroke:#1565C0;stroke-width:0.5;" x1="7" x2="399" y1="190.2188" y2="190.2188"/><text fill="#0D47A1" font-family="sans-serif" font-size="14" lengthAdjust="spacing" textLength="46.6826" x="173" y="186.1426">Browse</text></g><g id="Browse.Initialized"><rect fill="#E3F2FD" height="50" rx="12.5" ry="12.5" style="stroke:#1565C0;stroke-width:0.5;" width="77.5859" x="31" y="266.6094"/><line style="stroke:#1565C0;stroke-width:0.5;" x1="31" x2="108.5859" y1="294.2188" y2="294.2188"/><text fill="#0D47A1" font-family="sans-serif" font-size="14" lengthAdjust="spacing" textLength="57.5859" x="41" y="286.1426">initialized</text></g><g id="Browse.About"><rect fill="#FFF3E0" height="50" rx="12.5" ry="12.5" style="stroke:#E65100;stroke-width:0.5;" width="114.1855" x="83" y="431.6094"/><line style="stroke:#E65100;stroke-width:0.5;" x1="83" x2="197.1855" y1="459.2188" y2="459.2188"/><text fill="#BF360C" font-family="sans-serif" font-size="14" lengthAdjust="spacing" textLength="94.1855" x="93" y="451.1426">showing_about</text></g><g id="elem_GMN9"><path d="M144,229.6094 L144,287.6094 L109.02,291.6094 L144,295.6094 L144,354.0703 A0,0 0 0 0 144,354.0703 L355.7725,354.0703 A0,0 0 0 0 355.7725,354.0703 L355.7725,239.6094 L345.7725,229.6094 L144,229.6094 A0,0 0 0 0 144,229.6094 " fill="#FEFFDD" style="stroke:#181818;stroke-width:0.5;"/><path d="M345.7725,229.6094 L345.7725,239.6094 L355.7725,239.6094 L345.7725,229.6094 " fill="#FEFFDD" style="stroke:#181818;stroke-width:0.5;"/><text fill="#000000" font-family="sans-serif" font-size="13" lengthAdjust="spacing" textLength="169.8188" x="150" y="248.1045">on_idle(_) every 4 idle counts</text><text fill="#000000" font-family="sans-serif" font-size="13" lengthAdjust="spacing" textLength="190.7725" x="150" y="264.4561">on_file_open: closes all docs first</text><text fill="#000000" font-family="sans-serif" font-size="13" lengthAdjust="spacing" textLength="165.458" x="150" y="280.8076">on_file_save: EMPTY BODY</text><text fill="#000000" font-family="sans-serif" font-size="13" lengthAdjust="spacing" textLength="190.0806" x="150" y="297.1592">on_file_new / on_file_print_setup</text><text fill="#000000" font-family="sans-serif" font-size="13" lengthAdjust="spacing" textLength="156.1016" x="150" y="313.5107">open_document_file(Path):</text><text fill="#000000" font-family="sans-serif" font-size="13" lengthAdjust="spacing" textLength="142.3462" x="160.8354" y="329.8623">creates Sphere structure</text><text fill="#000000" font-family="sans-serif" font-size="13" lengthAdjust="spacing" textLength="112.7217" x="150" y="346.2139">(testing scaffolding)</text></g><g id="PreInit"><rect fill="#E3F2FD" height="50" rx="12.5" ry="12.5" style="stroke:#1565C0;stroke-width:0.5;" width="65.917" x="37" y="45.6094"/><line style="stroke:#1565C0;stroke-width:0.5;" x1="37" x2="102.917" y1="73.2188" y2="73.2188"/><text fill="#0D47A1" font-family="sans-serif" font-size="14" lengthAdjust="spacing" textLength="45.917" x="47" y="65.1426">pre_init</text></g><g id="Exited"><rect fill="#E8F5E9" height="50" rx="12.5" ry="12.5" style="stroke:#2E7D32;stroke-width:0.5;" width="57.3584" x="423.5" y="431.6094"/><line style="stroke:#2E7D32;stroke-width:0.5;" x1="423.5" x2="480.8584" y1="459.2188" y2="459.2188"/><text fill="#1B5E20" font-family="sans-serif" font-size="14" lengthAdjust="spacing" textLength="37.3584" x="433.5" y="451.1426">exited</text></g><!--link Initialized to About--><g id="link_Initialized_About"><path d="M62.25,317.0294 C56.39,340.1394 51.44,375.1394 65,401.6094 C71.14,413.6094 76.4772,420.0109 87.3972,427.9509 " fill="none" id="Initialized-to-About" style="stroke:#181818;stroke-width:1.0;"/><polygon fill="#181818" points="92.25,431.4794,87.3231,422.9514,88.206,428.539,82.6185,429.4218,92.25,431.4794" style="stroke:#181818;stroke-width:1.0;"/><text fill="#000000" font-family="sans-serif" font-size="13" lengthAdjust="spacing" textLength="83.1416" x="66" y="398.1045">on_app_about</text></g><!--reverse link Initialized to About--><g id="link_Initialized_About"><path d="M96.4563,321.0228 C121.1963,347.6228 153.59,382.5494 154,383.6094 C159.98,398.9094 156.38,417.0694 151.33,431.3294 " fill="none" id="Initialized-backto-About" style="stroke:#181818;stroke-width:1.0;"/><polygon fill="#181818" points="92.37,316.6294,95.5704,325.9437,95.7752,320.2906,101.4284,320.4954,92.37,316.6294" style="stroke:#181818;stroke-width:1.0;"/><text fill="#000000" font-family="sans-serif" font-size="13" lengthAdjust="spacing" textLength="70.1099" x="158" y="398.1045">about_close</text></g><!--link PreInit to Initialized--><g id="link_PreInit_Initialized"><path d="M70,95.8794 C70,138.0894 70,218.5094 70,260.5594 " fill="none" id="PreInit-to-Initialized" style="stroke:#181818;stroke-width:1.0;"/><polygon fill="#181818" points="70,266.5594,74,257.5594,70,261.5594,66,257.5594,70,266.5594" style="stroke:#181818;stroke-width:1.0;"/><text fill="#000000" font-family="sans-serif" font-size="13" lengthAdjust="spacing" textLength="72.2681" x="71" y="140.1045">init_instance</text></g><!--link Browse to Exited--><g id="link_Browse_Exited"><path d="M399.0194,314.0377 C399.0815,314.2036 399.1439,314.3703 399.2066,314.5378 C399.332,314.8727 399.4585,315.2105 399.586,315.5513 C399.8411,316.2327 400.1005,316.9258 400.3641,317.6299 C401.4184,320.4464 402.5389,323.4399 403.7135,326.578 C406.0627,332.8541 408.6281,339.7084 411.3125,346.8806 C422.05,375.5694 432.587,403.725 440.897,425.93 " fill="none" id="Browse-to-Exited" style="stroke:#181818;stroke-width:1.0;"/><polygon fill="#181818" points="443,431.5494,443.5918,421.7183,441.2475,426.8666,436.0993,424.5223,443,431.5494" style="stroke:#181818;stroke-width:1.0;"/><text fill="#000000" font-family="sans-serif" font-size="13" lengthAdjust="spacing" textLength="75.8799" x="431" y="398.1045">exit_instance</text></g><!--SRC=[RP9HRzem4CVVyobEvM7mW1QWq2r2IANj9gIY8Z5DwbDauZEncjYHxPHrqxxxBaw0ZE2di-vtzxVlVvzW-s7Npx1rp26iMP9AXV0esTwmF73IPGZpkNNvOW4FFxUhTVpo_Vc-A61ZPCxCn_-5GM3Vf2eOrOBrYJy1q5cov6rlTAduWywqcSztHXyiKa-07ax4MF2QquQZwJBLwOscisaIUkwRLkuwHLp8R-_OwBfkhZdBQhWdX9XWsDLjCPx3sNGKTdGlAE9sOZ8Ba-kw3aqkbI_euHSnnQzTtHRZ-utnZa_6bxeNL3MNtHJ7OV2tFVkKSNsGQW-2PHO3fmjm6dRQEPq3bmOJ9xKYkxn9DuN1M2hfRe1PSXPN5CDvjaTiwUyUgiCMqpZTa5KpoJBv6xd7L-Txks-hmgR-mJ7RwR9-ntqLmMdIWQVRZORqHpLSD604MiMiAEeE7guJmx8Wg5q817igJZ9Du_6mqlGC8_Uf0otQU71qcFfBdc4_7W2-8-t-BLHtICXePzkOa1d6ka0LWLUmmB8Ck4ui26ciwx2MlMC4J-lDZrTOlZo-TW251_XykXL6AXTRT6Ln9aak9eaoHyfLM7_3N3g8WlEEGcAGfcrXMwHea6PloiIL1azCdxAkMXoRC25qnYaU-2mgxcTKBLfj6VwIhl7toOVGNiyWE2xIqQUs1H5KAq9BHxrKWa6pJqUqwLUV22gbC_iF]--></g></svg>