<svg xmlns="http://www.w3.org/2000/svg" xmlns:xlink="http://www.w3.org/1999/xlink" contentStyleType="text/css" height="561px" preserveAspectRatio="none" style="width:765px;height:561px;background:#FFFFFF;" version="1.1" viewBox="0 0 765 561" width="765px" zoomAndPan="magnify"><title>&lt;&lt;stm&gt;&gt; CRenderable Primary State Machine</title><defs/><g><!--bg-injected--><rect x="0" y="0" width="100%" height="100%" fill="#FFFFFF"/><text fill="#000000" font-family="sans-serif" font-size="14" font-weight="bold" lengthAdjust="spacing" textLength="284.7783" x="233.3611" y="24.5332">&#171;stm&#187; CRenderable Primary State Machine</text><g id="Pre"><rect fill="#E3F2FD" height="50" rx="12.5" ry="12.5" style="stroke:#1565C0;stroke-width:0.5;" width="104.8203" x="329.5" y="45.6094"/><line style="stroke:#1565C0;stroke-width:0.5;" x1="329.5" x2="434.3203" y1="73.2188" y2="73.2188"/><text fill="#0D47A1" font-family="sans-serif" font-size="14" lengthAdjust="spacing" textLength="84.8203" x="339.5" y="65.1426">pre_construct</text></g><g id="Detached"><rect fill="#E3F2FD" height="50" rx="12.5" ry="12.5" style="stroke:#1565C0;stroke-width:0.5;" width="77.6064" x="343" y="173.6094"/><line style="stroke:#1565C0;stroke-width:0.5;" x1="343" x2="420.6064" y1="201.2188" y2="201.2188"/><text fill="#0D47A1" font-family="sans-serif" font-size="14" lengthAdjust="spacing" textLength="57.6064" x="353" y="193.1426">detached</text></g><g id="Attached"><rect fill="#E3F2FD" height="50" rx="12.5" ry="12.5" style="stroke:#1565C0;stroke-width:0.5;" width="73.71" x="7" y="339.6094"/><line style="stroke:#1565C0;stroke-width:0.5;" x1="7" x2="80.71" y1="367.2188" y2="367.2188"/><text fill="#0D47A1" font-family="sans-serif" font-size="14" lengthAdjust="spacing" textLength="53.71" x="17" y="359.1426">attached</text></g><g id="Dead"><rect fill="#E8F5E9" height="50" rx="12.5" ry="12.5" style="stroke:#2E7D32;stroke-width:0.5;" width="81.4824" x="340.5" y="505.6094"/><line style="stroke:#2E7D32;stroke-width:0.5;" x1="340.5" x2="421.9824" y1="533.2188" y2="533.2188"/><text fill="#000000" font-family="sans-serif" font-size="14" lengthAdjust="spacing" textLength="61.4824" x="350.5" y="525.1426">destroyed</text></g><g id="elem_GMN12"><path d="M445.5,310.6094 L445.5,360.6094 L81.33,364.6094 L445.5,368.6094 L445.5,418.7188 A0,0 0 0 0 445.5,418.7188 L648.9634,418.7188 A0,0 0 0 0 648.9634,418.7188 L648.9634,320.6094 L638.9634,310.6094 L445.5,310.6094 A0,0 0 0 0 445.5,310.6094 " fill="#FEFFDD" style="stroke:#181818;stroke-width:0.5;"/><path d="M638.9634,310.6094 L638.9634,320.6094 L648.9634,320.6094 L638.9634,310.6094 " fill="#FEFFDD" style="stroke:#181818;stroke-width:0.5;"/><text fill="#000000" font-family="sans-serif" font-size="13" lengthAdjust="spacing" textLength="140.1563" x="451.5" y="329.1045">Asymmetric invalidation:</text><text fill="#000000" font-family="sans-serif" font-size="13" lengthAdjust="spacing" textLength="182.4634" x="451.5" y="345.4561">SetColor/Alpha -&gt; full Invalidate</text><text fill="#000000" font-family="sans-serif" font-size="13" lengthAdjust="spacing" textLength="120.6563" x="451.5" y="361.8076">(deletes display lists)</text><text fill="#000000" font-family="sans-serif" font-size="13" lengthAdjust="spacing" textLength="175.2397" x="451.5" y="378.1592">SetModelview/Enabled -&gt; only</text><text fill="#000000" font-family="sans-serif" font-size="13" lengthAdjust="spacing" textLength="169.4443" x="451.5" y="394.5107">m_pView-&gt;Invalidate (display</text><text fill="#000000" font-family="sans-serif" font-size="13" lengthAdjust="spacing" textLength="113.4009" x="451.5" y="410.8623">lists survive). Quirk.</text></g><!--link Pre to Detached--><g id="link_Pre_Detached"><path d="M382,95.8994 C382,118.2194 382,145.0994 382,167.3894 " fill="none" id="Pre-to-Detached" style="stroke:#181818;stroke-width:1.0;"/><polygon fill="#181818" points="382,173.3894,386,164.3894,382,168.3894,378,164.3894,382,173.3894" style="stroke:#181818;stroke-width:1.0;"/><text fill="#000000" font-family="sans-serif" font-size="13" lengthAdjust="spacing" textLength="52.7427" x="383" y="140.1045">construct</text></g><!--link Detached to Attached--><g id="link_Detached_Attached"><path d="M342.9,218.5794 C277.21,250.4494 150.9979,311.6897 86.6079,342.9397 " fill="none" id="Detached-to-Attached" style="stroke:#181818;stroke-width:1.0;"/><polygon fill="#181818" points="81.21,345.5594,91.0533,345.2284,85.7082,343.3763,87.5603,338.0312,81.21,345.5594" style="stroke:#181818;stroke-width:1.0;"/><text fill="#000000" font-family="sans-serif" font-size="13" lengthAdjust="spacing" textLength="237.0151" x="265" y="268.1045">(CSceneView::AddRenderable via friend)</text></g><!--link Attached to Attached--><g id="link_Attached_Attached"><path d="M81.05,346.0494 C99.52,343.4794 116,349.6694 116,364.6094 C116,379.5494 105.4627,386.5663 86.9927,383.9963 " fill="none" id="Attached-to-Attached" style="stroke:#181818;stroke-width:1.0;"/><polygon fill="#181818" points="81.05,383.1694,89.4129,388.3716,86.0023,383.8585,90.5154,380.4479,81.05,383.1694" style="stroke:#181818;stroke-width:1.0;"/><text fill="#000000" font-family="sans-serif" font-size="13" lengthAdjust="spacing" textLength="178.5024" x="182.5154" y="321.1045">set_color/set_alpha [invalidate]</text><text fill="#000000" font-family="sans-serif" font-size="13" lengthAdjust="spacing" textLength="299.5332" x="122" y="337.4561">set_modelview / set_enabled [m_pView-&gt;Invalidate]</text><text fill="#000000" font-family="sans-serif" font-size="13" lengthAdjust="spacing" textLength="154.6543" x="194.4395" y="353.8076">set_centroid [no invalidate]</text><text fill="#000000" font-family="sans-serif" font-size="13" lengthAdjust="spacing" textLength="59.2617" x="242.1357" y="370.1592">set_object</text><text fill="#000000" font-family="sans-serif" font-size="13" lengthAdjust="spacing" textLength="171.2598" x="186.1367" y="386.5107">invalidate [delete display lists]</text><text fill="#000000" font-family="sans-serif" font-size="13" lengthAdjust="spacing" textLength="261.606" x="140.9636" y="402.8623">draw_opaque/draw_transparent [empty base]</text><text fill="#000000" font-family="sans-serif" font-size="13" lengthAdjust="spacing" textLength="209.5234" x="167.0049" y="419.2139">draw_*_list [lazy compile display list]</text></g><!--link Detached to Detached--><g id="link_Detached_Detached"><path d="M421.21,186.8694 C439.73,185.5094 456,189.4194 456,198.6094 C456,207.7994 445.7139,212.1488 427.1939,210.7888 " fill="none" id="Detached-to-Detached" style="stroke:#181818;stroke-width:1.0;"/><polygon fill="#181818" points="421.21,210.3494,429.8929,214.9978,426.1966,210.7156,430.4788,207.0192,421.21,210.3494" style="stroke:#181818;stroke-width:1.0;"/><text fill="#000000" font-family="sans-serif" font-size="13" lengthAdjust="spacing" textLength="224.7324" x="494.884" y="196.1045">set_color/alpha [Invalidate early-return]</text><text fill="#000000" font-family="sans-serif" font-size="13" lengthAdjust="spacing" textLength="290.5005" x="462" y="212.4561">set_modelview/enabled [skip due to null m_pView]</text></g><!--link Attached to Dead--><g id="link_Attached_Dead"><path d="M81.03,383.6294 C144.63,414.5794 268.775,474.9937 334.855,507.1537 " fill="none" id="Attached-to-Dead" style="stroke:#181818;stroke-width:1.0;"/><polygon fill="#181818" points="340.25,509.7794,333.9079,502.2442,335.7542,507.5913,330.4071,509.4376,340.25,509.7794" style="stroke:#181818;stroke-width:1.0;"/><text fill="#000000" font-family="sans-serif" font-size="13" lengthAdjust="spacing" textLength="46.2427" x="264" y="472.1045">destruct</text></g><!--link Detached to Dead--><g id="link_Detached_Dead"><path d="M421,200.4094 C484.75,204.0794 609.79,221.6894 666,301.6094 C698.22,347.4094 698.24,381.8194 666,427.6094 C610.02,507.0994 492.0996,524.6161 427.6796,528.4161 " fill="none" id="Detached-to-Dead" style="stroke:#181818;stroke-width:1.0;"/><polygon fill="#181818" points="421.69,528.7694,430.9099,532.2325,426.6813,528.4749,430.4388,524.2463,421.69,528.7694" style="stroke:#181818;stroke-width:1.0;"/><text fill="#000000" font-family="sans-serif" font-size="13" lengthAdjust="spacing" textLength="46.2427" x="691" y="370.1045">destruct</text></g><!--SRC=[TLDTZzem47pthrXTNuvA77TSwRK88L7QIdqugIrINpY4bdW3BewTsWuehVhVkp6Gy5LUIEpPcPtPJL114mm6FcJ38Oo_av7aSC5dNvtAq9Km2HW8dZ5PAKF2hvN9qM46Ffx_4S2_3vYibyuMHewjjcumM3YxzSICh-WnxQPoXxAEoIyG3xstlUG-8ZvR4oxkx-MR9touhXF8PSgWZahlqXwzlrGwndJfIJvsnTzZ7okKTglC4bBKdaImEGGB2nk2pK0gHqbGrWYnCtoJEvedrlZWYYJS07fEgahmqF019obmPYGZvEF-vGeEmn5k5FwBayIIjgm9iG8rteIescYp5TCUDdfzg7iLzU41LQlruNOyISZG3qNRVdyavT4YR1H2wXGVj4HTqJujznGu58wxKpsXpbS8KsKsg9NaxcSlfZhFh2IzOGden0eobO24QJRFA-NsyCjv2JV5hXLZZ8KBGhluoTDvCSq5J5c2-5ygdsiiGIiVFCEbm-tSvlYhe4vy3WwDvnLW0PXIbeSI5kZf07qzhofXgl5toHbckTAdfBEZF4yJRyBO1z6u0aAdoxQZK3XpdagdpeEtCmTPKBM8fj0QzW7DZWPGJnehpRWTLuTy3X36SXzEBLS1R5eFCNut8rzc6GMdaYPhtlr-l9pGxjliZA8hfawhrXfp4NMxoz-V3g1rO7YkpNxQcsKUQtGP0LVsW0btH14GoS0NRgCsrBg3RuLowpl1kmcLhNy0]--></g></svg>