<svg xmlns="http://www.w3.org/2000/svg" xmlns:xlink="http://www.w3.org/1999/xlink" contentStyleType="text/css" height="415px" preserveAspectRatio="none" style="width:876px;height:415px;background:#FFFFFF;" version="1.1" viewBox="0 0 876 415" width="876px" zoomAndPan="magnify"><title>&lt;&lt;stm&gt;&gt; CMachineRenderable Primary State Machine</title><defs/><g><!--bg-injected--><rect x="0" y="0" width="100%" height="100%" fill="#FFFFFF"/><text fill="#000000" font-family="sans-serif" font-size="14" font-weight="bold" lengthAdjust="spacing" textLength="340.792" x="260.9753" y="24.5332">&#171;stm&#187; CMachineRenderable Primary State Machine</text><g id="Unbound"><rect fill="#E3F2FD" height="50" rx="12.5" ry="12.5" style="stroke:#1565C0;stroke-width:0.5;" width="74.5029" x="184" y="45.6094"/><line style="stroke:#1565C0;stroke-width:0.5;" x1="184" x2="258.5029" y1="73.2188" y2="73.2188"/><text fill="#0D47A1" font-family="sans-serif" font-size="14" lengthAdjust="spacing" textLength="54.5029" x="194" y="65.1426">unbound</text></g><g id="Bound"><rect fill="#E3F2FD" height="50" rx="12.5" ry="12.5" style="stroke:#1565C0;stroke-width:0.5;" width="58.9307" x="7" y="210.6094"/><line style="stroke:#1565C0;stroke-width:0.5;" x1="7" x2="65.9307" y1="238.2188" y2="238.2188"/><text fill="#0D47A1" font-family="sans-serif" font-size="14" lengthAdjust="spacing" textLength="38.9307" x="17" y="230.1426">bound</text></g><g id="Destroyed"><rect fill="#E8F5E9" height="50" rx="12.5" ry="12.5" style="stroke:#2E7D32;stroke-width:0.5;" width="81.4824" x="406" y="359.6094"/><line style="stroke:#2E7D32;stroke-width:0.5;" x1="406" x2="487.4824" y1="387.2188" y2="387.2188"/><text fill="#1B5E20" font-family="sans-serif" font-size="14" lengthAdjust="spacing" textLength="61.4824" x="416" y="379.1426">destroyed</text></g><g id="elem_GMN12"><path d="M561,189.6094 L561,231.6094 L66.05,235.6094 L561,239.6094 L561,281.3672 A0,0 0 0 0 561,281.3672 L786.4453,281.3672 A0,0 0 0 0 786.4453,281.3672 L786.4453,199.6094 L776.4453,189.6094 L561,189.6094 A0,0 0 0 0 561,189.6094 " fill="#FEFFDD" style="stroke:#181818;stroke-width:0.5;"/><path d="M776.4453,189.6094 L776.4453,199.6094 L786.4453,199.6094 L776.4453,189.6094 " fill="#FEFFDD" style="stroke:#181818;stroke-width:0.5;"/><text fill="#000000" font-family="sans-serif" font-size="13" lengthAdjust="spacing" textLength="189.3442" x="567" y="208.1045">DrawOpaque body is dead code:</text><text fill="#000000" font-family="sans-serif" font-size="13" lengthAdjust="spacing" textLength="204.4453" x="567" y="224.4561">m_bWireFrame is initialized FALSE</text><text fill="#000000" font-family="sans-serif" font-size="13" lengthAdjust="spacing" textLength="142.3462" x="567" y="240.8076">in ctor and never written.</text><text fill="#000000" font-family="sans-serif" font-size="13" lengthAdjust="spacing" textLength="191.4644" x="567" y="257.1592">DrawTransparent always renders</text><text fill="#000000" font-family="sans-serif" font-size="13" lengthAdjust="spacing" textLength="153.188" x="567" y="273.5107">table + gantry + collimator.</text></g><!--link Unbound to Bound--><g id="link_Unbound_Bound"><path d="M183.59,77.0694 C134.06,85.0694 51.53,101.6694 33.5,125.6094 C15.28,149.7994 19.351,180.5604 26.211,204.5604 " fill="none" id="Unbound-to-Bound" style="stroke:#181818;stroke-width:1.0;"/><polygon fill="#181818" points="27.86,210.3294,29.2325,200.5766,26.4859,205.5219,21.5406,202.7752,27.86,210.3294" style="stroke:#181818;stroke-width:1.0;"/><text fill="#000000" font-family="sans-serif" font-size="13" lengthAdjust="spacing" textLength="74.4199" x="69.0122" y="140.1045">set_beam(B)</text><text fill="#000000" font-family="sans-serif" font-size="13" lengthAdjust="spacing" textLength="143.4443" x="34.5" y="156.4561">set_object(B) [B != none]</text></g><!--reverse link Unbound to Bound--><g id="link_Unbound_Bound"><path d="M213.8847,101.529 C208.1447,120.769 199.48,141.6294 182.5,159.6094 C150.12,193.8994 98.59,215.1994 66.2,225.9694 " fill="none" id="Unbound-backto-Bound" style="stroke:#181818;stroke-width:1.0;"/><polygon fill="#181818" points="215.6,95.7794,209.194,103.2602,214.1706,100.5707,216.8601,105.5473,215.6,95.7794" style="stroke:#181818;stroke-width:1.0;"/><text fill="#000000" font-family="sans-serif" font-size="13" lengthAdjust="spacing" textLength="94.6689" x="205.5" y="148.1045">set_beam(none)</text></g><!--link Bound to Bound--><g id="link_Bound_Bound"><path d="M66.02,228.2594 C83.99,226.5594 101,229.0094 101,235.6094 C101,242.2094 89.9633,245.2245 71.9933,243.5245 " fill="none" id="Bound-to-Bound" style="stroke:#181818;stroke-width:1.0;"/><polygon fill="#181818" points="66.02,242.9594,74.6033,247.7892,70.9978,243.4303,75.3567,239.8248,66.02,242.9594" style="stroke:#181818;stroke-width:1.0;"/><text fill="#000000" font-family="sans-serif" font-size="13" lengthAdjust="spacing" textLength="146.2373" x="107" y="224.6045">set_beam(B') [B' != none]</text><text fill="#000000" font-family="sans-serif" font-size="13" lengthAdjust="spacing" textLength="101.1689" x="129.5342" y="240.9561">draw_transparent</text><text fill="#000000" font-family="sans-serif" font-size="13" lengthAdjust="spacing" textLength="76.6162" x="141.8105" y="257.3076">on_invalidate</text></g><!--link Bound to Bound--><g id="link_Bound_Bound"><path d="M66.14,226.5594 C129.77,215.2394 259,218.2594 259,235.6094 C259,252.9594 135.6772,257.0303 72.0472,245.7103 " fill="none" id="Bound-to-Bound-1" style="stroke:#181818;stroke-width:1.0;"/><polygon fill="#181818" points="66.14,244.6594,74.3003,250.1739,71.0627,245.5351,75.7015,242.2976,66.14,244.6594" style="stroke:#181818;stroke-width:1.0;"/><text fill="#000000" font-family="sans-serif" font-size="13" lengthAdjust="spacing" textLength="254.7124" x="265" y="241.1045">draw_opaque [m_bWireFrame=false; no-op]</text></g><!--link Bound to Destroyed--><g id="link_Bound_Destroyed"><path d="M66.32,247.2994 C138.64,273.2294 317.8521,337.4843 400.2121,367.0143 " fill="none" id="Bound-to-Destroyed" style="stroke:#181818;stroke-width:1.0;"/><polygon fill="#181818" points="405.86,369.0394,398.7381,362.2365,401.1534,367.3518,396.0381,369.7671,405.86,369.0394" style="stroke:#181818;stroke-width:1.0;"/><text fill="#000000" font-family="sans-serif" font-size="13" lengthAdjust="spacing" textLength="46.2427" x="291.5" y="326.1045">destruct</text></g><!--link Unbound to Destroyed--><g id="link_Unbound_Destroyed"><path d="M259.36,73.2794 C377.25,79.3694 734,104.6094 803.5,189.6094 C829.38,221.2694 828.12,248.9694 803.5,281.6094 C765.07,332.5594 578.4675,364.8454 493.1875,377.2554 " fill="none" id="Unbound-to-Destroyed" style="stroke:#181818;stroke-width:1.0;"/><polygon fill="#181818" points="487.25,378.1194,496.7322,380.7816,492.1979,377.3994,495.5802,372.865,487.25,378.1194" style="stroke:#181818;stroke-width:1.0;"/><text fill="#000000" font-family="sans-serif" font-size="13" lengthAdjust="spacing" textLength="46.2427" x="822.5" y="241.1045">destruct</text></g><!--SRC=[TPDFRnCn4CNl_XH3SoXLbIfD2OMIHY8jEHM1A8X3WwBPzIGntHq7Uz8e8BuxizxyKnDyijS_ltdpj2DE2e9kDqhPwy7DHyodZkaBiQM0cLvz3gx4i8HxGI5OtHiJ7ntFC609CLtyCQ2hZ_dZ9FWvsnjV-D3jPi4l8gaoG8CknksnhJaVL7-VgLRZlFEwaxSID_0iXodbMlRL9PuVhYiKIiTOAD-WD-CElTslkyCalJPTselsyxhFgCfVrg5so_pTpM2ArYySJs2CHIGZVWRY8VCYlWJh0kNYF6jiAQoZEMULsIF02D_gFMnRN5DRflyVmbAKu9TKKxVh4-pQDcPTeQaUkTbRgLr191bbXENB_icGguFFVgfHFS937rvS0tkc7wR6c_EPFbrBxJoke9CrT53zkD8xtWWEsGPSZ2GWHusFM8RwVUJu2GjdjQy3Okc5d-6lES53ESg-QwG3JPwkK-3lLBdfPnklgqQtWQX2jP_difV6GSYmrto3cqm5_BYsaVwCMpNogVQHURi45_KHMiYzfQj4xBghhXqxSThPRwqmU7zt_o5HZY4N7m3L2TCJ1LW49q9yjYdpTHiGOB70POIGvZ8cHD9udi84MNG-JzL2KUYigkgPeKfMMp3_0000]--></g></svg>