<svg xmlns="http://www.w3.org/2000/svg" xmlns:xlink="http://www.w3.org/1999/xlink" contentStyleType="text/css" height="485px" preserveAspectRatio="none" style="width:403px;height:485px;background:#FFFFFF;" version="1.1" viewBox="0 0 403 485" width="403px" zoomAndPan="magnify"><title>&lt;&lt;stm&gt;&gt; CZoomTracker Primary State Machine</title><defs/><g><!--bg-injected--><rect x="0" y="0" width="100%" height="100%" fill="#FFFFFF"/><text fill="#000000" font-family="sans-serif" font-size="14" font-weight="bold" lengthAdjust="spacing" textLength="297.2266" x="46.1758" y="24.5332">&#171;stm&#187; CZoomTracker Primary State Machine</text><g id="Pre"><rect fill="#E3F2FD" height="50" rx="12.5" ry="12.5" style="stroke:#1565C0;stroke-width:0.5;" width="104.8203" x="252.5" y="45.6094"/><line style="stroke:#1565C0;stroke-width:0.5;" x1="252.5" x2="357.3203" y1="73.2188" y2="73.2188"/><text fill="#0D47A1" font-family="sans-serif" font-size="14" lengthAdjust="spacing" textLength="84.8203" x="262.5" y="65.1426">pre_construct</text></g><g id="Ready"><rect fill="#E3F2FD" height="50" rx="12.5" ry="12.5" style="stroke:#1565C0;stroke-width:0.5;" width="55.0205" x="277.5" y="173.6094"/><line style="stroke:#1565C0;stroke-width:0.5;" x1="277.5" x2="332.5205" y1="201.2188" y2="201.2188"/><text fill="#0D47A1" font-family="sans-serif" font-size="14" lengthAdjust="spacing" textLength="35.0205" x="287.5" y="193.1426">ready</text></g><g id="Drag"><rect fill="#E3F2FD" height="50" rx="12.5" ry="12.5" style="stroke:#1565C0;stroke-width:0.5;" width="74.4893" x="7" y="301.6094"/><line style="stroke:#1565C0;stroke-width:0.5;" x1="7" x2="81.4893" y1="329.2188" y2="329.2188"/><text fill="#0D47A1" font-family="sans-serif" font-size="14" lengthAdjust="spacing" textLength="54.4893" x="17" y="321.1426">dragging</text></g><g id="Dead"><rect fill="#E8F5E9" height="50" rx="12.5" ry="12.5" style="stroke:#2E7D32;stroke-width:0.5;" width="81.4824" x="177.5" y="429.6094"/><line style="stroke:#2E7D32;stroke-width:0.5;" x1="177.5" x2="258.9824" y1="457.2188" y2="457.2188"/><text fill="#000000" font-family="sans-serif" font-size="14" lengthAdjust="spacing" textLength="61.4824" x="187.5" y="449.1426">destroyed</text></g><!--link Pre to Ready--><g id="link_Pre_Ready"><path d="M305,95.8994 C305,118.2194 305,145.0994 305,167.3894 " fill="none" id="Pre-to-Ready" style="stroke:#181818;stroke-width:1.0;"/><polygon fill="#181818" points="305,173.3894,309,164.3894,305,168.3894,301,164.3894,305,173.3894" style="stroke:#181818;stroke-width:1.0;"/><text fill="#000000" font-family="sans-serif" font-size="13" lengthAdjust="spacing" textLength="89.5781" x="306" y="140.1045">construct(View)</text></g><!--link Ready to Drag--><g id="link_Ready_Drag"><path d="M277.07,213.0894 C229.86,235.8894 139.6732,279.4207 86.7532,304.9707 " fill="none" id="Ready-to-Drag" style="stroke:#181818;stroke-width:1.0;"/><polygon fill="#181818" points="81.35,307.5794,91.1939,307.2685,85.8527,305.4055,87.7157,300.0642,81.35,307.5794" style="stroke:#181818;stroke-width:1.0;"/><text fill="#000000" font-family="sans-serif" font-size="13" lengthAdjust="spacing" textLength="126.4834" x="192" y="268.1045">on_button_down(_, _)</text></g><!--link Drag to Drag--><g id="link_Drag_Drag"><path d="M81.05,314.9594 C99.52,313.3494 116,317.2294 116,326.6094 C116,335.9894 105.4973,340.3904 87.0273,338.7804 " fill="none" id="Drag-to-Drag" style="stroke:#181818;stroke-width:1.0;"/><polygon fill="#181818" points="81.05,338.2594,89.6686,343.0258,86.0311,338.6936,90.3634,335.056,81.05,338.2594" style="stroke:#181818;stroke-width:1.0;"/><text fill="#000000" font-family="sans-serif" font-size="13" lengthAdjust="spacing" textLength="124.2998" x="166.0591" y="324.1045">on_mouse_drag(_, _)</text><text fill="#000000" font-family="sans-serif" font-size="13" lengthAdjust="spacing" textLength="212.418" x="122" y="340.4561">[m_initZoom * prefix commented out]</text></g><!--link Drag to Dead--><g id="link_Drag_Dead"><path d="M77.55,351.8994 C108.46,374.2894 149.2104,403.7902 179.9904,426.0802 " fill="none" id="Drag-to-Dead" style="stroke:#181818;stroke-width:1.0;"/><polygon fill="#181818" points="184.85,429.5994,179.9067,421.0809,180.8004,426.6667,175.2145,427.5603,184.85,429.5994" style="stroke:#181818;stroke-width:1.0;"/><text fill="#000000" font-family="sans-serif" font-size="13" lengthAdjust="spacing" textLength="46.2427" x="143" y="396.1045">destruct</text></g><!--link Ready to Dead--><g id="link_Ready_Dead"><path d="M320.19,223.7894 C337.5,254.6594 360.95,309.1494 341,351.6094 C324.07,387.6394 292.6121,412.2377 263.7221,429.6077 " fill="none" id="Ready-to-Dead" style="stroke:#181818;stroke-width:1.0;"/><polygon fill="#181818" points="258.58,432.6994,268.3543,431.4899,262.8651,430.123,264.2321,424.6338,258.58,432.6994" style="stroke:#181818;stroke-width:1.0;"/><text fill="#000000" font-family="sans-serif" font-size="13" lengthAdjust="spacing" textLength="46.2427" x="349" y="332.1045">destruct</text></g><!--SRC=[RP9DJm8n48Rl_HKJl82HX0yH9HiEOhoP63KU_CYcR6UNXcs7jBD1OlplThjWGDXJT-RflEyxAMik4PB4ivbEOVP6P5wSp9ReuD5f8zq6dbaomeFC5jgYy4jjLz990pxMlmM4xpPSAHnLLise99SaSqThZs7a6GxpGQuQYfn2TqJqHrUZh1U9Ux9yrE-fox7idzPXT4PRMKQbwto4DyTA-ym0nseu43_xEHPIqLhR0d9PUXHCAs22EJ6J0QKTPgp92j44RgqSfXbPpwxAk0NIXqtLAzmPtd4EfTh4_bDzEa4e9uiY24VeBloSOZ08qGPL0uL9i9z8Y5gy6mBOxdGhD84_U-rNZUkEQEexAYfDW6mwhq96czRrTde1QKV4NlS0CbHvJ6kl3VDXtqsghURwiS0vX7ta-Yje6eEMKG5L_BaTj5EiRKyWPWck_livxFu2]--></g></svg>