<svg xmlns="http://www.w3.org/2000/svg" xmlns:xlink="http://www.w3.org/1999/xlink" contentStyleType="text/css" height="664px" preserveAspectRatio="none" style="width:2317px;height:664px;background:#FFFFFF;" version="1.1" viewBox="0 0 2317 664" width="2317px" zoomAndPan="magnify"><title>&lt;&lt;act&gt;&gt; CSimView Save Pipeline (export commands)</title><defs/><g><!--bg-injected--><rect x=\"0\" y=\"0\" width=\"100%\" height=\"100%\" fill=\"#FFFFFF\"/><text fill="#000000" font-family="sans-serif" font-size="14" font-weight="bold" lengthAdjust="spacing" textLength="335.3438" x="989.636" y="34.5332">&#171;act&#187; CSimView Save Pipeline (export commands)</text><rect fill="none" height="22.6406" style="stroke:none;stroke-width:1.0;" width="2284.6157" x="15" y="51.0645"/><ellipse cx="134.0518" cy="88.7051" fill="#222222" rx="10" ry="10" style="stroke:#222222;stroke-width:1.0;"/><rect fill="#E3F2FD" height="50.1875" rx="12.5" ry="12.5" style="stroke:#1565C0;stroke-width:0.5;" width="226.1035" x="21" y="118.7051"/><text fill="#0D47A1" font-family="sans-serif" font-size="12" lengthAdjust="spacing" textLength="123.3984" x="31" y="141.1621">dispatch event terminal</text><text fill="#0D47A1" font-family="sans-serif" font-size="12" lengthAdjust="spacing" textLength="196.1016" x="41.002" y="156.2559">- export_fieldcom OR export_nuages</text><line style="stroke:#000000;stroke-width:1.5;" x1="15" x2="15" y1="51.0645" y2="652.9238"/><polygon fill="#FFF3E0" points="564.4009,188.8926,649.9946,188.8926,661.9946,200.8926,649.9946,212.8926,564.4009,212.8926,552.4009,200.8926,564.4009,188.8926" style="stroke:#E65100;stroke-width:0.5;"/><text fill="#0D47A1" font-family="sans-serif" font-size="11" lengthAdjust="spacing" textLength="85.5938" x="564.4009" y="205.3936">which command?</text><text fill="#000000" font-family="sans-serif" font-size="11" lengthAdjust="spacing" textLength="77.6499" x="474.751" y="198.4756">export_fieldcom</text><text fill="#000000" font-family="sans-serif" font-size="11" lengthAdjust="spacing" textLength="72.7783" x="661.9946" y="198.4756">export_nuages</text><rect fill="#E3F2FD" height="50.1875" rx="12.5" ry="12.5" style="stroke:#1565C0;stroke-width:0.5;" width="196.6953" x="264.5208" y="232.8926"/><text fill="#0D47A1" font-family="sans-serif" font-size="12" font-weight="bold" lengthAdjust="spacing" textLength="176.6953" x="274.5208" y="255.3496">edit_ops:export_fieldcom(S, S)</text><text fill="#0D47A1" font-family="sans-serif" font-size="12" lengthAdjust="spacing" textLength="95.3848" x="284.5227" y="270.4434">- state-pure no-op</text><polygon fill="#FFF3E0" points="285.2212,303.0801,440.5156,303.0801,452.5156,315.0801,440.5156,327.0801,285.2212,327.0801,273.2212,315.0801,285.2212,303.0801" style="stroke:#E65100;stroke-width:0.5;"/><text fill="#0D47A1" font-family="sans-serif" font-size="11" lengthAdjust="spacing" textLength="155.2944" x="285.2212" y="319.5811">USE_ExportFieldCOM defined?</text><text fill="#000000" font-family="sans-serif" font-size="11" lengthAdjust="spacing" textLength="17.1177" x="256.1035" y="312.6631">yes</text><text fill="#000000" font-family="sans-serif" font-size="11" lengthAdjust="spacing" textLength="12.2354" x="452.5156" y="312.6631">no</text><polygon fill="#FFF3E0" points="362.8684,467.6426,374.8684,479.6426,362.8684,491.6426,350.8684,479.6426,362.8684,467.6426" style="stroke:#E65100;stroke-width:0.5;"/><polygon fill="#FFF3E0" points="607.1978,501.6426,619.1978,513.6426,607.1978,525.6426,595.1978,513.6426,607.1978,501.6426" style="stroke:#E65100;stroke-width:0.5;"/><line style="stroke:#000000;stroke-width:1.5;" x1="251.1035" x2="251.1035" y1="51.0645" y2="652.9238"/><path d="M966.8745,381.0098 L966.8745,398.3613 L946.8745,402.3613 L966.8745,406.3613 L966.8745,423.7129 A0,0 0 0 0 966.8745,423.7129 L1291.2734,423.7129 A0,0 0 0 0 1291.2734,423.7129 L1291.2734,391.0098 L1281.2734,381.0098 L966.8745,381.0098 A0,0 0 0 0 966.8745,381.0098 " fill="#FEFFDD" style="stroke:#181818;stroke-width:0.5;"/><path d="M1281.2734,381.0098 L1281.2734,391.0098 L1291.2734,391.0098 L1281.2734,381.0098 " fill="#FEFFDD" style="stroke:#181818;stroke-width:0.5;"/><text fill="#000000" font-family="sans-serif" font-size="13" lengthAdjust="spacing" textLength="149.5889" x="972.8745" y="399.5049">Boundary - not translated.</text><text fill="#000000" font-family="sans-serif" font-size="13" lengthAdjust="spacing" textLength="303.3989" x="972.8745" y="415.8564">kind: COM (FieldCOM.Mesh, FieldCOM.FileStorage)</text><rect fill="#E3F2FD" height="110.5625" rx="12.5" ry="12.5" style="stroke:#1565C0;stroke-width:0.5;" width="201.1016" x="745.7729" y="347.0801"/><text fill="#0D47A1" font-family="sans-serif" font-size="12" lengthAdjust="spacing" textLength="111.7324" x="755.7729" y="369.5371">IMeshPtr-&gt;put_Label</text><text fill="#0D47A1" font-family="sans-serif" font-size="12" lengthAdjust="spacing" textLength="125.7188" x="755.7729" y="384.6309">IMeshPtr-&gt;put_Vertices</text><text fill="#0D47A1" font-family="sans-serif" font-size="12" lengthAdjust="spacing" textLength="127.043" x="755.7729" y="399.7246">IMeshPtr-&gt;put_Normals</text><text fill="#0D47A1" font-family="sans-serif" font-size="12" lengthAdjust="spacing" textLength="120.3926" x="755.7729" y="414.8184">IMeshPtr-&gt;put_Indices</text><text fill="#0D47A1" font-family="sans-serif" font-size="12" lengthAdjust="spacing" textLength="153.7617" x="755.7729" y="429.9121">IFileStorage-&gt;put_Pathname</text><text fill="#0D47A1" font-family="sans-serif" font-size="12" lengthAdjust="spacing" textLength="181.1016" x="755.7729" y="445.0059">IFileStorage-&gt;Save (cpp:471-532)</text><rect fill="#E3F2FD" height="35.0938" rx="12.5" ry="12.5" style="stroke:#1565C0;stroke-width:0.5;" width="160.0801" x="1301.2734" y="347.0801"/><text fill="#0D47A1" font-family="sans-serif" font-size="12" lengthAdjust="spacing" textLength="140.0801" x="1311.2734" y="369.5371">empty body (cpp:537-540)</text><rect fill="#E3F2FD" height="50.1875" rx="12.5" ry="12.5" style="stroke:#1565C0;stroke-width:0.5;" width="189.3652" x="1513.7373" y="232.8926"/><text fill="#0D47A1" font-family="sans-serif" font-size="12" font-weight="bold" lengthAdjust="spacing" textLength="169.3652" x="1523.7373" y="255.3496">edit_ops:export_nuages(S, S)</text><text fill="#0D47A1" font-family="sans-serif" font-size="12" lengthAdjust="spacing" textLength="95.3848" x="1533.7393" y="270.4434">- state-pure no-op</text><path d="M1765.4863,303.0801 L1765.4863,320.4316 L1745.4863,324.4316 L1765.4863,328.4316 L1765.4863,345.7832 A0,0 0 0 0 1765.4863,345.7832 L1990.9824,345.7832 A0,0 0 0 0 1990.9824,345.7832 L1990.9824,313.0801 L1980.9824,303.0801 L1765.4863,303.0801 A0,0 0 0 0 1765.4863,303.0801 " fill="#FEFFDD" style="stroke:#181818;stroke-width:0.5;"/><path d="M1980.9824,303.0801 L1980.9824,313.0801 L1990.9824,313.0801 L1980.9824,303.0801 " fill="#FEFFDD" style="stroke:#181818;stroke-width:0.5;"/><text fill="#000000" font-family="sans-serif" font-size="13" lengthAdjust="spacing" textLength="184.2407" x="1771.4863" y="321.5752">Originally wrote {Name}.cnt files</text><text fill="#000000" font-family="sans-serif" font-size="13" lengthAdjust="spacing" textLength="204.4961" x="1771.4863" y="337.9268">via fopen/fprintf. Currently disabled.</text><rect fill="#E3F2FD" height="35.0938" rx="12.5" ry="12.5" style="stroke:#1565C0;stroke-width:0.5;" width="274.1328" x="1471.3535" y="306.8848"/><text fill="#0D47A1" font-family="sans-serif" font-size="12" lengthAdjust="spacing" textLength="254.1328" x="1481.3535" y="329.3418">body block-commented in source (cpp:544-586)</text><line style="stroke:#000000;stroke-width:1.5;" x1="739.7729" x2="739.7729" y1="51.0645" y2="652.9238"/><rect fill="#E3F2FD" height="65.2813" rx="12.5" ry="12.5" style="stroke:#1565C0;stroke-width:0.5;" width="292.1328" x="2001.9824" y="545.6426"/><text fill="#0D47A1" font-family="sans-serif" font-size="12" lengthAdjust="spacing" textLength="96.7559" x="2011.9824" y="568.0996">state{} unchanged</text><text fill="#0D47A1" font-family="sans-serif" font-size="12" lengthAdjust="spacing" textLength="222.1289" x="2021.9844" y="583.1934">- no field mutated by either export handler</text><text fill="#0D47A1" font-family="sans-serif" font-size="12" lengthAdjust="spacing" textLength="262.1309" x="2021.9844" y="598.2871">- external file/COM side-effect only when enabled</text><ellipse cx="2148.0488" cy="641.9238" fill="none" rx="11" ry="11" style="stroke:#222222;stroke-width:1.0;"/><ellipse cx="2148.0488" cy="641.9238" fill="#222222" rx="6" ry="6" style="stroke:#222222;stroke-width:1.0;"/><line style="stroke:#000000;stroke-width:1.5;" x1="1995.9824" x2="1995.9824" y1="51.0645" y2="652.9238"/><line style="stroke:#000000;stroke-width:1.5;" x1="2298.1152" x2="2298.1152" y1="51.0645" y2="652.9238"/><line style="stroke:#181818;stroke-width:1.0;" x1="134.0518" x2="134.0518" y1="98.7051" y2="118.7051"/><polygon fill="#181818" points="130.0518,108.7051,134.0518,118.7051,138.0518,108.7051,134.0518,112.7051" style="stroke:#181818;stroke-width:1.0;"/><line style="stroke:#181818;stroke-width:1.0;" x1="362.8684" x2="362.8684" y1="283.0801" y2="303.0801"/><polygon fill="#181818" points="358.8684,293.0801,362.8684,303.0801,366.8684,293.0801,362.8684,297.0801" style="stroke:#181818;stroke-width:1.0;"/><line style="stroke:#181818;stroke-width:1.0;" x1="552.4009" x2="362.8684" y1="200.8926" y2="200.8926"/><line style="stroke:#181818;stroke-width:1.0;" x1="362.8684" x2="362.8684" y1="200.8926" y2="232.8926"/><polygon fill="#181818" points="358.8684,222.8926,362.8684,232.8926,366.8684,222.8926,362.8684,226.8926" style="stroke:#181818;stroke-width:1.0;"/><line style="stroke:#181818;stroke-width:1.0;" x1="362.8684" x2="362.8684" y1="491.6426" y2="513.6426"/><line style="stroke:#181818;stroke-width:1.0;" x1="362.8684" x2="595.1978" y1="513.6426" y2="513.6426"/><polygon fill="#181818" points="585.1978,509.6426,595.1978,513.6426,585.1978,517.6426,589.1978,513.6426" style="stroke:#181818;stroke-width:1.0;"/><line style="stroke:#181818;stroke-width:1.0;" x1="1608.4199" x2="1608.4199" y1="283.0801" y2="306.8848"/><polygon fill="#181818" points="1604.4199,296.8848,1608.4199,306.8848,1612.4199,296.8848,1608.4199,300.8848" style="stroke:#181818;stroke-width:1.0;"/><line style="stroke:#181818;stroke-width:1.0;" x1="2148.0488" x2="2148.0488" y1="610.9238" y2="630.9238"/><polygon fill="#181818" points="2144.0488,620.9238,2148.0488,630.9238,2152.0488,620.9238,2148.0488,624.9238" style="stroke:#181818;stroke-width:1.0;"/><line style="stroke:#181818;stroke-width:1.0;" x1="273.2212" x2="261.2212" y1="315.0801" y2="315.0801"/><line style="stroke:#181818;stroke-width:1.0;" x1="261.2212" x2="261.2212" y1="315.0801" y2="333.0801"/><line style="stroke:#181818;stroke-width:1.0;" x1="261.2212" x2="846.3237" y1="333.0801" y2="333.0801"/><line style="stroke:#181818;stroke-width:1.0;" x1="846.3237" x2="846.3237" y1="333.0801" y2="347.0801"/><polygon fill="#181818" points="842.3237,337.0801,846.3237,347.0801,850.3237,337.0801,846.3237,341.0801" style="stroke:#181818;stroke-width:1.0;"/><line style="stroke:#181818;stroke-width:1.0;" x1="452.5156" x2="1381.3135" y1="315.0801" y2="315.0801"/><line style="stroke:#181818;stroke-width:1.0;" x1="1381.3135" x2="1381.3135" y1="315.0801" y2="347.0801"/><polygon fill="#181818" points="1377.3135,337.0801,1381.3135,347.0801,1385.3135,337.0801,1381.3135,341.0801" style="stroke:#181818;stroke-width:1.0;"/><line style="stroke:#181818;stroke-width:1.0;" x1="846.3237" x2="846.3237" y1="457.6426" y2="461.6426"/><line style="stroke:#181818;stroke-width:1.0;" x1="846.3237" x2="332.8684" y1="461.6426" y2="461.6426"/><line style="stroke:#181818;stroke-width:1.0;" x1="332.8684" x2="332.8684" y1="461.6426" y2="479.6426"/><line style="stroke:#181818;stroke-width:1.0;" x1="332.8684" x2="350.8684" y1="479.6426" y2="479.6426"/><polygon fill="#181818" points="340.8684,475.6426,350.8684,479.6426,340.8684,483.6426,344.8684,479.6426" style="stroke:#181818;stroke-width:1.0;"/><line style="stroke:#181818;stroke-width:1.0;" x1="1381.3135" x2="1381.3135" y1="382.1738" y2="479.6426"/><line style="stroke:#181818;stroke-width:1.0;" x1="1381.3135" x2="374.8684" y1="479.6426" y2="479.6426"/><polygon fill="#181818" points="384.8684,475.6426,374.8684,479.6426,384.8684,483.6426,380.8684,479.6426" style="stroke:#181818;stroke-width:1.0;"/><line style="stroke:#181818;stroke-width:1.0;" x1="661.9946" x2="1608.4199" y1="200.8926" y2="200.8926"/><line style="stroke:#181818;stroke-width:1.0;" x1="1608.4199" x2="1608.4199" y1="200.8926" y2="232.8926"/><polygon fill="#181818" points="1604.4199,222.8926,1608.4199,232.8926,1612.4199,222.8926,1608.4199,226.8926" style="stroke:#181818;stroke-width:1.0;"/><line style="stroke:#181818;stroke-width:1.0;" x1="1608.4199" x2="1608.4199" y1="341.9785" y2="513.6426"/><line style="stroke:#181818;stroke-width:1.0;" x1="1608.4199" x2="619.1978" y1="513.6426" y2="513.6426"/><polygon fill="#181818" points="629.1978,509.6426,619.1978,513.6426,629.1978,517.6426,625.1978,513.6426" style="stroke:#181818;stroke-width:1.0;"/><line style="stroke:#181818;stroke-width:1.0;" x1="134.0518" x2="134.0518" y1="168.8926" y2="173.8926"/><line style="stroke:#181818;stroke-width:1.0;" x1="134.0518" x2="607.1978" y1="173.8926" y2="173.8926"/><line style="stroke:#181818;stroke-width:1.0;" x1="607.1978" x2="607.1978" y1="173.8926" y2="188.8926"/><polygon fill="#181818" points="603.1978,178.8926,607.1978,188.8926,611.1978,178.8926,607.1978,182.8926" style="stroke:#181818;stroke-width:1.0;"/><line style="stroke:#181818;stroke-width:1.0;" x1="607.1978" x2="607.1978" y1="525.6426" y2="530.6426"/><line style="stroke:#181818;stroke-width:1.0;" x1="607.1978" x2="2148.0488" y1="530.6426" y2="530.6426"/><line style="stroke:#181818;stroke-width:1.0;" x1="2148.0488" x2="2148.0488" y1="530.6426" y2="545.6426"/><polygon fill="#181818" points="2144.0488,535.6426,2148.0488,545.6426,2152.0488,535.6426,2148.0488,539.6426" style="stroke:#181818;stroke-width:1.0;"/><text fill="#000000" font-family="sans-serif" font-size="18" lengthAdjust="spacing" textLength="197.1387" x="34.4824" y="69.75">Phase 1: ui_state_dcg.pl</text><text fill="#000000" font-family="sans-serif" font-size="18" lengthAdjust="spacing" textLength="163.1162" x="413.8801" y="69.75">Phase 2: edit_ops.pl</text><text fill="#000000" font-family="sans-serif" font-size="18" lengthAdjust="spacing" textLength="198.1055" x="1268.825" y="69.75">Phase 3: COM boundary</text><text fill="#000000" font-family="sans-serif" font-size="18" lengthAdjust="spacing" textLength="54.0352" x="2120.0313" y="69.75">Output</text><!--SRC=[ZLJRRk8m47tFLuoq3mNKK2ZGhjAggvRI5L9RKDbM-uPCF25M4pko7TYezDztd0HwNsqU8jbpvk8pPsOFPeMvkORpq8gLi0LS2hRKBFNsOCPM21cpyPeL0OmlvwFVqydTh_dLU7HzEPpS09FyrVNj_VdFqGnYkarGcpP5k50s1gOHC8hG9S2a0AbybHaG4cmi32noaN3wMpeY6AlpqEQQ9UJEgrA0K9b6Wtg572Ab8TJA69zZGX4rMoG8eP9668ioBDgUPuMbkzDJ5jgpCnZEHFeWS5qzQ2eoyfC83VoJAMt9DKsfPjFqFFCePCPSIbRJSS72nwLMkUH3bL3cRzYB3YF-6L9fZhf2kUzRTt0q23kV8A-Kj2yuGdPu_vXrFq5IBr8b-OSYeYZgOUSV3kzhmQD1j_FQmSICgxMGIuXOOj3pDjEO6OHk0BcO6yiipdcuR6V9ngEJjbx0XI4nX37W2YLr2tKg9FM9uljGSJcF12QS28N9tVPAvco9vcINuJ00vCBEIGDbT151OnqBYbituaVJAK5k-xEBsNIP86Yrjkx1Eq1ZjW-pPglbrRpwKBx3pt9IOAcwazBaCjxFHlDHwNxbl9sQEKOaYvVq1PhcDXJKnVS2SD25wmNJnMPd3yOtQEAfrVvPbjlvDLjWiZE-jJsWjY94yuNvLkcKMlA5TIpvMzyhaU3CAaqaLuWf3QnaANu1AMUW4MPPq3_k-eFUOVDaXvJA8cYnZEtk2cY6gxSIdMG7gvaq2T7Aswz0f2jUKTFOyjbsTU_3xlYgYXTQaJQ8orfU80aH6bAzc0DCCrf92yMBgkP1xzWVz3jrpUGj8gzoUwEsBwLIcVzNA46PU96eyD5tuYJPqmAYnMLKhiEQna6_xm- -7zKbVQ1mGWSt9hJurjePdswfES_ja4Oe8agshLm9HgijGtaGPLf86xLXc6jDAScJHizjkPho7MdL-xtD9BVK-OqNbCzuUePSXhI6byYhuPGAoXc1D7S0shO5e22Lwtf8jqjxEyiqsrHoMT-1QweH7FrgXuEIxYbkGb2MHPtGWb3PNm00]--></g></svg>