<svg xmlns="http://www.w3.org/2000/svg" xmlns:xlink="http://www.w3.org/1999/xlink" contentStyleType="text/css" height="1154px" preserveAspectRatio="none" style="width:1813px;height:1154px;background:#FFFFFF;" version="1.1" viewBox="0 0 1813 1154" width="1813px" zoomAndPan="magnify"><title>&lt;&lt;act&gt;&gt; CSimView Load Pipeline (initial_update)</title><defs/><g><!--bg-injected--><rect x=\"0\" y=\"0\" width=\"100%\" height=\"100%\" fill=\"#FFFFFF\"/><text fill="#000000" font-family="sans-serif" font-size="14" font-weight="bold" lengthAdjust="spacing" textLength="305.7373" x="752.4944" y="34.5332">&#171;act&#187; CSimView Load Pipeline (initial_update)</text><rect fill="none" height="22.6406" style="stroke:none;stroke-width:1.0;" width="1780.7261" x="15" y="51.0645"/><ellipse cx="173.3291" cy="88.7051" fill="#222222" rx="10" ry="10" style="stroke:#222222;stroke-width:1.0;"/><rect fill="#E3F2FD" height="35.0938" rx="12.5" ry="12.5" style="stroke:#1565C0;stroke-width:0.5;" width="129.377" x="108.6406" y="118.7051"/><text fill="#0D47A1" font-family="sans-serif" font-size="12" lengthAdjust="spacing" textLength="109.377" x="118.6406" y="141.1621">read GetDocument()</text><polygon fill="#FFF3E0" points="121.96,173.7988,224.6982,173.7988,236.6982,185.7988,224.6982,197.7988,121.96,197.7988,109.96,185.7988,121.96,173.7988" style="stroke:#E65100;stroke-width:0.5;"/><text fill="#0D47A1" font-family="sans-serif" font-size="11" lengthAdjust="spacing" textLength="102.7383" x="121.96" y="190.2998">Document == none ?</text><text fill="#000000" font-family="sans-serif" font-size="11" lengthAdjust="spacing" textLength="17.1177" x="92.8423" y="183.3818">yes</text><text fill="#000000" font-family="sans-serif" font-size="11" lengthAdjust="spacing" textLength="12.2354" x="236.6982" y="183.3818">no</text><rect fill="#E3F2FD" height="35.0938" rx="12.5" ry="12.5" style="stroke:#1565C0;stroke-width:0.5;" width="150.7578" x="21" y="207.7988"/><text fill="#0D47A1" font-family="sans-serif" font-size="12" lengthAdjust="spacing" textLength="130.7578" x="31" y="230.2559">no-op (state unchanged)</text><ellipse cx="96.3789" cy="273.8926" fill="none" rx="11" ry="11" style="stroke:#222222;stroke-width:1.0;"/><ellipse cx="96.3789" cy="273.8926" fill="#222222" rx="6" ry="6" style="stroke:#222222;stroke-width:1.0;"/><rect fill="#E3F2FD" height="35.0938" rx="12.5" ry="12.5" style="stroke:#1565C0;stroke-width:0.5;" width="117.043" x="191.7578" y="207.7988"/><text fill="#0D47A1" font-family="sans-serif" font-size="12" lengthAdjust="spacing" textLength="97.043" x="201.7578" y="230.2559">win := view_active</text><line style="stroke:#000000;stroke-width:1.5;" x1="15" x2="15" y1="51.0645" y2="1142.5801"/><rect fill="#E3F2FD" height="35.0938" rx="12.5" ry="12.5" style="stroke:#1565C0;stroke-width:0.5;" width="261.1133" x="329.3306" y="304.8926"/><text fill="#0D47A1" font-family="sans-serif" font-size="12" lengthAdjust="spacing" textLength="241.1133" x="339.3306" y="327.3496">read pSeries-&gt;GetStructureCount() (cpp:339)</text><rect fill="#E3F2FD" height="65.2813" style="stroke:#1565C0;stroke-width:0.5;" width="258.1016" x="330.8364" y="359.9863"/><text fill="#0D47A1" font-family="sans-serif" font-size="12" font-weight="bold" lengthAdjust="spacing" textLength="238.1016" x="340.8364" y="382.4434">load_surface_renderable_list(Series, List)</text><text fill="#0D47A1" font-family="sans-serif" font-size="12" lengthAdjust="spacing" textLength="126.7207" x="350.8384" y="397.5371">- one record per CMesh</text><text fill="#0D47A1" font-family="sans-serif" font-size="12" lengthAdjust="spacing" textLength="145.7168" x="350.8384" y="412.6309">- color = arrColors[i mod 13</text><rect fill="#E3F2FD" height="35.0938" rx="12.5" ry="12.5" style="stroke:#1565C0;stroke-width:0.5;" width="225.0898" x="347.3423" y="445.2676"/><text fill="#0D47A1" font-family="sans-serif" font-size="12" lengthAdjust="spacing" textLength="201.7559" x="360.6763" y="467.7246">icon  = arrIconResourceIDs[i mod 13];</text><rect fill="#E3F2FD" height="35.0938" rx="12.5" ry="12.5" style="stroke:#1565C0;stroke-width:0.5;" width="223.1035" x="348.3354" y="500.3613"/><text fill="#0D47A1" font-family="sans-serif" font-size="12" lengthAdjust="spacing" textLength="203.1035" x="358.3354" y="522.8184">write state.surface_renderables := List</text><rect fill="#E3F2FD" height="50.1875" rx="12.5" ry="12.5" style="stroke:#1565C0;stroke-width:0.5;" width="184.7012" x="367.5366" y="555.4551"/><text fill="#0D47A1" font-family="sans-serif" font-size="12" font-weight="bold" lengthAdjust="spacing" textLength="164.7012" x="377.5366" y="577.9121">patient_surface(List, Patient)</text><text fill="#0D47A1" font-family="sans-serif" font-size="12" lengthAdjust="spacing" textLength="60.0293" x="387.5386" y="593.0059">- element 0</text><rect fill="#E3F2FD" height="35.0938" rx="12.5" ry="12.5" style="stroke:#1565C0;stroke-width:0.5;" width="278.4922" x="320.6411" y="625.6426"/><text fill="#0D47A1" font-family="sans-serif" font-size="12" lengthAdjust="spacing" textLength="258.4922" x="330.6411" y="648.0996">write state.patient_surface_renderable := Patient</text><line style="stroke:#000000;stroke-width:1.5;" x1="312.8008" x2="312.8008" y1="51.0645" y2="1142.5801"/><rect fill="#E3F2FD" height="35.0938" rx="12.5" ry="12.5" style="stroke:#1565C0;stroke-width:0.5;" width="201.418" x="647.334" y="680.7363"/><text fill="#0D47A1" font-family="sans-serif" font-size="12" lengthAdjust="spacing" textLength="181.418" x="657.334" y="703.1934">iterate GetBeamCount() (cpp:385)</text><rect fill="#E3F2FD" height="35.0938" rx="12.5" ry="12.5" style="stroke:#1565C0;stroke-width:0.5;" width="274.1387" x="610.9736" y="735.8301"/><text fill="#0D47A1" font-family="sans-serif" font-size="12" lengthAdjust="spacing" textLength="254.1387" x="620.9736" y="758.2871">create CBeamRenderable per beam (boundary)</text><rect fill="#E3F2FD" height="50.1875" rx="12.5" ry="12.5" style="stroke:#1565C0;stroke-width:0.5;" width="232.1152" x="631.9854" y="790.9238"/><text fill="#0D47A1" font-family="sans-serif" font-size="12" font-weight="bold" lengthAdjust="spacing" textLength="158.7246" x="641.9854" y="813.3809">set_current_beam(Beam[0])</text><text fill="#0D47A1" font-family="sans-serif" font-size="12" lengthAdjust="spacing" textLength="202.1133" x="651.9873" y="828.4746">- attaches OnBeamChanged observer</text><line style="stroke:#000000;stroke-width:1.5;" x1="604.9736" x2="604.9736" y1="51.0645" y2="1142.5801"/><polygon fill="#FFF3E0" points="1172.7185,861.1113,1283.6907,861.1113,1295.6907,873.1113,1283.6907,885.1113,1172.7185,885.1113,1160.7185,873.1113,1172.7185,861.1113" style="stroke:#E65100;stroke-width:0.5;"/><text fill="#0D47A1" font-family="sans-serif" font-size="11" lengthAdjust="spacing" textLength="110.9722" x="1172.7185" y="877.6123">GetBeamCount() &gt; 0 ?</text><text fill="#000000" font-family="sans-serif" font-size="11" lengthAdjust="spacing" textLength="17.1177" x="1143.6008" y="870.6943">yes</text><text fill="#000000" font-family="sans-serif" font-size="11" lengthAdjust="spacing" textLength="12.2354" x="1295.6907" y="870.6943">no</text><rect fill="#E3F2FD" height="35.0938" rx="12.5" ry="12.5" style="stroke:#1565C0;stroke-width:0.5;" width="363.5234" x="895.1123" y="895.1113"/><text fill="#0D47A1" font-family="sans-serif" font-size="12" lengthAdjust="spacing" textLength="343.5234" x="905.1123" y="917.5684">create CMachineRenderable, color RGB(255,255,128) (cpp:417)</text><rect fill="#E3F2FD" height="35.0938" rx="12.5" ry="12.5" style="stroke:#1565C0;stroke-width:0.5;" width="259.8008" x="946.9736" y="950.2051"/><text fill="#0D47A1" font-family="sans-serif" font-size="12" lengthAdjust="spacing" textLength="239.8008" x="956.9736" y="972.6621">write state.machine_renderable := MachineId</text><rect fill="#E3F2FD" height="35.0938" rx="12.5" ry="12.5" style="stroke:#1565C0;stroke-width:0.5;" width="201.7988" x="1278.6357" y="895.1113"/><text fill="#0D47A1" font-family="sans-serif" font-size="12" lengthAdjust="spacing" textLength="181.7988" x="1288.6357" y="917.5684">leave machine_renderable = none</text><polygon fill="#FFF3E0" points="1228.2046,991.2988,1240.2046,1003.2988,1228.2046,1015.2988,1216.2046,1003.2988,1228.2046,991.2988" style="stroke:#E65100;stroke-width:0.5;"/><line style="stroke:#000000;stroke-width:1.5;" x1="889.1123" x2="889.1123" y1="51.0645" y2="1142.5801"/><rect fill="#E3F2FD" height="65.2813" rx="12.5" ry="12.5" style="stroke:#1565C0;stroke-width:0.5;" width="299.791" x="1490.4346" y="1035.2988"/><text fill="#0D47A1" font-family="sans-serif" font-size="12" lengthAdjust="spacing" textLength="198.1113" x="1500.4346" y="1057.7559">state{} ready for view_active dispatch</text><text fill="#0D47A1" font-family="sans-serif" font-size="12" lengthAdjust="spacing" textLength="110.7305" x="1510.4365" y="1072.8496">- ui_cascade derived</text><text fill="#0D47A1" font-family="sans-serif" font-size="12" lengthAdjust="spacing" textLength="269.7891" x="1510.4365" y="1087.9434">- modelview_dirty = true (until first beam_changed)</text><ellipse cx="1640.3301" cy="1131.5801" fill="none" rx="11" ry="11" style="stroke:#222222;stroke-width:1.0;"/><ellipse cx="1640.3301" cy="1131.5801" fill="#222222" rx="6" ry="6" style="stroke:#222222;stroke-width:1.0;"/><line style="stroke:#000000;stroke-width:1.5;" x1="1484.4346" x2="1484.4346" y1="51.0645" y2="1142.5801"/><line style="stroke:#000000;stroke-width:1.5;" x1="1794.2256" x2="1794.2256" y1="51.0645" y2="1142.5801"/><line style="stroke:#181818;stroke-width:1.0;" x1="173.3291" x2="173.3291" y1="98.7051" y2="118.7051"/><polygon fill="#181818" points="169.3291,108.7051,173.3291,118.7051,177.3291,108.7051,173.3291,112.7051" style="stroke:#181818;stroke-width:1.0;"/><line style="stroke:#181818;stroke-width:1.0;" x1="96.3789" x2="96.3789" y1="242.8926" y2="262.8926"/><polygon fill="#181818" points="92.3789,252.8926,96.3789,262.8926,100.3789,252.8926,96.3789,256.8926" style="stroke:#181818;stroke-width:1.0;"/><line style="stroke:#181818;stroke-width:1.0;" x1="109.96" x2="96.3789" y1="185.7988" y2="185.7988"/><line style="stroke:#181818;stroke-width:1.0;" x1="96.3789" x2="96.3789" y1="185.7988" y2="207.7988"/><polygon fill="#181818" points="92.3789,197.7988,96.3789,207.7988,100.3789,197.7988,96.3789,201.7988" style="stroke:#181818;stroke-width:1.0;"/><line style="stroke:#181818;stroke-width:1.0;" x1="236.6982" x2="250.2793" y1="185.7988" y2="185.7988"/><line style="stroke:#181818;stroke-width:1.0;" x1="250.2793" x2="250.2793" y1="185.7988" y2="207.7988"/><polygon fill="#181818" points="246.2793,197.7988,250.2793,207.7988,254.2793,197.7988,250.2793,201.7988" style="stroke:#181818;stroke-width:1.0;"/><line style="stroke:#181818;stroke-width:1.0;" x1="250.2793" x2="250.2793" y1="242.8926" y2="289.8926"/><line style="stroke:#181818;stroke-width:1.0;" x1="250.2793" x2="459.8872" y1="289.8926" y2="289.8926"/><line style="stroke:#181818;stroke-width:1.0;" x1="459.8872" x2="459.8872" y1="289.8926" y2="304.8926"/><polygon fill="#181818" points="455.8872,294.8926,459.8872,304.8926,463.8872,294.8926,459.8872,298.8926" style="stroke:#181818;stroke-width:1.0;"/><line style="stroke:#181818;stroke-width:1.0;" x1="173.3291" x2="173.3291" y1="153.7988" y2="173.7988"/><polygon fill="#181818" points="169.3291,163.7988,173.3291,173.7988,177.3291,163.7988,173.3291,167.7988" style="stroke:#181818;stroke-width:1.0;"/><line style="stroke:#181818;stroke-width:1.0;" x1="459.8872" x2="459.8872" y1="339.9863" y2="359.9863"/><polygon fill="#181818" points="455.8872,349.9863,459.8872,359.9863,463.8872,349.9863,459.8872,353.9863" style="stroke:#181818;stroke-width:1.0;"/><line style="stroke:#181818;stroke-width:1.0;" x1="459.8872" x2="459.8872" y1="425.2676" y2="445.2676"/><polygon fill="#181818" points="455.8872,435.2676,459.8872,445.2676,463.8872,435.2676,459.8872,439.2676" style="stroke:#181818;stroke-width:1.0;"/><line style="stroke:#181818;stroke-width:1.0;" x1="459.8872" x2="459.8872" y1="480.3613" y2="500.3613"/><polygon fill="#181818" points="455.8872,490.3613,459.8872,500.3613,463.8872,490.3613,459.8872,494.3613" style="stroke:#181818;stroke-width:1.0;"/><line style="stroke:#181818;stroke-width:1.0;" x1="459.8872" x2="459.8872" y1="535.4551" y2="555.4551"/><polygon fill="#181818" points="455.8872,545.4551,459.8872,555.4551,463.8872,545.4551,459.8872,549.4551" style="stroke:#181818;stroke-width:1.0;"/><line style="stroke:#181818;stroke-width:1.0;" x1="459.8872" x2="459.8872" y1="605.6426" y2="625.6426"/><polygon fill="#181818" points="455.8872,615.6426,459.8872,625.6426,463.8872,615.6426,459.8872,619.6426" style="stroke:#181818;stroke-width:1.0;"/><line style="stroke:#181818;stroke-width:1.0;" x1="748.043" x2="748.043" y1="715.8301" y2="735.8301"/><polygon fill="#181818" points="744.043,725.8301,748.043,735.8301,752.043,725.8301,748.043,729.8301" style="stroke:#181818;stroke-width:1.0;"/><line style="stroke:#181818;stroke-width:1.0;" x1="748.043" x2="748.043" y1="770.9238" y2="790.9238"/><polygon fill="#181818" points="744.043,780.9238,748.043,790.9238,752.043,780.9238,748.043,784.9238" style="stroke:#181818;stroke-width:1.0;"/><line style="stroke:#181818;stroke-width:1.0;" x1="1076.874" x2="1076.874" y1="930.2051" y2="950.2051"/><polygon fill="#181818" points="1072.874,940.2051,1076.874,950.2051,1080.874,940.2051,1076.874,944.2051" style="stroke:#181818;stroke-width:1.0;"/><line style="stroke:#181818;stroke-width:1.0;" x1="1160.7185" x2="1076.874" y1="873.1113" y2="873.1113"/><line style="stroke:#181818;stroke-width:1.0;" x1="1076.874" x2="1076.874" y1="873.1113" y2="895.1113"/><polygon fill="#181818" points="1072.874,885.1113,1076.874,895.1113,1080.874,885.1113,1076.874,889.1113" style="stroke:#181818;stroke-width:1.0;"/><line style="stroke:#181818;stroke-width:1.0;" x1="1295.6907" x2="1379.5352" y1="873.1113" y2="873.1113"/><line style="stroke:#181818;stroke-width:1.0;" x1="1379.5352" x2="1379.5352" y1="873.1113" y2="895.1113"/><polygon fill="#181818" points="1375.5352,885.1113,1379.5352,895.1113,1383.5352,885.1113,1379.5352,889.1113" style="stroke:#181818;stroke-width:1.0;"/><line style="stroke:#181818;stroke-width:1.0;" x1="1076.874" x2="1076.874" y1="985.2988" y2="1003.2988"/><line style="stroke:#181818;stroke-width:1.0;" x1="1076.874" x2="1216.2046" y1="1003.2988" y2="1003.2988"/><polygon fill="#181818" points="1206.2046,999.2988,1216.2046,1003.2988,1206.2046,1007.2988,1210.2046,1003.2988" style="stroke:#181818;stroke-width:1.0;"/><line style="stroke:#181818;stroke-width:1.0;" x1="1379.5352" x2="1379.5352" y1="930.2051" y2="1003.2988"/><line style="stroke:#181818;stroke-width:1.0;" x1="1379.5352" x2="1240.2046" y1="1003.2988" y2="1003.2988"/><polygon fill="#181818" points="1250.2046,999.2988,1240.2046,1003.2988,1250.2046,1007.2988,1246.2046,1003.2988" style="stroke:#181818;stroke-width:1.0;"/><line style="stroke:#181818;stroke-width:1.0;" x1="1640.3301" x2="1640.3301" y1="1100.5801" y2="1120.5801"/><polygon fill="#181818" points="1636.3301,1110.5801,1640.3301,1120.5801,1644.3301,1110.5801,1640.3301,1114.5801" style="stroke:#181818;stroke-width:1.0;"/><line style="stroke:#181818;stroke-width:1.0;" x1="459.8872" x2="459.8872" y1="660.7363" y2="665.7363"/><line style="stroke:#181818;stroke-width:1.0;" x1="459.8872" x2="748.043" y1="665.7363" y2="665.7363"/><line style="stroke:#181818;stroke-width:1.0;" x1="748.043" x2="748.043" y1="665.7363" y2="680.7363"/><polygon fill="#181818" points="744.043,670.7363,748.043,680.7363,752.043,670.7363,748.043,674.7363" style="stroke:#181818;stroke-width:1.0;"/><line style="stroke:#181818;stroke-width:1.0;" x1="748.043" x2="748.043" y1="841.1113" y2="846.1113"/><line style="stroke:#181818;stroke-width:1.0;" x1="748.043" x2="1228.2046" y1="846.1113" y2="846.1113"/><line style="stroke:#181818;stroke-width:1.0;" x1="1228.2046" x2="1228.2046" y1="846.1113" y2="861.1113"/><polygon fill="#181818" points="1224.2046,851.1113,1228.2046,861.1113,1232.2046,851.1113,1228.2046,855.1113" style="stroke:#181818;stroke-width:1.0;"/><line style="stroke:#181818;stroke-width:1.0;" x1="1228.2046" x2="1228.2046" y1="1015.2988" y2="1020.2988"/><line style="stroke:#181818;stroke-width:1.0;" x1="1228.2046" x2="1640.3301" y1="1020.2988" y2="1020.2988"/><line style="stroke:#181818;stroke-width:1.0;" x1="1640.3301" x2="1640.3301" y1="1020.2988" y2="1035.2988"/><polygon fill="#181818" points="1636.3301,1025.2988,1640.3301,1035.2988,1644.3301,1025.2988,1640.3301,1029.2988" style="stroke:#181818;stroke-width:1.0;"/><text fill="#000000" font-family="sans-serif" font-size="18" lengthAdjust="spacing" textLength="255.1904" x="36.3052" y="69.75">Phase 1: edit_ops.initial_update</text><text fill="#000000" font-family="sans-serif" font-size="18" lengthAdjust="spacing" textLength="282.1729" x="317.8008" y="69.75">Phase 2: surface_renderable_list.pl</text><text fill="#000000" font-family="sans-serif" font-size="18" lengthAdjust="spacing" textLength="258.1348" x="617.9756" y="69.75">Phase 3: edit_ops (beam wiring)</text><text fill="#000000" font-family="sans-serif" font-size="18" lengthAdjust="spacing" textLength="320.1943" x="1026.6763" y="69.75">Phase 4: edit_ops (machine renderable)</text><text fill="#000000" font-family="sans-serif" font-size="18" lengthAdjust="spacing" textLength="54.0352" x="1612.3125" y="69.75">Output</text><!--SRC=[VPHlRzem4CRVvrESj1SD7I3-bBOBXMcbMbMfLQiYxKrLHSQ-WDLWHxO3Gkk- -yv989Io8I5mV7V- -NdkSWBJZNsuXn_SoPLq6xYHR6xOCZY1Uyq4PCmjrcmJmUH6yto9ofrOcAAHQE4hN2DRMcYD8TDPdZA70goZdzz_mA0IQDWiHKYbTROT14uwMbrTCUx6OvXCvVANn7LvpfFCC9KA8PHAEidIECy4LMe4WNsJAcF41Ao2l6RyRMvqhiH4fzh05-mdlKGSYzI6ACee__dI7PmFUET8v4-jN1r7aHrnTi6wHo99eQLMuXD4aYHzxFmduP05pmVTpdw2NJ2XrrBD8M6fnI1uVremYz2D08LqiSvi-wCyxm7fRLmG6IGHRz5jNGeRmq0c46xNC1g1qgJlzmQu1Ie8DsWRWUU8b6xf3CB2ESWLNp0rHq45_AvrEWkGQ21KkaeWH8X6i2BtukAIE0p8RfdiY7iHsDmaZ6DSDqBi6w6TfUyLRbRsKMjCt5DdSkvoWnDIbEWXv5aMzVlV22CwFKsfH-9_L0pBCasufqNZzDGpji3VrI0dpI530vC7j8joXnSEZ82PqWpx8c6f1NJxhsM0v5f16N17Vv_HwjnmlBlPYoIgjP6aLw5Q-pEQzGfveeAVnaYI2zihX7wZ2K_bqnqpfbXurJceVf2zTue_fAeot8dVhzi5mXcDAAobeQvgaF1Kr7YRIN8_l1_LlXnujJcPGn4Jl_zSd-HLB8g5Cz_qp6nAQoowcEV6U42_7_gybyxhxbRCESON9CYZAeuismlqpA9PeQcvp_QvbvGZ2m-t18JlE_g0V0oTOpszlSH3MQQ-HxFo__dsEkmD1at_xVOkAmdEkXTLttyme88v4BwgVIU6XmEI8biX7CagXx2UbiVSPRaZN-hN9XCRI0XmRxf0I4izmAi6pcNCcULCq0Qr_Wf5-PnQ4zCYJKX3h_8Hq50H5WabKqYaiQvmCAudt4_tNm00]--></g></svg>