<svg xmlns="http://www.w3.org/2000/svg" xmlns:xlink="http://www.w3.org/1999/xlink" contentStyleType="text/css" height="745px" preserveAspectRatio="none" style="width:796px;height:745px;background:#FFFFFF;" version="1.1" viewBox="0 0 796 745" width="796px" zoomAndPan="magnify"><title>&lt;&lt;bdd&gt;&gt; CSimView state{} dict schema</title><defs/><g><!--bg-injected--><rect x=\"0\" y=\"0\" width=\"100%\" height=\"100%\" fill=\"#FFFFFF\"/><text fill="#000000" font-family="sans-serif" font-size="14" font-weight="bold" lengthAdjust="spacing" textLength="245.0889" x="268.4556" y="28.5332">&#171;bdd&#187; CSimView state{} dict schema</text><!--cluster Root--><g id="cluster_Root"><path d="M8.5,68.6094 L49.376,68.6094 A3.75,3.75 0 0 1 51.876,71.1094 L58.876,100.2188 L422.5,100.2188 A2.5,2.5 0 0 1 425,102.7188 L425,653.1094 A2.5,2.5 0 0 1 422.5,655.6094 L8.5,655.6094 A2.5,2.5 0 0 1 6,653.1094 L6,71.1094 A2.5,2.5 0 0 1 8.5,68.6094 " fill="none" style="stroke:#000000;stroke-width:1.5;"/><line style="stroke:#000000;stroke-width:1.5;" x1="6" x2="58.876" y1="100.2188" y2="100.2188"/><text fill="#000000" font-family="sans-serif" font-size="14" font-weight="bold" lengthAdjust="spacing" textLength="31.876" x="14" y="89.1426">Root</text></g><!--cluster Display Rows--><g id="cluster_Display Rows"><path d="M455.5,52.6094 L555.5273,52.6094 A3.75,3.75 0 0 1 558.0273,55.1094 L565.0273,84.2188 L626.5,84.2188 A2.5,2.5 0 0 1 629,86.7188 L629,280.1094 A2.5,2.5 0 0 1 626.5,282.6094 L455.5,282.6094 A2.5,2.5 0 0 1 453,280.1094 L453,55.1094 A2.5,2.5 0 0 1 455.5,52.6094 " fill="none" style="stroke:#000000;stroke-width:1.5;"/><line style="stroke:#000000;stroke-width:1.5;" x1="453" x2="565.0273" y1="84.2188" y2="84.2188"/><text fill="#000000" font-family="sans-serif" font-size="14" font-weight="bold" lengthAdjust="spacing" textLength="91.0273" x="461" y="73.1426">Display Rows</text></g><!--cluster UI Cascade--><g id="cluster_UI Cascade"><path d="M457,306.6094 L541.4824,306.6094 A3.75,3.75 0 0 1 543.9824,309.1094 L550.9824,338.2188 L786.5,338.2188 A2.5,2.5 0 0 1 789,340.7188 L789,534.1094 A2.5,2.5 0 0 1 786.5,536.6094 L457,536.6094 A2.5,2.5 0 0 1 454.5,534.1094 L454.5,309.1094 A2.5,2.5 0 0 1 457,306.6094 " fill="none" style="stroke:#000000;stroke-width:1.5;"/><line style="stroke:#000000;stroke-width:1.5;" x1="454.5" x2="550.9824" y1="338.2188" y2="338.2188"/><text fill="#000000" font-family="sans-serif" font-size="14" font-weight="bold" lengthAdjust="spacing" textLength="75.4824" x="462.5" y="327.1426">UI Cascade</text></g><!--cluster Enumerations--><g id="cluster_Enumerations"><path d="M471,560.6094 L573.3516,560.6094 A3.75,3.75 0 0 1 575.8516,563.1094 L582.8516,592.2188 L611,592.2188 A2.5,2.5 0 0 1 613.5,594.7188 L613.5,736.1094 A2.5,2.5 0 0 1 611,738.6094 L471,738.6094 A2.5,2.5 0 0 1 468.5,736.1094 L468.5,563.1094 A2.5,2.5 0 0 1 471,560.6094 " fill="none" style="stroke:#000000;stroke-width:1.5;"/><line style="stroke:#000000;stroke-width:1.5;" x1="468.5" x2="582.8516" y1="592.2188" y2="592.2188"/><text fill="#000000" font-family="sans-serif" font-size="14" font-weight="bold" lengthAdjust="spacing" textLength="93.3516" x="476.5" y="581.1426">Enumerations</text></g><!--class state--><g id="elem_state"><rect codeLine="27" fill="#FFE0B2" height="407.625" id="state" rx="2.5" ry="2.5" style="stroke:#E65100;stroke-width:0.5;" width="333.9814" x="48.5" y="231.6094"/><text fill="#000000" font-family="sans-serif" font-size="12" font-style="italic" lengthAdjust="spacing" textLength="34.0254" x="198.478" y="253.0664">&#171;root&#187;</text><text fill="#000000" font-family="sans-serif" font-size="14" lengthAdjust="spacing" textLength="30.3516" x="200.3149" y="278.2363">state</text><line style="stroke:#E65100;stroke-width:0.5;" x1="49.5" x2="381.4814" y1="290.3125" y2="290.3125"/><text fill="#000000" font-family="sans-serif" font-size="14" lengthAdjust="spacing" textLength="98.041" x="58.5" y="312.8457">win : ViewMode</text><text fill="#000000" font-family="sans-serif" font-size="14" lengthAdjust="spacing" textLength="188.8564" x="58.5" y="338.4551">current_beam : BeamId | none</text><text fill="#000000" font-family="sans-serif" font-size="14" lengthAdjust="spacing" textLength="261.2832" x="58.5" y="364.0645">beam_renderable_pointer : opaque | none</text><text fill="#000000" font-family="sans-serif" font-size="14" lengthAdjust="spacing" textLength="271.4004" x="58.5" y="389.6738">patient_surface_renderable : opaque | none</text><text fill="#000000" font-family="sans-serif" font-size="14" lengthAdjust="spacing" textLength="228.5869" x="58.5" y="415.2832">machine_renderable : opaque | none</text><text fill="#000000" font-family="sans-serif" font-size="14" lengthAdjust="spacing" textLength="205.4951" x="58.5" y="440.8926">beam_renderable_enabled : bool</text><text fill="#000000" font-family="sans-serif" font-size="14" lengthAdjust="spacing" textLength="142.4199" x="58.5" y="466.502">surface_textured : bool</text><text fill="#000000" font-family="sans-serif" font-size="14" lengthAdjust="spacing" textLength="99.5928" x="58.5" y="492.1113">wireframe : bool</text><text fill="#000000" font-family="sans-serif" font-size="14" lengthAdjust="spacing" textLength="101.165" x="58.5" y="517.7207">colorwash : bool</text><text fill="#000000" font-family="sans-serif" font-size="14" lengthAdjust="spacing" textLength="138.5098" x="58.5" y="543.3301">modelview_dirty : bool</text><text fill="#000000" font-family="sans-serif" font-size="14" lengthAdjust="spacing" textLength="166.5439" x="58.5" y="568.9395">rev_window_created : bool</text><text fill="#000000" font-family="sans-serif" font-size="14" lengthAdjust="spacing" textLength="95.71" x="58.5" y="594.5488">timer_set : bool</text><line style="stroke:#E65100;stroke-width:1.0;stroke-dasharray:1.0,2.0;" x1="49.5" x2="381.4814" y1="605.625" y2="605.625"/><text fill="#000000" font-family="sans-serif" font-size="14" lengthAdjust="spacing" textLength="313.9814" x="58.5" y="628.1582">+5 stale / window-config fields (see markdown 2.2)</text></g><g id="elem_GMN4"><path d="M22,113.1094 L22,196.5156 A0,0 0 0 0 22,196.5156 L212,196.5156 L216,231.3894 L220,196.5156 L409.4331,196.5156 A0,0 0 0 0 409.4331,196.5156 L409.4331,123.1094 L399.4331,113.1094 L22,113.1094 A0,0 0 0 0 22,113.1094 " fill="#FEFFDD" style="stroke:#181818;stroke-width:0.5;"/><path d="M399.4331,113.1094 L399.4331,123.1094 L409.4331,123.1094 L399.4331,113.1094 " fill="#FEFFDD" style="stroke:#181818;stroke-width:0.5;"/><text fill="#000000" font-family="sans-serif" font-size="13" lengthAdjust="spacing" textLength="358.4331" x="32" y="135.6045">Key insight: m_pBeamRenderable (beam_renderable_pointer)</text><text fill="#000000" font-family="sans-serif" font-size="13" lengthAdjust="spacing" textLength="330.2114" x="32" y="151.9561">is NEVER assigned. OnViewBeam dereferences NULL in</text><text fill="#000000" font-family="sans-serif" font-size="13" lengthAdjust="spacing" textLength="306.3823" x="32" y="168.3076">production. The LTS preserves the field verbatim and</text><text fill="#000000" font-family="sans-serif" font-size="13" lengthAdjust="spacing" textLength="276.8149" x="32" y="184.6592">models the *intended* toggle to expose the bug.</text></g><!--class surface_renderable--><g id="elem_surface_renderable"><rect codeLine="52" fill="#F3E5F5" height="169.1406" id="surface_renderable" rx="2.5" ry="2.5" style="stroke:#7B1FA2;stroke-width:0.5;" width="143.7031" x="469" y="97.1094"/><text fill="#000000" font-family="sans-serif" font-size="12" font-style="italic" lengthAdjust="spacing" textLength="74.707" x="503.498" y="118.5664">&#171;displayRow&#187;</text><text fill="#000000" font-family="sans-serif" font-size="14" lengthAdjust="spacing" textLength="120.6338" x="480.5347" y="143.7363">surface_renderable</text><line style="stroke:#7B1FA2;stroke-width:0.5;" x1="470" x2="611.7031" y1="155.8125" y2="155.8125"/><text fill="#000000" font-family="sans-serif" font-size="14" lengthAdjust="spacing" textLength="53.6895" x="479" y="178.3457">id : atom</text><text fill="#000000" font-family="sans-serif" font-size="14" lengthAdjust="spacing" textLength="119.7998" x="479" y="203.9551">color : COLORREF</text><text fill="#000000" font-family="sans-serif" font-size="14" lengthAdjust="spacing" textLength="88.6963" x="479" y="229.5645">icon_id : UINT</text><text fill="#000000" font-family="sans-serif" font-size="14" lengthAdjust="spacing" textLength="123.7031" x="479" y="255.1738">modelview : Matrix4</text></g><!--class ui_cascade--><g id="elem_ui_cascade"><rect codeLine="61" fill="#C8E6C9" height="169.1406" id="ui_cascade" rx="2.5" ry="2.5" style="stroke:#2E7D32;stroke-width:0.5;" width="141.3857" x="470.5" y="351.1094"/><text fill="#000000" font-family="sans-serif" font-size="12" font-style="italic" lengthAdjust="spacing" textLength="70.0488" x="506.1685" y="372.5664">&#171;uiCascade&#187;</text><text fill="#000000" font-family="sans-serif" font-size="14" lengthAdjust="spacing" textLength="70.8271" x="505.7793" y="397.7363">ui_cascade</text><line style="stroke:#2E7D32;stroke-width:0.5;" x1="471.5" x2="610.8857" y1="409.8125" y2="409.8125"/><text fill="#000000" font-family="sans-serif" font-size="14" lengthAdjust="spacing" textLength="93.3789" x="480.5" y="432.3457">view_beam : ui</text><text fill="#000000" font-family="sans-serif" font-size="14" lengthAdjust="spacing" textLength="109.7236" x="480.5" y="457.9551">view_lightfield : ui</text><text fill="#000000" font-family="sans-serif" font-size="14" lengthAdjust="spacing" textLength="119.8135" x="480.5" y="483.5645">view_wireframe : ui</text><text fill="#000000" font-family="sans-serif" font-size="14" lengthAdjust="spacing" textLength="121.3857" x="480.5" y="509.1738">view_colorwash : ui</text></g><!--class ui--><g id="elem_ui"><rect codeLine="67" fill="#C8E6C9" height="117.9219" id="ui" rx="2.5" ry="2.5" style="stroke:#2E7D32;stroke-width:0.5;" width="100.1787" x="673" y="376.6094"/><text fill="#000000" font-family="sans-serif" font-size="12" font-style="italic" lengthAdjust="spacing" textLength="70.0488" x="688.0649" y="398.0664">&#171;uiCascade&#187;</text><text fill="#000000" font-family="sans-serif" font-size="14" lengthAdjust="spacing" textLength="10.8965" x="717.6411" y="423.2363">ui</text><line style="stroke:#2E7D32;stroke-width:0.5;" x1="674" x2="772.1787" y1="435.3125" y2="435.3125"/><text fill="#000000" font-family="sans-serif" font-size="14" lengthAdjust="spacing" textLength="80.1787" x="683" y="457.8457">enable : bool</text><text fill="#000000" font-family="sans-serif" font-size="14" lengthAdjust="spacing" textLength="71.5928" x="683" y="483.4551">check : 0..1</text></g><!--class ViewMode--><g id="elem_ViewMode"><rect codeLine="74" fill="#FFF9C4" height="117.9219" id="ViewMode" rx="2.5" ry="2.5" style="stroke:#F9A825;stroke-width:0.5;" width="113.4063" x="484.5" y="604.6094"/><text fill="#000000" font-family="sans-serif" font-size="12" font-style="italic" lengthAdjust="spacing" textLength="80.0566" x="501.1748" y="626.0664">&#171;enumeration&#187;</text><text fill="#000000" font-family="sans-serif" font-size="14" lengthAdjust="spacing" textLength="65.3652" x="508.5205" y="651.2363">ViewMode</text><line style="stroke:#F9A825;stroke-width:0.5;" x1="485.5" x2="596.9063" y1="663.3125" y2="663.3125"/><text fill="#000000" font-family="sans-serif" font-size="14" lengthAdjust="spacing" textLength="93.4063" x="494.5" y="685.8457">view_unloaded</text><text fill="#000000" font-family="sans-serif" font-size="14" lengthAdjust="spacing" textLength="72.3652" x="494.5" y="711.4551">view_active</text></g><!--reverse link state to surface_renderable--><g id="link_state_surface_renderable"><path codeLine="83" d="M394.54,248.8594 C424.98,248.8594 443.22,248.8594 468.99,248.8594 " fill="none" id="state-backto-surface_renderable" style="stroke:#181818;stroke-width:1.0;"/><polygon fill="#181818" points="382.54,248.8594,388.54,252.8594,394.54,248.8594,388.54,244.8594,382.54,248.8594" style="stroke:#181818;stroke-width:1.0;"/><text fill="#000000" font-family="sans-serif" font-size="13" lengthAdjust="spacing" textLength="118.5171" x="302.77" y="241.3545">surface_renderables</text><text fill="#000000" font-family="sans-serif" font-size="13" lengthAdjust="spacing" textLength="7.23" x="394.4545" y="258.4526">1</text><text fill="#000000" font-family="sans-serif" font-size="13" lengthAdjust="spacing" textLength="5.0591" x="451.912" y="274.538">*</text></g><!--reverse link state to ui_cascade--><g id="link_state_ui_cascade"><path codeLine="84" d="M394.54,435.6094 C425.45,435.6094 444.15,435.6094 470.18,435.6094 " fill="none" id="state-backto-ui_cascade" style="stroke:#181818;stroke-width:1.0;"/><polygon fill="#181818" points="382.54,435.6094,388.54,439.6094,394.54,435.6094,388.54,431.6094,382.54,435.6094" style="stroke:#181818;stroke-width:1.0;"/><text fill="#000000" font-family="sans-serif" font-size="13" lengthAdjust="spacing" textLength="65.7681" x="356.36" y="428.1045">ui_cascade</text><text fill="#000000" font-family="sans-serif" font-size="13" lengthAdjust="spacing" textLength="7.23" x="394.4545" y="453.6647">1</text><text fill="#000000" font-family="sans-serif" font-size="13" lengthAdjust="spacing" textLength="7.23" x="451.0952" y="454.3529">1</text></g><!--link state to ViewMode--><g id="link_state_ViewMode"><path codeLine="85" d="M382.54,622.1094 C419.22,622.1094 455.61,622.1094 484.25,622.1094 " fill="none" id="state-ViewMode" style="stroke:#181818;stroke-width:1.0;"/><text fill="#000000" font-family="sans-serif" font-size="13" lengthAdjust="spacing" textLength="19.5063" x="409.4" y="640.6045">win</text><text fill="#000000" font-family="sans-serif" font-size="13" lengthAdjust="spacing" textLength="7.23" x="394.4545" y="648.6155">1</text><text fill="#000000" font-family="sans-serif" font-size="13" lengthAdjust="spacing" textLength="7.23" x="465.4088" y="636.0354">1</text></g><!--reverse link ui_cascade to ui--><g id="link_ui_cascade_ui"><path codeLine="86" d="M623.63,435.6094 C644.11,435.6094 654.05,435.6094 672.99,435.6094 " fill="none" id="ui_cascade-backto-ui" style="stroke:#181818;stroke-width:1.0;"/><polygon fill="#181818" points="611.63,435.6094,617.63,439.6094,623.63,435.6094,617.63,431.6094,611.63,435.6094" style="stroke:#181818;stroke-width:1.0;"/><text fill="#000000" font-family="sans-serif" font-size="13" lengthAdjust="spacing" textLength="38.2954" x="599.31" y="428.1045">view_*</text><text fill="#000000" font-family="sans-serif" font-size="13" lengthAdjust="spacing" textLength="7.23" x="623.6791" y="454.3529">1</text><text fill="#000000" font-family="sans-serif" font-size="13" lengthAdjust="spacing" textLength="7.23" x="653.9063" y="454.8222">4</text></g><!--SRC=[fLPjR-8u4FwUNp6Y7xhBgXobfRj5rKfNsfEgfTiJVVaQEVOaM4tidEr0kRt-znidBEG5fDLT90Xu7Z-UFFFCm34yhktz3AvJpL_X1cEff9DQmOraYM5PS0mlqXOi1SiNc368jG6tGB2EEVpn3a9o1rmhMsGe85f38SCo5WgU3F9q40HEkXJXwYeIukjNc3xAx4NYgibGiGU1VPKgPtGmy9HP2py2eEkQyTV4w4A9gKwrkReoMZlYsbn7SOp3Q5H1jH5ezi9AA5wCJuV30wp8QVVJEaU_wGZFub4izh0sO2NhwVXYp0-m2cdpbAtdUbMoncSuZiTTrYQiPFqSdSPij9-ra5DcEHDL3aVy2rxmoovh4rQoZl2pE3l0YehAQ9Xt06qWNUDBVjvbRSAg4booBwDny1uif43Wql0Kgy-OvMuD6Rg55hPTuD-TCp8g7DwHXnxbtmZ36YIL2Xtf3DhGxbh0BfZGAwaIY5bgiHRvamdXry-356C7JeEHoSAHowXiFk4WoEcfMOBGcvCzUXkBLNOhFGbRurGXVz5PC07lstijSBlC2sDGkJ12Ede2rtIx4_0FAArs81yC2KRwiIZ5CDTIEJI4rpdxgy0sFYTXFQajJCmurhOUt98nlY2jVWNQpWQLlmd2HrgdMzZFmns-kS9quolICoR1iHtWtY8hPXVjG4R2fKjICAHQa2DQOOFBa5IcieRS89MXSwIJPBhGeci71eFjnqymzaMav_yDAhOJCbOioIWIKs7XWqKakSmhXHIC1gEFvTxtybrfgdwadTCPwBXomvRw6wv1AklTD84ip7snvpkzFnmeyySjWRJm_VRbTWxaD9ae50DuKDvIdWbe6yRqKXm9zpoRqM4xInWjYjA-0tYYwJjxUgGrj6YMXFRpk7myMAA9o3qPC2MQmbUela-9CXHzwemaeRIfGV0jrnRBU5GabPO4AjMWXjxroqqree1cb6trJTUghOcsQoNf2yj8ugPbQ77wC7kOps__s46fTc69Vxxx_jHr4WNk6GsGj_DD4UlPFj_1PlOrSwKVA5wjGtC-xb8iNRhfwK8sbrDlW4hjRh3U5UrOlJ4siVT6MWVJgLgqqsWBf9_i2Gm7WzCzZt-xcz6jOlsSOj0Uv2q12fLgIaKqLndPS8cx0u_Xv3zVj7cgCt9VzP_3O5hb2x6X3gp_pV036NJXLio8_tTaDU9xfptedvn0hz-3lNEsksZRM-bUyzAazgM6t02tca_yM0fg-xPqvvwEugNA_U1V]--></g></svg>