<svg xmlns="http://www.w3.org/2000/svg" xmlns:xlink="http://www.w3.org/1999/xlink" contentStyleType="text/css" height="437px" preserveAspectRatio="none" style="width:999px;height:437px;background:#FFFFFF;" version="1.1" viewBox="0 0 999 437" width="999px" zoomAndPan="magnify"><title>&lt;&lt;stm&gt;&gt; CSimView Primary State Machine</title><defs/><g><!--bg-injected--><rect x=\"0\" y=\"0\" width=\"100%\" height=\"100%\" fill=\"#FFFFFF\"/><text fill="#000000" font-family="sans-serif" font-size="14" font-weight="bold" lengthAdjust="spacing" textLength="266.1094" x="356.6575" y="24.5332">&#171;stm&#187; CSimView Primary State Machine</text><path d="M19.5,45.6094 L973.9243,45.6094 A12.5,12.5 0 0 1 986.4243,58.1094 L986.4243,73.2188 L7,73.2188 L7,58.1094 A12.5,12.5 0 0 1 19.5,45.6094 " fill="#E3F2FD" style="stroke:#E3F2FD;stroke-width:1.0;"/><rect fill="none" height="248.3672" rx="12.5" ry="12.5" style="stroke:#1565C0;stroke-width:0.5;" width="979.4243" x="7" y="45.6094"/><line style="stroke:#1565C0;stroke-width:0.5;" x1="7" x2="986.4243" y1="73.2188" y2="73.2188"/><text fill="#0D47A1" font-family="sans-serif" font-size="14" lengthAdjust="spacing" textLength="46.6826" x="473.3708" y="65.1426">Browse</text><g id="Browse.Unloaded"><rect fill="#E3F2FD" height="50" rx="12.5" ry="12.5" style="stroke:#1565C0;stroke-width:0.5;" width="113.4063" x="19" y="85.2188"/><line style="stroke:#1565C0;stroke-width:0.5;" x1="19" x2="132.4063" y1="112.8281" y2="112.8281"/><text fill="#0D47A1" font-family="sans-serif" font-size="14" lengthAdjust="spacing" textLength="93.4063" x="29" y="104.752">view_unloaded</text></g><g id="Browse.Active"><rect fill="#E3F2FD" height="50" rx="12.5" ry="12.5" style="stroke:#1565C0;stroke-width:0.5;" width="92.3652" x="29.5" y="210.7188"/><line style="stroke:#1565C0;stroke-width:0.5;" x1="29.5" x2="121.8652" y1="238.3281" y2="238.3281"/><text fill="#0D47A1" font-family="sans-serif" font-size="14" lengthAdjust="spacing" textLength="72.3652" x="39.5" y="230.252">view_active</text></g><g id="elem_GMN8"><path d="M640,206.2188 L640,231.7188 L121.67,235.7188 L640,239.7188 L640,265.2734 A0,0 0 0 0 640,265.2734 L977.4243,265.2734 A0,0 0 0 0 977.4243,265.2734 L977.4243,216.2188 L967.4243,206.2188 L640,206.2188 A0,0 0 0 0 640,206.2188 " fill="#FEFFDD" style="stroke:#181818;stroke-width:0.5;"/><path d="M967.4243,206.2188 L967.4243,216.2188 L977.4243,216.2188 L967.4243,206.2188 " fill="#FEFFDD" style="stroke:#181818;stroke-width:0.5;"/><text fill="#000000" font-family="sans-serif" font-size="13" lengthAdjust="spacing" textLength="208.8823" x="646" y="224.7139">Plan loaded; renderables populated.</text><text fill="#000000" font-family="sans-serif" font-size="13" lengthAdjust="spacing" textLength="226.1162" x="646" y="241.0654">ON_COMMAND view-toggles fire here.</text><text fill="#000000" font-family="sans-serif" font-size="13" lengthAdjust="spacing" textLength="316.4243" x="646" y="257.417">ON_WM_TIMER fires every 10ms (handler is a no-op).</text></g><!--link Unloaded to Unloaded--><g id="link_Unloaded_Unloaded"><path d="M132.03,105.5988 C142.57,106.1588 150,107.7088 150,110.2188 C150,112.7287 148.5615,113.9604 138.0215,114.5204 " fill="none" id="Unloaded-to-Unloaded" style="stroke:#181818;stroke-width:1.0;"/><polygon fill="#181818" points="132.03,114.8388,141.2295,118.3556,137.023,114.5735,140.8051,110.3669,132.03,114.8388" style="stroke:#181818;stroke-width:1.0;"/><text fill="#000000" font-family="sans-serif" font-size="13" lengthAdjust="spacing" textLength="16.6182" x="156" y="115.7139">init</text></g><!--link Unloaded to Active--><g id="link_Unloaded_Active"><path d="M75.5,135.3288 C75.5,157.0888 75.5,182.9287 75.5,204.6787 " fill="none" id="Unloaded-to-Active" style="stroke:#181818;stroke-width:1.0;"/><polygon fill="#181818" points="75.5,210.6787,79.5,201.6787,75.5,205.6787,71.5,201.6787,75.5,210.6787" style="stroke:#181818;stroke-width:1.0;"/><text fill="#000000" font-family="sans-serif" font-size="13" lengthAdjust="spacing" textLength="185.377" x="76.5" y="167.7139">initial_update(doc) [doc != none]</text></g><!--link Unloaded to Unloaded--><g id="link_Unloaded_Unloaded"><path d="M132.1,100.5588 C156.57,99.8887 178,103.1087 178,110.2188 C178,117.3288 162.5678,120.713 138.0978,120.043 " fill="none" id="Unloaded-to-Unloaded-1" style="stroke:#181818;stroke-width:1.0;"/><polygon fill="#181818" points="132.1,119.8788,140.9871,124.1236,137.0981,120.0156,141.2061,116.1266,132.1,119.8788" style="stroke:#181818;stroke-width:1.0;"/><text fill="#000000" font-family="sans-serif" font-size="13" lengthAdjust="spacing" textLength="114.1943" x="184" y="115.7139">initial_update(none)</text></g><!--link Active to Active--><g id="link_Active_Active"><path d="M121.52,231.3288 C131.91,231.7288 139.5,233.1888 139.5,235.7188 C139.5,238.2488 137.9056,239.4779 127.5156,239.8779 " fill="none" id="Active-to-Active" style="stroke:#181818;stroke-width:1.0;"/><polygon fill="#181818" points="121.52,240.1088,130.6672,243.7596,126.5163,239.9164,130.3595,235.7655,121.52,240.1088" style="stroke:#181818;stroke-width:1.0;"/><text fill="#000000" font-family="sans-serif" font-size="13" lengthAdjust="spacing" textLength="65.7554" x="158.5032" y="216.7139">view_beam</text><text fill="#000000" font-family="sans-serif" font-size="13" lengthAdjust="spacing" textLength="80.9326" x="150.9146" y="233.0654">view_lightfield</text><text fill="#000000" font-family="sans-serif" font-size="13" lengthAdjust="spacing" textLength="90.3018" x="146.23" y="249.417">view_wireframe</text><text fill="#000000" font-family="sans-serif" font-size="13" lengthAdjust="spacing" textLength="91.7617" x="145.5" y="265.7686">view_colorwash</text></g><!--link Active to Active--><g id="link_Active_Active"><path d="M121.69,228.2888 C172.3,224.7388 242.5,227.2088 242.5,235.7188 C242.5,244.2288 178.2853,247.1186 127.6753,243.5686 " fill="none" id="Active-to-Active-1" style="stroke:#181818;stroke-width:1.0;"/><polygon fill="#181818" points="121.69,243.1488,130.3881,247.7687,126.6777,243.4986,130.9478,239.7883,121.69,243.1488" style="stroke:#181818;stroke-width:1.0;"/><text fill="#000000" font-family="sans-serif" font-size="13" lengthAdjust="spacing" textLength="122.1099" x="301.4553" y="233.2139">set_current_beam(B)</text><text fill="#000000" font-family="sans-serif" font-size="13" lengthAdjust="spacing" textLength="228.0205" x="248.5" y="249.5654">beam_changed [current_beam != none]</text></g><!--link Active to Active--><g id="link_Active_Active"><path d="M121.52,227.8288 C229.86,218.2888 482.5,220.9188 482.5,235.7188 C482.5,250.5188 235.8369,253.6751 127.4969,244.1351 " fill="none" id="Active-to-Active-2" style="stroke:#181818;stroke-width:1.0;"/><polygon fill="#181818" points="121.52,243.6088,130.1344,248.3828,126.5007,244.0473,130.8362,240.4136,121.52,243.6088" style="stroke:#181818;stroke-width:1.0;"/><text fill="#000000" font-family="sans-serif" font-size="13" lengthAdjust="spacing" textLength="88.8545" x="489.9568" y="208.7139">on_size(Cx,Cy)</text><text fill="#000000" font-family="sans-serif" font-size="13" lengthAdjust="spacing" textLength="75.1689" x="496.7996" y="225.0654">erase_bkgnd</text><text fill="#000000" font-family="sans-serif" font-size="13" lengthAdjust="spacing" textLength="44.7764" x="511.9958" y="241.417">timer(_)</text><text fill="#000000" font-family="sans-serif" font-size="13" lengthAdjust="spacing" textLength="91.7681" x="488.5" y="257.7686">export_fieldcom</text><text fill="#000000" font-family="sans-serif" font-size="13" lengthAdjust="spacing" textLength="86.0107" x="491.3787" y="274.1201">export_nuages</text></g><g id="Closed"><rect fill="#E8F5E9" height="50" rx="12.5" ry="12.5" style="stroke:#2E7D32;stroke-width:0.5;" width="63.5791" x="464.5" y="376.1094"/><line style="stroke:#2E7D32;stroke-width:0.5;" x1="464.5" x2="528.0791" y1="403.7188" y2="403.7188"/><text fill="#1B5E20" font-family="sans-serif" font-size="14" lengthAdjust="spacing" textLength="43.5791" x="474.5" y="395.6426">Closed</text></g><g id="elem_GMN15"><path d="M564,371.6094 L564,397.1094 L528.87,401.1094 L564,405.1094 L564,430.6641 A0,0 0 0 0 564,430.6641 L819.1016,430.6641 A0,0 0 0 0 819.1016,430.6641 L819.1016,381.6094 L809.1016,371.6094 L564,371.6094 A0,0 0 0 0 564,371.6094 " fill="#FEFFDD" style="stroke:#181818;stroke-width:0.5;"/><path d="M809.1016,371.6094 L809.1016,381.6094 L819.1016,381.6094 L809.1016,371.6094 " fill="#FEFFDD" style="stroke:#181818;stroke-width:0.5;"/><text fill="#000000" font-family="sans-serif" font-size="13" lengthAdjust="spacing" textLength="151.0234" x="570" y="390.1045">Inherited via CView; not in</text><text fill="#000000" font-family="sans-serif" font-size="13" lengthAdjust="spacing" textLength="234.1016" x="570" y="406.4561">BEGIN_MESSAGE_MAP. Modeled here</text><text fill="#000000" font-family="sans-serif" font-size="13" lengthAdjust="spacing" textLength="130.0635" x="570" y="422.8076">for completeness only.</text></g><!--link Browse to Closed--><g id="link_Browse_Closed"><path d="M496.5,293.7594 C496.5,325.2294 496.5,349.8594 496.5,370.0994 " fill="none" id="Browse-to-Closed" style="stroke:#181818;stroke-width:1.0;"/><polygon fill="#181818" points="496.5,376.0994,500.5,367.0994,496.5,371.0994,492.5,367.0994,496.5,376.0994" style="stroke:#181818;stroke-width:1.0;"/><text fill="#000000" font-family="sans-serif" font-size="13" lengthAdjust="spacing" textLength="101.8291" x="497.5" y="338.1045">(WM_DESTROY)</text></g><!--SRC=[jLHRJzim57xFhpY31rffBQMCiN6JIkbG9GA8CgO9fiXDJb8BnuvijwMRzjztxAIG0jDUc1yYNxxpdI_djW6ZXGdFO6IPHGXPFE4IuOIpJBCys81BpNEc5t1sFO9KQUYFU7x3SGwDcz4mZ2vEppODpsTqquwBejaE0ikjG3WuC3O_Edh2BubM70M1kUUoOEGBZ7_u5G2jOnRVPrfDPT9NGkc3Wx5MSuF41x2EssatJKgSqWdgbnYtrhTsFkx47O_xegHz7KMuJl9XbsszxjUYphbaWl3h-2dTmSyl_TOmdg-BkybszxdVPoYdRxo3tKxmUoK84vQeEPSPf4mO3Amgm2eOAsjL3WdN65kkP42PENopHMJ7FYfWEMfes0c2acBXZ_iW5PYOoSrS9KninagcNEV-pVYIi1DkWAwjLgBvjiA2iYZMIdbhmCnIQIsHPSbKI5U9qLGAnH9ClC7Nwb0pUM70AAgpah_djtMmHp-oj5f7JuSzu9BRPm1Ae2HGHLH2E1FHj4Z8OoDHSHDkwGll3Ycs4d_yqq7DsXaqIqbIaNxDiua5bLRkWcLLNmeceIJP1usIofMD1HeeL34Ln9Iq7x4Nvr7_8WnxvoVWej6oAiiSbFACC46DAz1lONGz30TN_ja0pf2wUgkJ6sXCc4m4LH3L0oDvBUK6WZCZ_rvkARoAJAiU99-6CRByJlgjSF-LSXH9TJ4dRocr25RdsBNLd9d9NoaDsYYUQlfvwvaRnyqxwJPHJ48pYkvj_Nar7QyHAXaP_XCR_OVt_GLnKKWDHkFxJ998otFKZSXTFnHAsyYBZrN-U26dB4FZ-lsDctUO5uB7tC9ona23adGo65rVNNod0g8KSaeuf9fcIDzDOzVKbbxAtirD1Zah_bFlzeKoLIkMMwWFms2rYak4py3mKVUCirNPvGmUd0xFet0m6lLE1r7Oksn3g18KPE1grcFSUA8K508jIZJ6ZxLsy5IErJHPzcmbSAyUm6Rm1m00]--></g></svg>