<svg xmlns="http://www.w3.org/2000/svg" xmlns:xlink="http://www.w3.org/1999/xlink" contentStyleType="text/css" height="537px" preserveAspectRatio="none" style="width:652px;height:537px;background:#FFFFFF;" version="1.1" viewBox="0 0 652 537" width="652px" zoomAndPan="magnify"><title>&lt;&lt;stm&gt;&gt; CTexture Primary State Machine</title><defs/><g><!--bg-injected--><rect x="0" y="0" width="100%" height="100%" fill="#FFFFFF"/><text fill="#000000" font-family="sans-serif" font-size="14" font-weight="bold" lengthAdjust="spacing" textLength="259.1025" x="189.9055" y="24.5332">&#171;stm&#187; CTexture Primary State Machine</text><g id="Pre"><rect fill="#E3F2FD" height="50" rx="12.5" ry="12.5" style="stroke:#1565C0;stroke-width:0.5;" width="104.8203" x="87" y="45.6094"/><line style="stroke:#1565C0;stroke-width:0.5;" x1="87" x2="191.8203" y1="73.2188" y2="73.2188"/><text fill="#0D47A1" font-family="sans-serif" font-size="14" lengthAdjust="spacing" textLength="84.8203" x="97" y="65.1426">pre_construct</text></g><g id="Ready"><rect fill="#E3F2FD" height="50" rx="12.5" ry="12.5" style="stroke:#1565C0;stroke-width:0.5;" width="55.0205" x="112" y="187.1094"/><line style="stroke:#1565C0;stroke-width:0.5;" x1="112" x2="167.0205" y1="214.7188" y2="214.7188"/><text fill="#0D47A1" font-family="sans-serif" font-size="14" lengthAdjust="spacing" textLength="35.0205" x="122" y="206.6426">ready</text></g><g id="DcHeld"><rect fill="#E3F2FD" height="50" rx="12.5" ry="12.5" style="stroke:#1565C0;stroke-width:0.5;" width="69.041" x="436" y="187.1094"/><line style="stroke:#1565C0;stroke-width:0.5;" x1="436" x2="505.041" y1="214.7188" y2="214.7188"/><text fill="#0D47A1" font-family="sans-serif" font-size="14" lengthAdjust="spacing" textLength="49.041" x="446" y="206.6426">dc_held</text></g><g id="Bound"><rect fill="#E3F2FD" height="50" rx="12.5" ry="12.5" style="stroke:#1565C0;stroke-width:0.5;" width="58.9307" x="7" y="341.1094"/><line style="stroke:#1565C0;stroke-width:0.5;" x1="7" x2="65.9307" y1="368.7188" y2="368.7188"/><text fill="#0D47A1" font-family="sans-serif" font-size="14" lengthAdjust="spacing" textLength="38.9307" x="17" y="360.6426">bound</text></g><g id="Dead"><rect fill="#E8F5E9" height="50" rx="12.5" ry="12.5" style="stroke:#2E7D32;stroke-width:0.5;" width="81.4824" x="270" y="481.6094"/><line style="stroke:#2E7D32;stroke-width:0.5;" x1="270" x2="351.4824" y1="509.2188" y2="509.2188"/><text fill="#000000" font-family="sans-serif" font-size="14" lengthAdjust="spacing" textLength="61.4824" x="280" y="501.1426">destroyed</text></g><g id="elem_GMN19"><path d="M270,328.6094 L270,362.1094 L66.05,366.1094 L270,370.1094 L270,404.0156 A0,0 0 0 0 270,404.0156 L514.958,404.0156 A0,0 0 0 0 514.958,404.0156 L514.958,338.6094 L504.958,328.6094 L270,328.6094 A0,0 0 0 0 270,328.6094 " fill="#FEFFDD" style="stroke:#181818;stroke-width:0.5;"/><path d="M504.958,328.6094 L504.958,338.6094 L514.958,338.6094 L504.958,328.6094 " fill="#FEFFDD" style="stroke:#181818;stroke-width:0.5;"/><text fill="#000000" font-family="sans-serif" font-size="13" lengthAdjust="spacing" textLength="199.4307" x="276" y="347.1045">OBSERVABLE: only SetProjection</text><text fill="#000000" font-family="sans-serif" font-size="13" lengthAdjust="spacing" textLength="190.7852" x="276" y="363.4561">fires GetChangeEvent. Changing</text><text fill="#000000" font-family="sans-serif" font-size="13" lengthAdjust="spacing" textLength="127.188" x="276" y="379.8076">the bitmap content via</text><text fill="#000000" font-family="sans-serif" font-size="13" lengthAdjust="spacing" textLength="223.958" x="276" y="396.1592">GetDC-&gt;draw-&gt;ReleaseDC is SILENT.</text></g><!--link Pre to Ready--><g id="link_Pre_Ready"><path d="M139.5,95.9094 C139.5,121.5094 139.5,155.5894 139.5,181.0894 " fill="none" id="Pre-to-Ready" style="stroke:#181818;stroke-width:1.0;"/><polygon fill="#181818" points="139.5,187.0894,143.5,178.0894,139.5,182.0894,135.5,178.0894,139.5,187.0894" style="stroke:#181818;stroke-width:1.0;"/><text fill="#000000" font-family="sans-serif" font-size="13" lengthAdjust="spacing" textLength="52.7427" x="140.5" y="140.1045">construct</text></g><!--link Ready to Ready--><g id="link_Ready_Ready"><path d="M167.13,198.9894 C184.9,195.5594 202,199.9394 202,212.1094 C202,224.2794 190.7913,229.7965 173.0213,226.3665 " fill="none" id="Ready-to-Ready" style="stroke:#181818;stroke-width:1.0;"/><polygon fill="#181818" points="167.13,225.2294,175.2088,230.8626,172.0394,226.177,176.725,223.0076,167.13,225.2294" style="stroke:#181818;stroke-width:1.0;"/><text fill="#000000" font-family="sans-serif" font-size="13" lengthAdjust="spacing" textLength="131.498" x="211.9673" y="193.1045">set_width_height(W,H)</text><text fill="#000000" font-family="sans-serif" font-size="13" lengthAdjust="spacing" textLength="70.0781" x="242.6772" y="209.4561">set_wrap(B)</text><text fill="#000000" font-family="sans-serif" font-size="13" lengthAdjust="spacing" textLength="88.8735" x="233.2795" y="225.8076">load_bitmap(R)</text><text fill="#000000" font-family="sans-serif" font-size="13" lengthAdjust="spacing" textLength="139.4326" x="208" y="242.1592">set_projection(M) [fires!]</text></g><!--link Ready to DcHeld--><g id="link_Ready_DcHeld"><path d="M167.02,217.4194 C195.44,222.6194 241.12,230.1694 281,233.1094 C335.3,237.1194 392.1746,228.4662 430.1046,220.9462 " fill="none" id="Ready-to-DcHeld" style="stroke:#181818;stroke-width:1.0;"/><polygon fill="#181818" points="435.99,219.7794,426.3839,217.606,431.0855,220.7517,427.9397,225.4533,435.99,219.7794" style="stroke:#181818;stroke-width:1.0;"/><text fill="#000000" font-family="sans-serif" font-size="13" lengthAdjust="spacing" textLength="39.0317" x="282" y="229.6045">get_dc</text></g><!--reverse link Ready to DcHeld--><g id="link_Ready_DcHeld"><path d="M173.15,212.1094 C233.28,212.1094 369.82,212.1094 435.84,212.1094 " fill="none" id="Ready-backto-DcHeld" style="stroke:#181818;stroke-width:1.0;"/><polygon fill="#181818" points="167.15,212.1094,176.15,216.1094,172.15,212.1094,176.15,208.1094,167.15,212.1094" style="stroke:#181818;stroke-width:1.0;"/><text fill="#000000" font-family="sans-serif" font-size="13" lengthAdjust="spacing" textLength="63.5972" x="270" y="205.6045">release_dc</text></g><!--link DcHeld to DcHeld--><g id="link_DcHeld_DcHeld"><path d="M505.19,198.3994 C523.45,196.1894 540,200.7494 540,212.1094 C540,223.4694 529.4065,228.7503 511.1465,226.5403 " fill="none" id="DcHeld-to-DcHeld" style="stroke:#181818;stroke-width:1.0;"/><polygon fill="#181818" points="505.19,225.8194,513.6442,230.8718,510.1538,226.4201,514.6054,222.9297,505.19,225.8194" style="stroke:#181818;stroke-width:1.0;"/><text fill="#000000" font-family="sans-serif" font-size="13" lengthAdjust="spacing" textLength="93.9136" x="546" y="217.6045">draw_border(W)</text></g><!--link Ready to Bound--><g id="link_Ready_Bound"><path d="M111.6,222.1094 C86.11,231.9994 49.98,250.5794 33.5,280.6094 C23.4,299.0094 24.254,317.3544 28.094,335.1444 " fill="none" id="Ready-to-Bound" style="stroke:#181818;stroke-width:1.0;"/><polygon fill="#181818" points="29.36,341.0094,31.371,331.368,28.305,336.1219,23.5511,333.056,29.36,341.0094" style="stroke:#181818;stroke-width:1.0;"/><text fill="#000000" font-family="sans-serif" font-size="13" lengthAdjust="spacing" textLength="61.4136" x="34.5" y="295.1045">bind(View)</text></g><!--reverse link Ready to Bound--><g id="link_Ready_Bound"><path d="M128.7836,243.0785 C121.9436,260.8385 113.53,279.4494 100.5,298.6094 C90.05,313.9794 75.93,329.0794 63.61,340.9894 " fill="none" id="Ready-backto-Bound" style="stroke:#181818;stroke-width:1.0;"/><polygon fill="#181818" points="130.94,237.4794,123.9727,244.4404,129.143,242.1453,131.4381,247.3156,130.94,237.4794" style="stroke:#181818;stroke-width:1.0;"/><text fill="#000000" font-family="sans-serif" font-size="13" lengthAdjust="spacing" textLength="39.0381" x="112.5" y="295.1045">unbind</text></g><!--link Bound to Bound--><g id="link_Bound_Bound"><path d="M66.02,352.8094 C83.99,349.7294 101,354.1594 101,366.1094 C101,378.0594 89.9038,383.503 71.9338,380.423 " fill="none" id="Bound-to-Bound" style="stroke:#181818;stroke-width:1.0;"/><polygon fill="#181818" points="66.02,379.4094,74.2149,384.8723,70.9481,380.254,75.5664,376.9873,66.02,379.4094" style="stroke:#181818;stroke-width:1.0;"/><text fill="#000000" font-family="sans-serif" font-size="13" lengthAdjust="spacing" textLength="139.4326" x="107" y="371.6045">set_projection(M) [fires!]</text></g><!--link Ready to Dead--><g id="link_Ready_Dead"><path d="M167.2,216.9494 C249.15,228.9394 487.49,268.4694 532.5,328.6094 C552.47,355.2994 550.49,375.5494 532.5,403.6094 C492.44,466.0994 409.3157,489.7597 356.9857,499.1497 " fill="none" id="Ready-to-Dead" style="stroke:#181818;stroke-width:1.0;"/><polygon fill="#181818" points="351.08,500.2094,360.645,502.5569,356.0014,499.3263,359.232,494.6827,351.08,500.2094" style="stroke:#181818;stroke-width:1.0;"/><text fill="#000000" font-family="sans-serif" font-size="13" lengthAdjust="spacing" textLength="46.2427" x="547.5" y="371.6045">destruct</text></g><!--link Bound to Dead--><g id="link_Bound_Dead"><path d="M66.08,382.0594 C115.35,406.9594 208.9152,454.2627 264.6252,482.4227 " fill="none" id="Bound-to-Dead" style="stroke:#181818;stroke-width:1.0;"/><polygon fill="#181818" points="269.98,485.1294,263.7523,477.4995,265.5177,482.8738,260.1433,484.6392,269.98,485.1294" style="stroke:#181818;stroke-width:1.0;"/><text fill="#000000" font-family="sans-serif" font-size="13" lengthAdjust="spacing" textLength="46.2427" x="199.5" y="448.1045">destruct</text></g><!--SRC=[VLFlRzCm4Ftkl-8ONr9fcRQERb1LaUWF6D86Kpjj7m1LJdnfp18xigyh5U9_ntRIAgA5VFBTFTzxzyuXIIN2Q6IfIXAOFE1FMXk4UoChRhQm84u8Tpmhf49cdwMgkU4Ls93_nS1zOvuzhunUAp7HfJQZKMhqng9hznelytuk6fGs0iq1uc9mDSZE0-A3LdHGFnTlhld5SHv2Kqd5oy3qDX_WkqEcBgQFr-AoptvtvoYuq1kfLf3pqY8ZNGDfI3MHha18Wnb9hHXh1Zwf3IuphIoPTKOdmArpojkt4xp36UHY6-fpVpg24Dcom584p3IxSSSZeDHF6o1ZVphM1fqMlSMsaIE3xj2CUNsncr75IQjb2Fi9M9E9EpMBjDn8GOMJ9rS5HK-dDxrlAgGDhwEn2qhDnJALLBbutXPhetyqPaLtFVYQE-lig-yx0kDREPPsqY6it1MHiJQEkoLX-6QPXYL6JxqzfCISEZeDbiWj-YOjHpjauzGGKgb4z2XnqsDDAkuK_wEu1Q_h3jbQ-Mv_4GMpdLnilMml_gFAb7Rx2Zw0pXiXuRb-6IzcyyVtuzlP4BGgtJ-7TB-N5Y116dn4cXHShN3sWehE80JkwGO85GZDHlnsoG7WHV9GSlUcapZnjiR9lB5jEW5fOV7fTlRvuOoXq-tb_G40]--></g></svg>