<svg xmlns="http://www.w3.org/2000/svg" xmlns:xlink="http://www.w3.org/1999/xlink" contentStyleType="text/css" height="465px" preserveAspectRatio="none" style="width:1151px;height:465px;background:#FFFFFF;" version="1.1" viewBox="0 0 1151 465" width="1151px" zoomAndPan="magnify"><title>&lt;&lt;stm&gt;&gt; CBeamParamCollimCtrl Primary State Machine</title><defs/><g><!--bg-injected--><rect x="0" y="0" width="100%" height="100%" fill="#FFFFFF"/><text fill="#000000" font-family="sans-serif" font-size="14" font-weight="bold" lengthAdjust="spacing" textLength="356.3574" x="390.6225" y="24.5332">&#171;stm&#187; CBeamParamCollimCtrl Primary State Machine</text><g id="PreInit"><rect fill="#E3F2FD" height="50" rx="12.5" ry="12.5" style="stroke:#1565C0;stroke-width:0.5;" width="65.917" x="90.79" y="45.6094"/><line style="stroke:#1565C0;stroke-width:0.5;" x1="90.79" x2="156.707" y1="73.2188" y2="73.2188"/><text fill="#0D47A1" font-family="sans-serif" font-size="14" lengthAdjust="spacing" textLength="45.917" x="100.79" y="65.1426">pre_init</text></g><g id="Ready"><rect fill="#E3F2FD" height="50" rx="12.5" ry="12.5" style="stroke:#1565C0;stroke-width:0.5;" width="55.0205" x="96.29" y="173.6094"/><line style="stroke:#1565C0;stroke-width:0.5;" x1="96.29" x2="151.3105" y1="201.2188" y2="201.2188"/><text fill="#0D47A1" font-family="sans-serif" font-size="14" lengthAdjust="spacing" textLength="35.0205" x="106.29" y="193.1426">ready</text></g><g id="Bound"><rect fill="#E3F2FD" height="50" rx="12.5" ry="12.5" style="stroke:#1565C0;stroke-width:0.5;" width="58.9307" x="94.29" y="355.1094"/><line style="stroke:#1565C0;stroke-width:0.5;" x1="94.29" x2="153.2207" y1="382.7188" y2="382.7188"/><text fill="#0D47A1" font-family="sans-serif" font-size="14" lengthAdjust="spacing" textLength="38.9307" x="104.29" y="374.6426">bound</text></g><g id="elem_GMN13"><path d="M947.29,301.6094 L947.29,376.1094 L153.51,380.1094 L947.29,384.1094 L947.29,458.7734 A0,0 0 0 0 947.29,458.7734 L1144.6025,458.7734 A0,0 0 0 0 1144.6025,458.7734 L1144.6025,311.6094 L1134.6025,301.6094 L947.29,301.6094 A0,0 0 0 0 947.29,301.6094 " fill="#FEFFDD" style="stroke:#181818;stroke-width:0.5;"/><path d="M1134.6025,301.6094 L1134.6025,311.6094 L1144.6025,311.6094 L1134.6025,301.6094 " fill="#FEFFDD" style="stroke:#181818;stroke-width:0.5;"/><text fill="#000000" font-family="sans-serif" font-size="13" lengthAdjust="spacing" textLength="111.2808" x="953.29" y="320.1045">Re-entrancy guard:</text><text fill="#000000" font-family="sans-serif" font-size="13" lengthAdjust="spacing" textLength="160.4116" x="953.29" y="336.4561">DoDataExchange(true) sets</text><text fill="#000000" font-family="sans-serif" font-size="13" lengthAdjust="spacing" textLength="167.3306" x="953.29" y="352.8076">updating_data := true around</text><text fill="#000000" font-family="sans-serif" font-size="13" lengthAdjust="spacing" textLength="162.5508" x="953.29" y="369.1592">SetCollim* calls. If a CBeam</text><text fill="#000000" font-family="sans-serif" font-size="13" lengthAdjust="spacing" textLength="147.3989" x="953.29" y="385.5107">observer reacts by calling</text><text fill="#000000" font-family="sans-serif" font-size="13" lengthAdjust="spacing" textLength="168.4033" x="953.29" y="401.8623">SetBeam, the !updating_data</text><text fill="#000000" font-family="sans-serif" font-size="13" lengthAdjust="spacing" textLength="138.728" x="953.29" y="418.2139">check at SetBeam skips</text><text fill="#000000" font-family="sans-serif" font-size="13" lengthAdjust="spacing" textLength="176.3125" x="953.29" y="434.5654">UpdateData(FALSE), breaking</text><text fill="#000000" font-family="sans-serif" font-size="13" lengthAdjust="spacing" textLength="49.8735" x="953.29" y="450.917">the loop.</text></g><!--link PreInit to Ready--><g id="link_PreInit_Ready"><path d="M123.79,95.8994 C123.79,118.2194 123.79,145.0994 123.79,167.3894 " fill="none" id="PreInit-to-Ready" style="stroke:#181818;stroke-width:1.0;"/><polygon fill="#181818" points="123.79,173.3894,127.79,164.3894,123.79,168.3894,119.79,164.3894,123.79,173.3894" style="stroke:#181818;stroke-width:1.0;"/><text fill="#000000" font-family="sans-serif" font-size="13" lengthAdjust="spacing" textLength="80.2344" x="124.79" y="140.1045">on_init_dialog</text></g><!--link Ready to Bound--><g id="link_Ready_Bound"><path d="M96.07,207.1494 C73.78,214.8394 43.94,229.1794 29.79,253.6094 C6,294.7194 53.3043,334.8066 89.0243,358.2566 " fill="none" id="Ready-to-Bound" style="stroke:#181818;stroke-width:1.0;"/><polygon fill="#181818" points="94.04,361.5494,88.7116,353.2664,89.8602,358.8054,84.3212,359.954,94.04,361.5494" style="stroke:#181818;stroke-width:1.0;"/><text fill="#000000" font-family="sans-serif" font-size="13" lengthAdjust="spacing" textLength="141.2734" x="30.79" y="268.1045">set_beam(B) [B != none]</text></g><!--reverse link Ready to Bound--><g id="link_Ready_Bound"><path d="M155.7945,224.0001 C165.7845,233.0601 171.48,240.5994 176.79,253.6094 C191.2,288.8594 166.52,329.4094 146.22,354.6494 " fill="none" id="Ready-backto-Bound" style="stroke:#181818;stroke-width:1.0;"/><polygon fill="#181818" points="151.35,219.9694,155.3296,228.9784,155.0537,223.3283,160.7038,223.0525,151.35,219.9694" style="stroke:#181818;stroke-width:1.0;"/><text fill="#000000" font-family="sans-serif" font-size="13" lengthAdjust="spacing" textLength="94.6689" x="181.79" y="268.1045">set_beam(none)</text></g><!--link Bound to Bound--><g id="link_Bound_Bound"><path d="M153.32,373.3394 C171.29,371.7694 188.29,374.0294 188.29,380.1094 C188.29,386.1894 177.2672,388.9716 159.2972,387.4016 " fill="none" id="Bound-to-Bound" style="stroke:#181818;stroke-width:1.0;"/><polygon fill="#181818" points="153.32,386.8794,161.9377,391.6475,158.301,387.3146,162.634,383.6779,153.32,386.8794" style="stroke:#181818;stroke-width:1.0;"/><text fill="#000000" font-family="sans-serif" font-size="13" lengthAdjust="spacing" textLength="340.666" x="194.29" y="385.6045">set_beam(B') [normal: refreshes; if updating_data: skipped]</text></g><!--link Bound to Bound--><g id="link_Bound_Bound"><path d="M153.49,373.4694 C251.37,361.1094 540.29,363.3294 540.29,380.1094 C540.29,396.8894 257.3227,399.8611 159.4427,387.5011 " fill="none" id="Bound-to-Bound-1" style="stroke:#181818;stroke-width:1.0;"/><polygon fill="#181818" points="153.49,386.7494,161.918,391.8454,158.4506,387.3758,162.9202,383.9084,153.49,386.7494" style="stroke:#181818;stroke-width:1.0;"/><text fill="#000000" font-family="sans-serif" font-size="13" lengthAdjust="spacing" textLength="109.1479" x="583.4968" y="361.1045">on_apply_changes</text><text fill="#000000" font-family="sans-serif" font-size="13" lengthAdjust="spacing" textLength="156.1143" x="560.0136" y="377.4561">on_apply_spin_changes(_)</text><text fill="#000000" font-family="sans-serif" font-size="13" lengthAdjust="spacing" textLength="141.6606" x="567.2404" y="393.8076">do_data_exchange(true)</text><text fill="#000000" font-family="sans-serif" font-size="13" lengthAdjust="spacing" textLength="172.7261" x="557.1254" y="410.1592">-- transient updating_data flag</text></g><!--link Bound to Bound--><g id="link_Bound_Bound"><path d="M153.7,371.9694 C280.86,351.4294 735.29,354.1394 735.29,380.1094 C735.29,406.0794 286.7832,409.7461 159.6232,389.2061 " fill="none" id="Bound-to-Bound-2" style="stroke:#181818;stroke-width:1.0;"/><polygon fill="#181818" points="153.7,388.2494,161.947,393.6333,158.636,389.0467,163.2227,385.7357,153.7,388.2494" style="stroke:#181818;stroke-width:1.0;"/><text fill="#000000" font-family="sans-serif" font-size="13" lengthAdjust="spacing" textLength="146.7197" x="741.29" y="385.6045">do_data_exchange(false)</text></g><!--link Ready to Ready--><g id="link_Ready_Ready"><path d="M151.43,187.5594 C169.19,184.6794 186.29,188.3594 186.29,198.6094 C186.29,208.8594 175.1126,213.4998 157.3526,210.6198 " fill="none" id="Ready-to-Ready" style="stroke:#181818;stroke-width:1.0;"/><polygon fill="#181818" points="151.43,209.6594,159.6737,215.0484,156.3655,210.4597,160.9542,207.1516,151.43,209.6594" style="stroke:#181818;stroke-width:1.0;"/><text fill="#000000" font-family="sans-serif" font-size="13" lengthAdjust="spacing" textLength="146.7197" x="192.29" y="204.1045">do_data_exchange(false)</text></g><!--SRC=[TPDHRzCm4CVVyobksmCjMgOD64YbgqIxJPe4qhIA9pP5b_YIM7LiotRPAiHtv-oGqaBnIwoxd__tzrqSP504qwaFtMm6YpbXTuyEkuLHIdQBu1JSEzcXsy0oO23uWbKhDMMPNqbj8me-9Nvam6kErQfnPgq5AnWtdPREF7jYxHDwMx-fHKyP9yZzJSHrSd7v_h8wJzIjqU4GmzIvUFS1BxAVkovQ5EPPwWPgL9woO2m40wK9mNGWfACgIAFPUB9xR1qLKijm3EZvZdJ7U_XJQS0SeTWavY7k3X1bl6qYvd6tIsI3RixMT3xxhJ41erFjGaXKfidwy03rCXFm58gI1pAQZ-7R78wkG1jDJrcVpzTsHt3BHcGy80V5Nh6QDgv3DG57jIFValy8ieQr5HYuWmL_a8-ifBKadWweiN-qLcsAgaNTa7_KsuYtKW_XKJ5-rC8alO9U-kWek3LndEUOvn0SQYz9X_tgK2lSzcNddl-8fM4Vkl3_o4mRdfgJJHl0r3sUVhS7oja6swasqApHYKaANvjhbhdPCn-xwLDst_Ja2c8Uq6rLbnJwj_GQAbJAdy5T3TY_j0IOqfFxJevdWLNmK6uIo9h3-OYUGcW9ZlRAfNpLKhK230EOfjPx-nfXYkv7jvy-Bs_6fr1oaTKW7HMLCVOi8-vOR4ls2m00]--></g></svg>