<svg xmlns="http://www.w3.org/2000/svg" xmlns:xlink="http://www.w3.org/1999/xlink" contentStyleType="text/css" height="288px" preserveAspectRatio="none" style="width:589px;height:288px;background:#FFFFFF;" version="1.1" viewBox="0 0 589 288" width="589px" zoomAndPan="magnify"><title>&lt;&lt;stm&gt;&gt; CLightfieldTexture Primary State Machine</title><defs/><g><!--bg-injected--><rect x="0" y="0" width="100%" height="100%" fill="#FFFFFF"/><text fill="#000000" font-family="sans-serif" font-size="14" font-weight="bold" lengthAdjust="spacing" textLength="322.0889" x="126.6659" y="24.5332">&#171;stm&#187; CLightfieldTexture Primary State Machine</text><g id="Unbound"><rect fill="#E3F2FD" height="50" rx="12.5" ry="12.5" style="stroke:#1565C0;stroke-width:0.5;" width="74.5029" x="83.26" y="45.6094"/><line style="stroke:#1565C0;stroke-width:0.5;" x1="83.26" x2="157.7629" y1="73.2188" y2="73.2188"/><text fill="#0D47A1" font-family="sans-serif" font-size="14" lengthAdjust="spacing" textLength="54.5029" x="93.26" y="65.1426">unbound</text></g><g id="Bound"><rect fill="#E3F2FD" height="50" rx="12.5" ry="12.5" style="stroke:#1565C0;stroke-width:0.5;" width="58.9307" x="91.26" y="202.6094"/><line style="stroke:#1565C0;stroke-width:0.5;" x1="91.26" x2="150.1907" y1="230.2188" y2="230.2188"/><text fill="#0D47A1" font-family="sans-serif" font-size="14" lengthAdjust="spacing" textLength="38.9307" x="101.26" y="222.1426">bound</text></g><g id="elem_GMN8"><path d="M361.26,173.6094 L361.26,223.6094 L150.58,227.6094 L361.26,231.6094 L361.26,281.7188 A0,0 0 0 0 361.26,281.7188 L582.4206,281.7188 A0,0 0 0 0 582.4206,281.7188 L582.4206,183.6094 L572.4206,173.6094 L361.26,173.6094 A0,0 0 0 0 361.26,173.6094 " fill="#FEFFDD" style="stroke:#181818;stroke-width:0.5;"/><path d="M572.4206,173.6094 L572.4206,183.6094 L582.4206,183.6094 L572.4206,173.6094 " fill="#FEFFDD" style="stroke:#181818;stroke-width:0.5;"/><text fill="#000000" font-family="sans-serif" font-size="13" lengthAdjust="spacing" textLength="178.4771" x="367.26" y="192.1045">set_beam triggers initial render</text><text fill="#000000" font-family="sans-serif" font-size="13" lengthAdjust="spacing" textLength="194.3779" x="367.26" y="208.4561">via explicit OnBeamChanged call.</text><text fill="#000000" font-family="sans-serif" font-size="13" lengthAdjust="spacing" textLength="176.3252" x="367.26" y="224.8076">Subsequent CBeam mutations</text><text fill="#000000" font-family="sans-serif" font-size="13" lengthAdjust="spacing" textLength="171.2153" x="367.26" y="241.1592">(gantry/couch/collim/jaws) fire</text><text fill="#000000" font-family="sans-serif" font-size="13" lengthAdjust="spacing" textLength="200.1606" x="367.26" y="257.5107">GetChangeEvent which re-renders</text><text fill="#000000" font-family="sans-serif" font-size="13" lengthAdjust="spacing" textLength="146.6816" x="367.26" y="273.8623">via the observer callback.</text></g><!--link Unbound to Bound--><g id="link_Unbound_Bound"><path d="M82.81,82.9694 C62.33,91.2594 38.83,104.7594 26.76,125.6094 C6,161.4794 50.8998,192.2345 85.6498,210.1945 " fill="none" id="Unbound-to-Bound" style="stroke:#181818;stroke-width:1.0;"/><polygon fill="#181818" points="90.98,212.9494,84.8213,205.2637,86.5382,210.6537,81.1482,212.3706,90.98,212.9494" style="stroke:#181818;stroke-width:1.0;"/><text fill="#000000" font-family="sans-serif" font-size="13" lengthAdjust="spacing" textLength="141.2734" x="27.76" y="140.1045">set_beam(B) [B != none]</text></g><!--reverse link Unbound to Bound--><g id="link_Unbound_Bound"><path d="M158.4899,99.9929 C171.9899,112.9429 178.98,125.7294 173.76,143.6094 C167.43,165.2694 153.54,186.6594 141.57,202.2994 " fill="none" id="Unbound-backto-Bound" style="stroke:#181818;stroke-width:1.0;"/><polygon fill="#181818" points="154.16,95.8394,157.8859,104.9563,157.7683,99.3006,163.4239,99.183,154.16,95.8394" style="stroke:#181818;stroke-width:1.0;"/><text fill="#000000" font-family="sans-serif" font-size="13" lengthAdjust="spacing" textLength="94.6689" x="175.76" y="140.1045">set_beam(none)</text></g><!--link Bound to Bound--><g id="link_Bound_Bound"><path d="M150.28,211.5094 C168.25,207.7794 185.26,213.1494 185.26,227.6094 C185.26,242.0694 174.1248,248.6588 156.1548,244.9288 " fill="none" id="Bound-to-Bound" style="stroke:#181818;stroke-width:1.0;"/><polygon fill="#181818" points="150.28,243.7094,158.2792,249.455,155.1756,244.7256,159.9051,241.622,150.28,243.7094" style="stroke:#181818;stroke-width:1.0;"/><text fill="#000000" font-family="sans-serif" font-size="13" lengthAdjust="spacing" textLength="146.2373" x="191.26" y="225.1045">set_beam(B') [B' != none]</text><text fill="#000000" font-family="sans-serif" font-size="13" lengthAdjust="spacing" textLength="111.3188" x="208.7192" y="241.4561">on_beam_changed</text></g><!--SRC=[RP9FJzmm4CNl_XHJEC0UbZzjQQLgsKDMBPSYAj6UsWevpYGnE3EBFTa5LNnt9au32E63PUdz_EPvnk8b82mMIRhb4bRVVTDAxJ5KF_5E-eZm8_hEndku52i8vzQrdj2OTEDfRQFj86NXdm5TXNKtJUIUgXK7Zej56NcRK9rtyKFzlgv6YcE5yJKnhDtZaqydxYXJtvZaBKQfe-hZPtji7bwcQ6t5MqyDr3OaDC9h48QIHRY3oaTqufaqU8wxqrCvnDm1c-3NU8RdGXFrp1Il2JFTccjTcY__4ryWeLoLQBlzOWQ_2tXt2iI4Vysep_krijFT5_G0pIReJRkzmM_loV2FxbcvSgsb1YjZY3Lq74O8N8yEkPMJ1uYA3SO4dhnu6o0YwIWojF4My6uTlFC25rGelngDmTaG3Z9qsPS9RtiaWTL0GDThfxInASlxZIM9zuUEUzVg7eBl3g_jDisWrX5avWnbzFsw6MoshNUjvfYFKT9J5caHMAl53SQSeDJFTM2KWk6TvX40]--></g></svg>