<svg xmlns="http://www.w3.org/2000/svg" xmlns:xlink="http://www.w3.org/1999/xlink" contentStyleType="text/css" height="577px" preserveAspectRatio="none" style="width:729px;height:577px;background:#FFFFFF;" version="1.1" viewBox="0 0 729 577" width="729px" zoomAndPan="magnify"><title>&lt;&lt;stm&gt;&gt; CRenderContext Primary State Machine</title><defs/><g><!--bg-injected--><rect x="0" y="0" width="100%" height="100%" fill="#FFFFFF"/><text fill="#000000" font-family="sans-serif" font-size="14" font-weight="bold" lengthAdjust="spacing" textLength="308.875" x="203.1733" y="24.5332">&#171;stm&#187; CRenderContext Primary State Machine</text><g id="Pre"><rect fill="#E3F2FD" height="50" rx="12.5" ry="12.5" style="stroke:#1565C0;stroke-width:0.5;" width="104.8203" x="225" y="45.6094"/><line style="stroke:#1565C0;stroke-width:0.5;" x1="225" x2="329.8203" y1="73.2188" y2="73.2188"/><text fill="#0D47A1" font-family="sans-serif" font-size="14" lengthAdjust="spacing" textLength="84.8203" x="235" y="65.1426">pre_construct</text></g><g id="Active"><rect fill="#E3F2FD" height="50" rx="12.5" ry="12.5" style="stroke:#1565C0;stroke-width:0.5;" width="56.5723" x="249" y="219.6094"/><line style="stroke:#1565C0;stroke-width:0.5;" x1="249" x2="305.5723" y1="247.2188" y2="247.2188"/><text fill="#0D47A1" font-family="sans-serif" font-size="14" lengthAdjust="spacing" textLength="36.5723" x="259" y="239.1426">active</text></g><g id="PrimOpen"><rect fill="#E3F2FD" height="50" rx="12.5" ry="12.5" style="stroke:#1565C0;stroke-width:0.5;" width="111.0479" x="7" y="393.6094"/><line style="stroke:#1565C0;stroke-width:0.5;" x1="7" x2="118.0479" y1="421.2188" y2="421.2188"/><text fill="#0D47A1" font-family="sans-serif" font-size="14" lengthAdjust="spacing" textLength="91.0479" x="17" y="413.1426">primitive_open</text></g><g id="Dead"><rect fill="#E8F5E9" height="50" rx="12.5" ry="12.5" style="stroke:#2E7D32;stroke-width:0.5;" width="81.4824" x="159" y="521.6094"/><line style="stroke:#2E7D32;stroke-width:0.5;" x1="159" x2="240.4824" y1="549.2188" y2="549.2188"/><text fill="#000000" font-family="sans-serif" font-size="14" lengthAdjust="spacing" textLength="61.4824" x="169" y="541.1426">destroyed</text></g><g id="elem_GMN13"><path d="M543,198.6094 L543,240.6094 L306.27,244.6094 L543,248.6094 L543,290.3672 A0,0 0 0 0 543,290.3672 L722.2217,290.3672 A0,0 0 0 0 722.2217,290.3672 L722.2217,208.6094 L712.2217,198.6094 L543,198.6094 A0,0 0 0 0 543,198.6094 " fill="#FEFFDD" style="stroke:#181818;stroke-width:0.5;"/><path d="M712.2217,198.6094 L712.2217,208.6094 L722.2217,208.6094 L712.2217,198.6094 " fill="#FEFFDD" style="stroke:#181818;stroke-width:0.5;"/><text fill="#000000" font-family="sans-serif" font-size="13" lengthAdjust="spacing" textLength="144.4727" x="549" y="217.1045">HALF-MIGRATED: holds</text><text fill="#000000" font-family="sans-serif" font-size="13" lengthAdjust="spacing" textLength="158.2217" x="549" y="233.4561">LPDIRECT3DDEVICE8 but</text><text fill="#000000" font-family="sans-serif" font-size="13" lengthAdjust="spacing" textLength="120.6753" x="549" y="249.8076">every method except</text><text fill="#000000" font-family="sans-serif" font-size="13" lengthAdjust="spacing" textLength="119.2344" x="549" y="266.1592">create_vertex_buffer</text><text fill="#000000" font-family="sans-serif" font-size="13" lengthAdjust="spacing" textLength="83.8271" x="549" y="282.5107">uses OpenGL.</text></g><!--link Pre to Active--><g id="link_Pre_Active"><path d="M277.5,95.8894 C277.5,128.6694 277.5,180.7394 277.5,213.4494 " fill="none" id="Pre-to-Active" style="stroke:#181818;stroke-width:1.0;"/><polygon fill="#181818" points="277.5,219.4494,281.5,210.4494,277.5,214.4494,273.5,210.4494,277.5,219.4494" style="stroke:#181818;stroke-width:1.0;"/><text fill="#000000" font-family="sans-serif" font-size="13" lengthAdjust="spacing" textLength="113.439" x="278.5" y="140.1045">construct(pd3dDev)</text></g><!--link Active to PrimOpen--><g id="link_Active_PrimOpen"><path d="M248.86,249.0194 C200.04,256.5494 101.88,279.5394 59.5,345.6094 C50.52,359.6194 50.4255,372.632 53.6155,387.552 " fill="none" id="Active-to-PrimOpen" style="stroke:#181818;stroke-width:1.0;"/><polygon fill="#181818" points="54.87,393.4194,56.8999,383.782,53.8246,388.5299,49.0767,385.4546,54.87,393.4194" style="stroke:#181818;stroke-width:1.0;"/><text fill="#000000" font-family="sans-serif" font-size="13" lengthAdjust="spacing" textLength="173.4307" x="60.5" y="360.1045">begin(lines/triangles/quads/...)</text></g><!--link PrimOpen to Active--><g id="link_PrimOpen_Active"><path d="M118.05,413.7294 C156.53,408.2194 206.41,395.0194 238.5,363.6094 C264.1,338.5594 272.2221,302.341 275.2421,275.781 " fill="none" id="PrimOpen-to-Active" style="stroke:#181818;stroke-width:1.0;"/><polygon fill="#181818" points="275.92,269.8194,270.9288,278.3098,275.3551,274.7874,278.8776,279.2137,275.92,269.8194" style="stroke:#181818;stroke-width:1.0;"/><text fill="#000000" font-family="sans-serif" font-size="13" lengthAdjust="spacing" textLength="21.6899" x="252.5" y="360.1045">end</text></g><!--link PrimOpen to PrimOpen--><g id="link_PrimOpen_PrimOpen"><path d="M118.18,406.6094 C137.44,406.4894 153,410.4894 153,418.6094 C153,426.7294 143.4399,430.7668 124.1799,430.6468 " fill="none" id="PrimOpen-to-PrimOpen" style="stroke:#181818;stroke-width:1.0;"/><polygon fill="#181818" points="118.18,430.6094,127.1549,434.6654,123.1799,430.6405,127.2047,426.6655,118.18,430.6094" style="stroke:#181818;stroke-width:1.0;"/><text fill="#000000" font-family="sans-serif" font-size="13" lengthAdjust="spacing" textLength="117.749" x="159" y="424.1045">vertex(_) / normal(_)</text></g><!--link Active to Active--><g id="link_Active_Active"><path d="M306.23,225.4394 C324.05,220.8194 341,227.2094 341,244.6094 C341,262.0094 329.858,269.9051 312.038,265.2851 " fill="none" id="Active-to-Active" style="stroke:#181818;stroke-width:1.0;"/><polygon fill="#181818" points="306.23,263.7794,313.9381,269.91,311.07,265.0342,315.9458,262.166,306.23,263.7794" style="stroke:#181818;stroke-width:1.0;"/><text fill="#000000" font-family="sans-serif" font-size="13" lengthAdjust="spacing" textLength="112.7407" x="376.9673" y="193.1045">set_color/set_alpha</text><text fill="#000000" font-family="sans-serif" font-size="13" lengthAdjust="spacing" textLength="113.4707" x="376.6023" y="209.4561">setup_lines/setup_*</text><text fill="#000000" font-family="sans-serif" font-size="13" lengthAdjust="spacing" textLength="95.3672" x="385.6541" y="225.8076">load/mult_matrix</text><text fill="#000000" font-family="sans-serif" font-size="13" lengthAdjust="spacing" textLength="86.7153" x="389.98" y="242.1592">translate/rotate</text><text fill="#000000" font-family="sans-serif" font-size="13" lengthAdjust="spacing" textLength="96.1099" x="385.2827" y="258.5107">push/pop_matrix</text><text fill="#000000" font-family="sans-serif" font-size="13" lengthAdjust="spacing" textLength="97.5571" x="384.5591" y="274.8623">bind(Tex)/unbind</text><text fill="#000000" font-family="sans-serif" font-size="13" lengthAdjust="spacing" textLength="163.3062" x="351.6846" y="291.2139">create_vertex_buffer [D3D8]</text><text fill="#000000" font-family="sans-serif" font-size="13" lengthAdjust="spacing" textLength="172.6753" x="347" y="307.5654">triangles_from_surface(Mesh)</text></g><!--link Active to Dead--><g id="link_Active_Dead"><path d="M288.93,269.7294 C309.21,316.3594 345.49,420.5294 302.5,491.6094 C288.97,513.9794 268.4313,525.552 245.8413,533.482 " fill="none" id="Active-to-Dead" style="stroke:#181818;stroke-width:1.0;"/><polygon fill="#181818" points="240.18,535.4694,249.9969,536.2626,244.8978,533.8133,247.3471,528.7141,240.18,535.4694" style="stroke:#181818;stroke-width:1.0;"/><text fill="#000000" font-family="sans-serif" font-size="13" lengthAdjust="spacing" textLength="46.2427" x="324.5" y="424.1045">destruct</text></g><!--link PrimOpen to Dead--><g id="link_PrimOpen_Dead"><path d="M88.91,443.8994 C113.17,466.2194 144.5134,495.0381 168.7534,517.3281 " fill="none" id="PrimOpen-to-Dead" style="stroke:#181818;stroke-width:1.0;"/><polygon fill="#181818" points="173.17,521.3894,169.2527,512.3531,169.4895,518.005,163.8376,518.2418,173.17,521.3894" style="stroke:#181818;stroke-width:1.0;"/><text fill="#000000" font-family="sans-serif" font-size="13" lengthAdjust="spacing" textLength="153.2197" x="140.5" y="488.1045">destruct [unbalanced; bug]</text></g><!--SRC=[RL9jRzem4FxkNt7gli0aI5l6oXYgr17w8hLQnT2-b2fouWknwjYPxRHKq_xxBWOorf9F5z_ZUrxENdg5C9auNvwVmtIEMg2T6krnxU7UofBRL_ZXkKUuuraXDJBt97N5BI_1XVFV3EZxnhEdbJMr5bEZZ9rCKcjU7DBG3pZ8JtEnGHaRvhz1d0m_3xFZWBWaxdVzO_7fZ9ySvl5eIwcv2aoZV8XVtZFjOqxnJ0nEsPzz7mKNvaNg5UHSEMJULE0DfCPxKuAG5ZClZMPiO_YeifXaHZjlwymV0NUKL1FYJl0En-dQCmR0HIWFO2hAM3Qzn5IejyDa-Pr-3g054gbvHH60CN81- -uOQuJqo8pkdUyunz1gxLHY869yxh9jhqUmbcuCAQwaxYZQiekybLol55M_QYvSrE_tkwp5lhduZ9PUJ2VfGWJQs98hglz7jsheYUtJj-SEFQLA-ugQYgkgu4jDPLqb6qMR-kDIAyD5LDRA9oKdcUkbzfPhfoYYo9ecgQMkQbT4bQbQI2grw2nmtOtgK2zrPf6WoKPxajPvZXOUua4yUcmcRkqdkJLbucgRymmxT-YAV-bjWmvx64DO3gMyv_im01v80bTSPoY-Gbgl7XdJXlPhvQhmOF9jAE4XNr_SNlRkRgxc5ujPF8R2AE52u_O-lfdFfej17Cz-tand8vhaGmV9qYkKw0iZ0DSPLflpGuP3etRee55yTTjdj1zerFm5]--></g></svg>