<svg xmlns="http://www.w3.org/2000/svg" xmlns:xlink="http://www.w3.org/1999/xlink" contentStyleType="text/css" height="543px" preserveAspectRatio="none" style="width:835px;height:543px;background:#FFFFFF;" version="1.1" viewBox="0 0 835 543" width="835px" zoomAndPan="magnify"><title>&lt;&lt;stm&gt;&gt; CRotateTracker Primary State Machine</title><defs/><g><!--bg-injected--><rect x="0" y="0" width="100%" height="100%" fill="#FFFFFF"/><text fill="#000000" font-family="sans-serif" font-size="14" font-weight="bold" lengthAdjust="spacing" textLength="302.6816" x="259.2805" y="24.5332">&#171;stm&#187; CRotateTracker Primary State Machine</text><g id="Pre"><rect fill="#E3F2FD" height="50" rx="12.5" ry="12.5" style="stroke:#1565C0;stroke-width:0.5;" width="104.8203" x="374.5" y="45.6094"/><line style="stroke:#1565C0;stroke-width:0.5;" x1="374.5" x2="479.3203" y1="73.2188" y2="73.2188"/><text fill="#0D47A1" font-family="sans-serif" font-size="14" lengthAdjust="spacing" textLength="84.8203" x="384.5" y="65.1426">pre_construct</text></g><g id="Ready"><rect fill="#E3F2FD" height="50" rx="12.5" ry="12.5" style="stroke:#1565C0;stroke-width:0.5;" width="55.0205" x="399.5" y="173.6094"/><line style="stroke:#1565C0;stroke-width:0.5;" x1="399.5" x2="454.5205" y1="201.2188" y2="201.2188"/><text fill="#0D47A1" font-family="sans-serif" font-size="14" lengthAdjust="spacing" textLength="35.0205" x="409.5" y="193.1426">ready</text></g><g id="Drag"><rect fill="#E3F2FD" height="50" rx="12.5" ry="12.5" style="stroke:#1565C0;stroke-width:0.5;" width="74.4893" x="7" y="330.6094"/><line style="stroke:#1565C0;stroke-width:0.5;" x1="7" x2="81.4893" y1="358.2188" y2="358.2188"/><text fill="#0D47A1" font-family="sans-serif" font-size="14" lengthAdjust="spacing" textLength="54.4893" x="17" y="350.1426">dragging</text></g><g id="Dead"><rect fill="#E8F5E9" height="50" rx="12.5" ry="12.5" style="stroke:#2E7D32;stroke-width:0.5;" width="81.4824" x="386.5" y="487.6094"/><line style="stroke:#2E7D32;stroke-width:0.5;" x1="386.5" x2="467.9824" y1="515.2188" y2="515.2188"/><text fill="#000000" font-family="sans-serif" font-size="14" lengthAdjust="spacing" textLength="61.4824" x="396.5" y="507.1426">destroyed</text></g><g id="elem_GMN11"><path d="M463,301.6094 L463,351.6094 L81.05,355.6094 L463,359.6094 L463,409.7188 A0,0 0 0 0 463,409.7188 L740.8198,409.7188 A0,0 0 0 0 740.8198,409.7188 L740.8198,311.6094 L730.8198,301.6094 L463,301.6094 A0,0 0 0 0 463,301.6094 " fill="#FEFFDD" style="stroke:#181818;stroke-width:0.5;"/><path d="M730.8198,301.6094 L730.8198,311.6094 L740.8198,311.6094 L730.8198,301.6094 " fill="#FEFFDD" style="stroke:#181818;stroke-width:0.5;"/><text fill="#000000" font-family="sans-serif" font-size="13" lengthAdjust="spacing" textLength="155.3462" x="469" y="320.1045">OnMouseDrag has a BUG:</text><text fill="#000000" font-family="sans-serif" font-size="13" lengthAdjust="spacing" textLength="132.9326" x="469" y="336.4561">CMatrixD&lt;3&gt; mRotate;</text><text fill="#000000" font-family="sans-serif" font-size="13" lengthAdjust="spacing" textLength="234.8252" x="469" y="352.8076">// = CreateRotate(...);  &lt;- commented out</text><text fill="#000000" font-family="sans-serif" font-size="13" lengthAdjust="spacing" textLength="256.8198" x="469" y="369.1592">vNewDir = mRotate * camera.GetDirection();</text><text fill="#000000" font-family="sans-serif" font-size="13" lengthAdjust="spacing" textLength="226.8652" x="469" y="385.5107">Rotation matrix is default-constructed --</text><text fill="#000000" font-family="sans-serif" font-size="13" lengthAdjust="spacing" textLength="200.5034" x="469" y="401.8623">rotation effectively doesn't happen.</text></g><!--link Pre to Ready--><g id="link_Pre_Ready"><path d="M427,95.8994 C427,118.2194 427,145.0994 427,167.3894 " fill="none" id="Pre-to-Ready" style="stroke:#181818;stroke-width:1.0;"/><polygon fill="#181818" points="427,173.3894,431,164.3894,427,168.3894,423,164.3894,427,173.3894" style="stroke:#181818;stroke-width:1.0;"/><text fill="#000000" font-family="sans-serif" font-size="13" lengthAdjust="spacing" textLength="89.5781" x="428" y="140.1045">construct(View)</text></g><!--link Ready to Drag--><g id="link_Ready_Drag"><path d="M399.46,210.7594 C331.88,238.1094 163.3717,306.2983 86.7317,337.3183 " fill="none" id="Ready-to-Drag" style="stroke:#181818;stroke-width:1.0;"/><polygon fill="#181818" points="81.17,339.5694,91.0133,339.9005,85.8048,337.6935,88.0118,332.4849,81.17,339.5694" style="stroke:#181818;stroke-width:1.0;"/><text fill="#000000" font-family="sans-serif" font-size="13" lengthAdjust="spacing" textLength="126.4834" x="294" y="268.1045">on_button_down(_, _)</text></g><!--link Drag to Drag--><g id="link_Drag_Drag"><path d="M81.05,338.8694 C99.52,336.5494 116,342.1294 116,355.6094 C116,369.0894 105.4732,375.4172 87.0032,373.0972 " fill="none" id="Drag-to-Drag" style="stroke:#181818;stroke-width:1.0;"/><polygon fill="#181818" points="81.05,372.3494,89.4813,377.4399,86.011,372.9725,90.4783,369.5022,81.05,372.3494" style="stroke:#181818;stroke-width:1.0;"/><text fill="#000000" font-family="sans-serif" font-size="13" lengthAdjust="spacing" textLength="126.4834" x="217.7258" y="353.1045">on_button_down(_, _)</text><text fill="#000000" font-family="sans-serif" font-size="13" lengthAdjust="spacing" textLength="317.9351" x="122" y="369.4561">on_mouse_drag(_, _) [BROKEN: mRotate uninitialized]</text></g><!--link Drag to Dead--><g id="link_Drag_Dead"><path d="M81.07,371.6094 C153.16,400.7894 306.1382,462.6985 380.9082,492.9585 " fill="none" id="Drag-to-Dead" style="stroke:#181818;stroke-width:1.0;"/><polygon fill="#181818" points="386.47,495.2094,379.6279,488.1252,381.8352,493.3336,376.6267,495.5409,386.47,495.2094" style="stroke:#181818;stroke-width:1.0;"/><text fill="#000000" font-family="sans-serif" font-size="13" lengthAdjust="spacing" textLength="46.2427" x="294" y="454.1045">destruct</text></g><!--link Ready to Dead--><g id="link_Ready_Dead"><path d="M454.76,203.8694 C527.73,215.7094 721.91,251.4194 759,301.6094 C787.53,340.2094 787.53,371.0094 759,409.6094 C723.93,457.0694 554.2963,490.5909 473.5963,504.2109 " fill="none" id="Ready-to-Dead" style="stroke:#181818;stroke-width:1.0;"/><polygon fill="#181818" points="467.68,505.2094,477.2202,507.6558,472.6103,504.3773,475.8888,499.7674,467.68,505.2094" style="stroke:#181818;stroke-width:1.0;"/><text fill="#000000" font-family="sans-serif" font-size="13" lengthAdjust="spacing" textLength="46.2427" x="781" y="361.1045">destruct</text></g><!--SRC=[VL9BSzCm4BxhL-oK0qa7fstIK4XD3acW1oOj4nuNO3oAjNOqjRGUUTqG6FuxibntCaq6dxoxdxx7IgovG8ZZYirq2lCLiMJyucHwZmu-EMsasy7dfWbBcMwqHL7TQrjA9mrKeVz7WFzc_aZkgBPgJWMvE5uxsbReIL_WA1jcgaMHK-WE41VZr-FqF20-aEM3-Rcwl98NntKOdT5M5a7fJJR6juTA-vWXNgdHKFpTpx6HYhRQvf39eaB1L08Jh8cP32ZjC6LDLeWsy4dfC4d9Lkpgb4z0LdvJpH8xmntEeLIxC5yrVqSGoiayzy81jF35CGnw8TgXQa6U2VOJ2T68Hpw0ZQQFGXDuijVxfd7R5ss_GmMb2P1DrhNFQ9EctqjUGT8NOHRz7_J3-j9GNM7I96YRy7sskllu_dO2fdr6K5jjDMjPwD-eVZuoTnQQ71C8uRpDvmQVJOKbp-Tqlc6WB5WBjtndbusBmBpnsv4m-tep2QFvKhBJlnRnQDePkWw3ipDu1tD_DunjkpSO3FhN077arsOCMaO5L7D0FzpYTg6TFzAbEeLK6dHoS8EywDv6hz-I1uolmGHrq9KFaScwuEZfIZnx50Mqwz2OPGtF0nOxK8ILVSa-JrcY7GYq2fhu_m00]--></g></svg>