<svg xmlns="http://www.w3.org/2000/svg" xmlns:xlink="http://www.w3.org/1999/xlink" contentStyleType="text/css" height="400px" preserveAspectRatio="none" style="width:988px;height:400px;background:#FFFFFF;" version="1.1" viewBox="0 0 988 400" width="988px" zoomAndPan="magnify"><title>&lt;&lt;stm&gt;&gt; CBeamParamPosCtrl Primary State Machine</title><defs/><g><!--bg-injected--><rect x="0" y="0" width="100%" height="100%" fill="#FFFFFF"/><text fill="#000000" font-family="sans-serif" font-size="14" font-weight="bold" lengthAdjust="spacing" textLength="339.2539" x="317.8074" y="24.5332">&#171;stm&#187; CBeamParamPosCtrl Primary State Machine</text><g id="PreInit"><rect fill="#E3F2FD" height="50" rx="12.5" ry="12.5" style="stroke:#1565C0;stroke-width:0.5;" width="65.917" x="86.9" y="45.6094"/><line style="stroke:#1565C0;stroke-width:0.5;" x1="86.9" x2="152.817" y1="73.2188" y2="73.2188"/><text fill="#0D47A1" font-family="sans-serif" font-size="14" lengthAdjust="spacing" textLength="45.917" x="96.9" y="65.1426">pre_init</text></g><g id="Ready"><rect fill="#E3F2FD" height="50" rx="12.5" ry="12.5" style="stroke:#1565C0;stroke-width:0.5;" width="55.0205" x="92.4" y="173.6094"/><line style="stroke:#1565C0;stroke-width:0.5;" x1="92.4" x2="147.4205" y1="201.2188" y2="201.2188"/><text fill="#0D47A1" font-family="sans-serif" font-size="14" lengthAdjust="spacing" textLength="35.0205" x="102.4" y="193.1426">ready</text></g><g id="Bound"><rect fill="#E3F2FD" height="50" rx="12.5" ry="12.5" style="stroke:#1565C0;stroke-width:0.5;" width="58.9307" x="90.4" y="322.6094"/><line style="stroke:#1565C0;stroke-width:0.5;" x1="90.4" x2="149.3307" y1="350.2188" y2="350.2188"/><text fill="#0D47A1" font-family="sans-serif" font-size="14" lengthAdjust="spacing" textLength="38.9307" x="100.4" y="342.1426">bound</text></g><g id="elem_GMN13"><path d="M722.4,301.6094 L722.4,343.6094 L149.56,347.6094 L722.4,351.6094 L722.4,393.3672 A0,0 0 0 0 722.4,393.3672 L981.8688,393.3672 A0,0 0 0 0 981.8688,393.3672 L981.8688,311.6094 L971.8688,301.6094 L722.4,301.6094 A0,0 0 0 0 722.4,301.6094 " fill="#FEFFDD" style="stroke:#181818;stroke-width:0.5;"/><path d="M971.8688,301.6094 L971.8688,311.6094 L981.8688,311.6094 L971.8688,301.6094 " fill="#FEFFDD" style="stroke:#181818;stroke-width:0.5;"/><text fill="#000000" font-family="sans-serif" font-size="13" lengthAdjust="spacing" textLength="189.3506" x="728.4" y="320.1045">Each on_apply_changes triggers</text><text fill="#000000" font-family="sans-serif" font-size="13" lengthAdjust="spacing" textLength="200.1733" x="728.4" y="336.4561">SetGantryAngle / SetCouchAngle /</text><text fill="#000000" font-family="sans-serif" font-size="13" lengthAdjust="spacing" textLength="213.186" x="728.4" y="352.8076">SetTableOffset on the bound CBeam</text><text fill="#000000" font-family="sans-serif" font-size="13" lengthAdjust="spacing" textLength="183.5361" x="728.4" y="369.1592">-- all three fire GetChangeEvent</text><text fill="#000000" font-family="sans-serif" font-size="13" lengthAdjust="spacing" textLength="238.4688" x="728.4" y="385.5107">(per c_beam_record:fires_change_event)</text></g><!--link PreInit to Ready--><g id="link_PreInit_Ready"><path d="M119.9,95.8994 C119.9,118.2194 119.9,145.0994 119.9,167.3894 " fill="none" id="PreInit-to-Ready" style="stroke:#181818;stroke-width:1.0;"/><polygon fill="#181818" points="119.9,173.3894,123.9,164.3894,119.9,168.3894,115.9,164.3894,119.9,173.3894" style="stroke:#181818;stroke-width:1.0;"/><text fill="#000000" font-family="sans-serif" font-size="13" lengthAdjust="spacing" textLength="80.2344" x="120.9" y="140.1045">on_init_dialog</text></g><!--link Ready to Bound--><g id="link_Ready_Bound"><path d="M92.17,207.1494 C69.88,214.8394 40.04,229.1794 25.9,253.6094 C6,287.9794 50.4831,315.8315 84.9531,331.9215 " fill="none" id="Ready-to-Bound" style="stroke:#181818;stroke-width:1.0;"/><polygon fill="#181818" points="90.39,334.4594,83.9266,327.0281,85.8593,332.3445,80.5428,334.2772,90.39,334.4594" style="stroke:#181818;stroke-width:1.0;"/><text fill="#000000" font-family="sans-serif" font-size="13" lengthAdjust="spacing" textLength="141.2734" x="26.9" y="268.1045">set_beam(B) [B != none]</text></g><!--reverse link Ready to Bound--><g id="link_Ready_Bound"><path d="M152.0233,222.2496 C168.0633,235.7296 179.38,251.1994 172.9,271.6094 C166.91,290.4494 154.29,308.6394 142.86,322.3794 " fill="none" id="Ready-backto-Bound" style="stroke:#181818;stroke-width:1.0;"/><polygon fill="#181818" points="147.43,218.3894,151.7465,227.2419,151.2578,221.6062,156.8935,221.1175,147.43,218.3894" style="stroke:#181818;stroke-width:1.0;"/><text fill="#000000" font-family="sans-serif" font-size="13" lengthAdjust="spacing" textLength="94.6689" x="174.9" y="268.1045">set_beam(none)</text></g><!--link Bound to Bound--><g id="link_Bound_Bound"><path d="M149.42,342.7094 C167.39,341.5694 184.4,343.2094 184.4,347.6094 C184.4,352.0094 173.378,354.0292 155.408,352.8892 " fill="none" id="Bound-to-Bound" style="stroke:#181818;stroke-width:1.0;"/><polygon fill="#181818" points="149.42,352.5094,158.1487,357.0712,154.41,352.8259,158.6552,349.0872,149.42,352.5094" style="stroke:#181818;stroke-width:1.0;"/><text fill="#000000" font-family="sans-serif" font-size="13" lengthAdjust="spacing" textLength="146.2373" x="190.4" y="353.1045">set_beam(B') [B' != none]</text></g><!--link Bound to Bound--><g id="link_Bound_Bound"><path d="M149.53,341.5794 C213.16,334.0294 342.4,336.0394 342.4,347.6094 C342.4,359.1794 219.1182,361.8963 155.4882,354.3463 " fill="none" id="Bound-to-Bound-1" style="stroke:#181818;stroke-width:1.0;"/><polygon fill="#181818" points="149.53,353.6394,157.996,358.672,154.4952,354.2285,158.9386,350.7277,149.53,353.6394" style="stroke:#181818;stroke-width:1.0;"/><text fill="#000000" font-family="sans-serif" font-size="13" lengthAdjust="spacing" textLength="109.1479" x="371.8832" y="336.6045">on_apply_changes</text><text fill="#000000" font-family="sans-serif" font-size="13" lengthAdjust="spacing" textLength="156.1143" x="348.4" y="352.9561">on_apply_spin_changes(_)</text><text fill="#000000" font-family="sans-serif" font-size="13" lengthAdjust="spacing" textLength="141.6606" x="355.6268" y="369.3076">do_data_exchange(true)</text></g><!--link Bound to Bound--><g id="link_Bound_Bound"><path d="M149.55,340.7194 C245.75,326.9394 510.4,329.2294 510.4,347.6094 C510.4,365.9894 251.6894,369.1302 155.4894,355.3502 " fill="none" id="Bound-to-Bound-2" style="stroke:#181818;stroke-width:1.0;"/><polygon fill="#181818" points="149.55,354.4994,157.8919,359.7351,154.4995,355.2084,159.0262,351.816,149.55,354.4994" style="stroke:#181818;stroke-width:1.0;"/><text fill="#000000" font-family="sans-serif" font-size="13" lengthAdjust="spacing" textLength="146.7197" x="516.4" y="353.1045">do_data_exchange(false)</text></g><!--link Ready to Ready--><g id="link_Ready_Ready"><path d="M147.53,187.5594 C165.3,184.6794 182.4,188.3594 182.4,198.6094 C182.4,208.8594 171.2227,213.4993 153.4527,210.6193 " fill="none" id="Ready-to-Ready" style="stroke:#181818;stroke-width:1.0;"/><polygon fill="#181818" points="147.53,209.6594,155.7741,215.0477,152.4656,210.4593,157.054,207.1507,147.53,209.6594" style="stroke:#181818;stroke-width:1.0;"/><text fill="#000000" font-family="sans-serif" font-size="13" lengthAdjust="spacing" textLength="146.7197" x="188.4" y="204.1045">do_data_exchange(false)</text></g><!--SRC=[TPDHRzCm4CVV_IcExM7jGyG6Z4bLgKIgCV60c1XlR8gS-99OItsHVMLKQD-TizECY1O_HFRvf__zxtnXont2SXbuirh1EaUzkTLUFXJMx3kuzNQZ_GxkM3F25rsrrg5IuT6wFd8GqiLl1R9oNJqsdhREhAaZlroMdfu2Yl0flgtVr6QWo1lq_n9ndLvSlh-ipXFrYHmVOuGwD- -kz8LwdhfejQ4dwngeTHTGCVN012KnqmQCzLYn9IV6azsJtcDXdUKJq45gnC-oXx-PHioZDhl4V8kx8qGPgqr47dTJGeswcLXpsMgliG1oANTXhEweKKDuX0QP1GJaefJNcELp-973gm_WoE636kwpRJyHV64ZCX-Hes9dKUtiG6x2YZlTzzskg5hj6WptxYKIUkl6yAoOtpj3XT6i2_mrH6Vijs9WNz74uG6OdkcOrV-Hof7qszkcPQ1wmDEWNCjC7fW65h917n9oXtoZ7VlTHzV8jB-EWJLjgtP_7g7lkkpmQrrBkqGHk4L8xply5udACj1T9rSU4MgPAxWHhPJq-YSwJj2iHmzLwdWXaoVpleXesBihC99pXQ8Sgr9_0000]--></g></svg>