<svg xmlns="http://www.w3.org/2000/svg" xmlns:xlink="http://www.w3.org/1999/xlink" contentStyleType="text/css" height="523px" preserveAspectRatio="none" style="width:784px;height:523px;background:#FFFFFF;" version="1.1" viewBox="0 0 784 523" width="784px" zoomAndPan="magnify"><title>&lt;&lt;stm&gt;&gt; CPenBeamEditView Primary State Machine</title><defs/><g><!--bg-injected--><rect x="0" y="0" width="100%" height="100%" fill="#FFFFFF"/><text fill="#000000" font-family="sans-serif" font-size="14" font-weight="bold" lengthAdjust="spacing" textLength="330.6816" x="219.8018" y="24.5332">&#171;stm&#187; CPenBeamEditView Primary State Machine</text><!--cluster Browse--><g id="cluster_Browse"><path d="M19.5,167.6094 L453.5,167.6094 A12.5,12.5 0 0 1 466,180.1094 L466,190.2188 L7,190.2188 L7,180.1094 A12.5,12.5 0 0 1 19.5,167.6094 " fill="#E3F2FD" style="stroke:#E3F2FD;stroke-width:1.0;"/><rect fill="none" height="350" rx="12.5" ry="12.5" style="stroke:#1565C0;stroke-width:0.5;" width="459" x="7" y="167.6094"/><line style="stroke:#1565C0;stroke-width:0.5;" x1="7" x2="466" y1="190.2188" y2="190.2188"/><text fill="#0D47A1" font-family="sans-serif" font-size="14" lengthAdjust="spacing" textLength="46.6826" x="206.5" y="186.1426">Browse</text></g><g id="Browse.Created"><rect fill="#E3F2FD" height="50" rx="12.5" ry="12.5" style="stroke:#1565C0;stroke-width:0.5;" width="66.6963" x="125.5" y="251.1094"/><line style="stroke:#1565C0;stroke-width:0.5;" x1="125.5" x2="192.1963" y1="278.7188" y2="278.7188"/><text fill="#0D47A1" font-family="sans-serif" font-size="14" lengthAdjust="spacing" textLength="46.6963" x="135.5" y="270.6426">created</text></g><g id="Browse.Bound"><rect fill="#E3F2FD" height="50" rx="12.5" ry="12.5" style="stroke:#1565C0;stroke-width:0.5;" width="93.1855" x="31.5" y="422.1094"/><line style="stroke:#1565C0;stroke-width:0.5;" x1="31.5" x2="124.6855" y1="449.7188" y2="449.7188"/><text fill="#0D47A1" font-family="sans-serif" font-size="14" lengthAdjust="spacing" textLength="73.1855" x="41.5" y="441.6426">plan_bound</text></g><g id="PreCreate"><rect fill="#E3F2FD" height="50" rx="12.5" ry="12.5" style="stroke:#1565C0;stroke-width:0.5;" width="86.9307" x="115.5" y="45.6094"/><line style="stroke:#1565C0;stroke-width:0.5;" x1="115.5" x2="202.4307" y1="73.2188" y2="73.2188"/><text fill="#0D47A1" font-family="sans-serif" font-size="14" lengthAdjust="spacing" textLength="66.9307" x="125.5" y="65.1426">pre_create</text></g><g id="Closed"><rect fill="#E8F5E9" height="50" rx="12.5" ry="12.5" style="stroke:#2E7D32;stroke-width:0.5;" width="60.4688" x="490" y="422.1094"/><line style="stroke:#2E7D32;stroke-width:0.5;" x1="490" x2="550.4688" y1="449.7188" y2="449.7188"/><text fill="#1B5E20" font-family="sans-serif" font-size="14" lengthAdjust="spacing" textLength="40.4688" x="500" y="441.6426">closed</text></g><g id="elem_GMN15"><path d="M585,417.6094 L585,476.6641 L777.2852,476.6641 L777.2852,427.6094 L767.2852,417.6094 L585,417.6094 " fill="#FEFFDD" style="stroke:#181818;stroke-width:0.5;"/><path d="M767.2852,417.6094 L767.2852,427.6094 L777.2852,427.6094 L767.2852,417.6094 " fill="#FEFFDD" style="stroke:#181818;stroke-width:1.0;"/><text fill="#000000" font-family="sans-serif" font-size="13" lengthAdjust="spacing" textLength="171.2852" x="591" y="436.1045">histogram bound to plan dose</text><text fill="#000000" font-family="sans-serif" font-size="13" lengthAdjust="spacing" textLength="158.5898" x="591" y="452.4561">matrix + structure[0] region;</text><text fill="#000000" font-family="sans-serif" font-size="13" lengthAdjust="spacing" textLength="139.4771" x="591" y="468.8076">graph has 1 data series.</text></g><g id="elem_GMN18"><path d="M493.5,238.6094 L493.5,314.0156 L718.9834,314.0156 L718.9834,248.6094 L708.9834,238.6094 L493.5,238.6094 " fill="#FEFFDD" style="stroke:#181818;stroke-width:0.5;"/><path d="M708.9834,238.6094 L708.9834,248.6094 L718.9834,248.6094 L708.9834,238.6094 " fill="#FEFFDD" style="stroke:#181818;stroke-width:1.0;"/><text fill="#000000" font-family="sans-serif" font-size="13" lengthAdjust="spacing" textLength="204.4834" x="499.5" y="257.1045">OnLButtonDown is DECLARED but</text><text fill="#000000" font-family="sans-serif" font-size="13" lengthAdjust="spacing" textLength="165.4707" x="499.5" y="273.4561">NOT defined and NOT in the</text><text fill="#000000" font-family="sans-serif" font-size="13" lengthAdjust="spacing" textLength="199.4434" x="499.5" y="289.8076">message map. Orphan declaration</text><text fill="#000000" font-family="sans-serif" font-size="13" lengthAdjust="spacing" textLength="114.8799" x="499.5" y="306.1592">preserved verbatim.</text></g><!--link Created to Bound--><g id="link_Created_Bound"><path d="M147.39,301.3194 C132,333.4494 107.5639,384.4291 92.1739,416.5291 " fill="none" id="Created-to-Bound" style="stroke:#181818;stroke-width:1.0;"/><polygon fill="#181818" points="89.58,421.9394,97.0778,415.5532,91.7416,417.4308,89.864,412.0946,89.58,421.9394" style="stroke:#181818;stroke-width:1.0;"/><text fill="#000000" font-family="sans-serif" font-size="13" lengthAdjust="spacing" textLength="77.3398" x="121" y="367.1045">on_update(_)</text></g><!--reverse link Bound to Bound--><g id="link_Bound_Bound"><path d="M130.5873,435.8049 C209.3773,426.3549 343.5,430.5994 343.5,447.1094 C343.5,463.6194 203.42,467.1494 124.63,457.6994 " fill="none" id="Bound-backto-Bound" style="stroke:#181818;stroke-width:1.0;"/><polygon fill="#181818" points="124.63,436.5194,134.0423,439.4191,129.5944,435.9239,133.0896,431.4761,124.63,436.5194" style="stroke:#181818;stroke-width:1.0;"/><text fill="#000000" font-family="sans-serif" font-size="13" lengthAdjust="spacing" textLength="77.3398" x="349.5" y="452.6045">on_update(_)</text></g><!--link Bound to Bound--><g id="link_Bound_Bound"><path d="M124.9,439.2794 C143.71,438.8394 159.5,441.4494 159.5,447.1094 C159.5,452.7694 149.7084,455.5197 130.8984,455.0797 " fill="none" id="Bound-to-Bound" style="stroke:#181818;stroke-width:1.0;"/><polygon fill="#181818" points="124.9,454.9394,133.804,459.1487,129.8986,455.0563,133.9911,451.1509,124.9,454.9394" style="stroke:#181818;stroke-width:1.0;"/><text fill="#000000" font-family="sans-serif" font-size="13" lengthAdjust="spacing" textLength="75.1499" x="214.1611" y="420.1045">on_size(_, _)</text><text fill="#000000" font-family="sans-serif" font-size="13" lengthAdjust="spacing" textLength="49.8672" x="226.8025" y="436.4561">on_draw</text><text fill="#000000" font-family="sans-serif" font-size="13" lengthAdjust="spacing" textLength="116.3652" x="193.5535" y="452.8076">on_prepare_printing</text><text fill="#000000" font-family="sans-serif" font-size="13" lengthAdjust="spacing" textLength="172.4722" x="165.5" y="469.1592">on_file_print[_direct|_preview]</text><text fill="#000000" font-family="sans-serif" font-size="13" lengthAdjust="spacing" textLength="166.2324" x="168.6199" y="485.5107">on_lbutton_down(_) [orphan]</text></g><!--link Created to Created--><g id="link_Created_Created"><path d="M192.83,261.0094 C210.97,258.4394 227.5,263.4794 227.5,276.1094 C227.5,288.7394 216.9107,294.621 198.7707,292.051 " fill="none" id="Created-to-Created" style="stroke:#181818;stroke-width:1.0;"/><polygon fill="#181818" points="192.83,291.2094,201.1799,296.4323,197.7806,291.9108,202.3021,288.5114,192.83,291.2094" style="stroke:#181818;stroke-width:1.0;"/><text fill="#000000" font-family="sans-serif" font-size="13" lengthAdjust="spacing" textLength="75.1499" x="282.1611" y="249.1045">on_size(_, _)</text><text fill="#000000" font-family="sans-serif" font-size="13" lengthAdjust="spacing" textLength="49.8672" x="294.8025" y="265.4561">on_draw</text><text fill="#000000" font-family="sans-serif" font-size="13" lengthAdjust="spacing" textLength="116.3652" x="261.5535" y="281.8076">on_prepare_printing</text><text fill="#000000" font-family="sans-serif" font-size="13" lengthAdjust="spacing" textLength="172.4722" x="233.5" y="298.1592">on_file_print[_direct|_preview]</text><text fill="#000000" font-family="sans-serif" font-size="13" lengthAdjust="spacing" textLength="166.2324" x="236.6199" y="314.5107">on_lbutton_down(_) [orphan]</text></g><!--link PreCreate to PreCreate--><g id="link_PreCreate_PreCreate"><path d="M202.59,58.7494 C221.4,57.7794 237.5,61.7294 237.5,70.6094 C237.5,79.4894 227.392,83.7484 208.582,82.7784 " fill="none" id="PreCreate-to-PreCreate" style="stroke:#181818;stroke-width:1.0;"/><polygon fill="#181818" points="202.59,82.4694,211.3721,86.9276,207.5834,82.7269,211.7841,78.9382,202.59,82.4694" style="stroke:#181818;stroke-width:1.0;"/><text fill="#000000" font-family="sans-serif" font-size="13" lengthAdjust="spacing" textLength="112.7344" x="243.5" y="76.1045">pre_create_window</text></g><!--link PreCreate to Created--><g id="link_PreCreate_Created"><path d="M159,95.7494 C159,134.9194 159,205.8494 159,244.9994 " fill="none" id="PreCreate-to-Created" style="stroke:#181818;stroke-width:1.0;"/><polygon fill="#181818" points="159,250.9994,163,241.9994,159,245.9994,155,241.9994,159,250.9994" style="stroke:#181818;stroke-width:1.0;"/><text fill="#000000" font-family="sans-serif" font-size="13" lengthAdjust="spacing" textLength="57.8208" x="160" y="140.1045">on_create</text></g><!--link Browse to Closed--><g id="link_Browse_Closed"><path d="M466.0303,299.0003 C466.5351,300.3761 467.0584,301.8023 467.5986,303.2747 C468.679,306.2195 469.8271,309.3488 471.0304,312.6286 C473.437,319.188 476.0641,326.3488 478.8113,333.8369 C489.8,363.7894 500.643,393.3467 509.043,416.2367 " fill="none" id="Browse-to-Closed" style="stroke:#181818;stroke-width:1.0;"/><polygon fill="#181818" points="511.11,421.8694,511.7646,412.0423,509.3875,417.1755,504.2543,414.7984,511.11,421.8694" style="stroke:#181818;stroke-width:1.0;"/><text fill="#000000" font-family="sans-serif" font-size="13" lengthAdjust="spacing" textLength="46.2427" x="491" y="367.1045">destruct</text></g><!--link Bound to GMN15--><g id="link_Bound_GMN15"><path d="M124.74,424.4194 C210.49,385.8994 398.12,316.1394 550.5,361.6094 C587.1,372.5294 622.97,397.3594 647.81,417.4594 " fill="none" id="Bound-GMN15" style="stroke:#181818;stroke-width:1.0;stroke-dasharray:7.0,7.0;"/></g><!--link Created to GMN18--><g id="link_Created_GMN18"><path d="M159.01,250.8794 C160.62,214.3294 169.9,148.3294 214.5,123.6094 C261.54,97.5394 406.92,102.7794 456.5,123.6094 C511.71,146.7994 556.76,201.4194 582.49,238.5894 " fill="none" id="Created-GMN18" style="stroke:#181818;stroke-width:1.0;stroke-dasharray:7.0,7.0;"/></g><!--SRC=[lPHRRzD048NV_Ij6pGiLf4fIGY54aSY5fq8gGBo4obfxn_QgzgwrkqwuzRyp7jkDIIiUyKlsyldCsRFZUELpXFdS-MAnWDKDwYMAOYEL_whm03TM5SB-WCzUU8GF8iwKnY1mTqgNmee276_y2e2UfOZlKcigBLScDtO-ZwmvE2HTW05U9fD4Dfon4krZfdu6u-chQJnYxhtH_ccAk95yUIN6JzVrQ0kbHKxy05ydKtppk6wFORq9NidBoMdT4whs5qrnCWhk-nbaGfg3qYaa8dSOU5E2Dn0Pxqq1KbcClJAQOkEmpagBOMoHncSW76MCAvx1yPmTkkGvOysmnxIfjsGZA1bjv6HVhqUMkT1XLCVLwDQZFifi9p6aa-dXegLcO7HObPAsdeNdRQZrnh0g_mKzg5cLPfx8Re5PftuI-GB2ys-QfjAA0mye9meOwLTfJ_7oOgBoTcKNDj7-hi4zTUij0tbKKUuaGyQfFkoCBJEXR_jkEnizm__9n7rtit5kN7TTF8H-jmN1iIk6PFGucy6nVK9gEghGPzlh-YlV1WxQ1df0cgepaEYyhM8V1DgG16S39cd2uTGovRn9wrRdjgcRksuYaAJ0G26yLT_XEJHAbSNTw1OifjJsRvcWjyiCCZhj6AWp13Yq2jr5WAHNrpsjtfw0NzxgwoNdkIRhe1oiDwlhTvysQw2OcVYu_KBdIEZFIO8WnNgkDFYizOVEYHJ9Pta1MxuAmkESFb_-Cck6OYLFUnBOeurelUYP-mC0]--></g></svg>