<svg xmlns="http://www.w3.org/2000/svg" xmlns:xlink="http://www.w3.org/1999/xlink" contentStyleType="text/css" height="1639px" preserveAspectRatio="none" style="width:2161px;height:1639px;background:#FFFFFF;" version="1.1" viewBox="0 0 2161 1639" width="2161px" zoomAndPan="magnify"><title>&lt;&lt;act&gt;&gt; CDRRRenderer Compute Pipeline (ComputeDRR)</title><defs/><g><!--bg-injected--><rect x=\"0\" y=\"0\" width=\"100%\" height=\"100%\" fill=\"#FFFFFF\"/><text fill="#000000" font-family="sans-serif" font-size="14" font-weight="bold" lengthAdjust="spacing" textLength="367.9375" x="895.1576" y="34.5332">&#171;act&#187; CDRRRenderer Compute Pipeline (ComputeDRR)</text><rect fill="none" height="22.6406" style="stroke:none;stroke-width:1.0;" width="2128.2527" x="15" y="51.0645"/><ellipse cx="137.0771" cy="88.7051" fill="#222222" rx="10" ry="10" style="stroke:#222222;stroke-width:1.0;"/><rect fill="#E3F2FD" height="35.0938" rx="12.5" ry="12.5" style="stroke:#1565C0;stroke-width:0.5;" width="136.0625" x="69.0459" y="118.7051"/><text fill="#0D47A1" font-family="sans-serif" font-size="12" lengthAdjust="spacing" textLength="116.0625" x="79.0459" y="141.1621">read state.for_volume</text><rect fill="#E3F2FD" height="35.0938" rx="12.5" ry="12.5" style="stroke:#1565C0;stroke-width:0.5;" width="50.6914" x="111.7314" y="222.7168"/><text fill="#0D47A1" font-family="sans-serif" font-size="12" lengthAdjust="spacing" textLength="30.6914" x="121.7314" y="245.1738">no-op</text><ellipse cx="137.0771" cy="298.3574" fill="none" rx="11" ry="11" style="stroke:#222222;stroke-width:1.0;"/><ellipse cx="137.0771" cy="298.3574" fill="#222222" rx="6" ry="6" style="stroke:#222222;stroke-width:1.0;"/><polygon fill="#FFF3E0" points="83.5676,173.7988,190.5867,173.7988,202.5867,185.7988,190.5867,197.7988,83.5676,197.7988,71.5676,185.7988,83.5676,173.7988" style="stroke:#E65100;stroke-width:0.5;"/><text fill="#000000" font-family="sans-serif" font-size="11" lengthAdjust="spacing" textLength="17.1177" x="141.0771" y="209.2178">yes</text><text fill="#0D47A1" font-family="sans-serif" font-size="11" lengthAdjust="spacing" textLength="107.019" x="83.5676" y="190.2998">for_volume == none ?</text><line style="stroke:#000000;stroke-width:1.5;" x1="15" x2="15" y1="51.0645" y2="1627.9824"/><rect fill="#E3F2FD" height="35.0938" rx="12.5" ry="12.5" style="stroke:#1565C0;stroke-width:0.5;" width="289.4258" x="279.0481" y="351.3574"/><text fill="#0D47A1" font-family="sans-serif" font-size="12" lengthAdjust="spacing" textLength="269.4258" x="289.0481" y="373.8145">gluProject 8 volume corners (W,H,D combinations)</text><rect fill="#E3F2FD" height="50.1875" rx="12.5" ry="12.5" style="stroke:#1565C0;stroke-width:0.5;" width="211.0742" x="318.2239" y="406.4512"/><rect fill="#0D47A1" height="3.5" style="stroke:#0D47A1;stroke-width:0.0;" width="3.5" x="337.2239" y="421.5449"/><text fill="#0D47A1" font-family="sans-serif" font-size="12" lengthAdjust="spacing" textLength="165.0645" x="344.2239" y="428.9082">z_min = min over all 8 z-values</text><text fill="#0D47A1" font-family="sans-serif" font-size="12" lengthAdjust="spacing" textLength="181.0723" x="338.2258" y="444.002">z_max = max over all 8 z-values**</text><line style="stroke:#000000;stroke-width:1.5;" x1="261.676" x2="261.676" y1="51.0645" y2="1627.9824"/><rect fill="#E3F2FD" height="35.0938" rx="12.5" ry="12.5" style="stroke:#1565C0;stroke-width:0.5;" width="241.0625" x="667.8577" y="476.6387"/><text fill="#0D47A1" font-family="sans-serif" font-size="12" lengthAdjust="spacing" textLength="221.0625" x="677.8577" y="499.0957">gluUnProject (start, start, z_min) -&gt; vStart</text><rect fill="#E3F2FD" height="35.0938" rx="12.5" ry="12.5" style="stroke:#1565C0;stroke-width:0.5;" width="276.418" x="650.1799" y="531.7324"/><text fill="#0D47A1" font-family="sans-serif" font-size="12" lengthAdjust="spacing" textLength="256.418" x="660.1799" y="554.1895">gluUnProject (step,  start, z_min) -&gt; vStartNextX</text><rect fill="#E3F2FD" height="35.0938" rx="12.5" ry="12.5" style="stroke:#1565C0;stroke-width:0.5;" width="276.418" x="650.1799" y="586.8262"/><text fill="#0D47A1" font-family="sans-serif" font-size="12" lengthAdjust="spacing" textLength="256.418" x="660.1799" y="609.2832">gluUnProject (start, step,  z_min) -&gt; vStartNextY</text><rect fill="#E3F2FD" height="50.1875" rx="12.5" ry="12.5" style="stroke:#1565C0;stroke-width:0.5;" width="213.7344" x="681.5217" y="641.9199"/><text fill="#0D47A1" font-family="sans-serif" font-size="12" lengthAdjust="spacing" textLength="183.7324" x="691.5217" y="664.377">vStartStepX = vStartNextX - vStart</text><text fill="#0D47A1" font-family="sans-serif" font-size="12" lengthAdjust="spacing" textLength="183.7324" x="701.5237" y="679.4707">vStartStepY = vStartNextY - vStart</text><rect fill="#E3F2FD" height="35.0938" rx="12.5" ry="12.5" style="stroke:#1565C0;stroke-width:0.5;" width="340.4844" x="618.1467" y="712.1074"/><text fill="#0D47A1" font-family="sans-serif" font-size="12" lengthAdjust="spacing" textLength="320.4844" x="628.1467" y="734.5645">gluUnProject (... z_max ...) -&gt; vEnd, vEndStepX, vEndStepY</text><rect fill="#E3F2FD" height="35.0938" rx="12.5" ry="12.5" style="stroke:#1565C0;stroke-width:0.5;" width="397.0859" x="589.8459" y="767.2012"/><text fill="#0D47A1" font-family="sans-serif" font-size="12" font-weight="bold" lengthAdjust="spacing" textLength="377.0859" x="599.8459" y="789.6582">CREATE_INT_VECTOR (16.16 fixed-point + 32768 sub-pixel offset)</text><line style="stroke:#000000;stroke-width:1.5;" x1="583.8459" x2="583.8459" y1="51.0645" y2="1627.9824"/><rect fill="#E3F2FD" height="80.375" rx="12.5" ry="12.5" style="stroke:#1565C0;stroke-width:0.5;" width="241.4492" x="1086.1458" y="866.2949"/><text fill="#0D47A1" font-family="sans-serif" font-size="12" lengthAdjust="spacing" textLength="94.043" x="1096.1458" y="888.752">for each (nY, nX):</text><text fill="#0D47A1" font-family="sans-serif" font-size="12" lengthAdjust="spacing" textLength="185.748" x="1106.1477" y="903.8457">viStep = (viEnd - viStart) &gt;&gt; n_shift</text><text fill="#0D47A1" font-family="sans-serif" font-size="12" lengthAdjust="spacing" textLength="18.0059" x="1106.1477" y="918.9395">call</text><text fill="#0D47A1" font-family="sans-serif" font-size="12" font-weight="bold" lengthAdjust="spacing" textLength="190.1074" x="1127.4875" y="918.9395">clip_raster_pipeline.clip_all_axes</text><text fill="#0D47A1" font-family="sans-serif" font-size="12" lengthAdjust="spacing" textLength="176.0742" x="1112.8157" y="934.0332">to clip ray to volume box (3 axes)</text><polygon fill="#FFF3E0" points="1163.4558,966.6699,1250.2849,966.6699,1262.2849,978.6699,1250.2849,990.6699,1163.4558,990.6699,1151.4558,978.6699,1163.4558,966.6699" style="stroke:#E65100;stroke-width:0.5;"/><text fill="#0D47A1" font-family="sans-serif" font-size="11" lengthAdjust="spacing" textLength="86.8291" x="1163.4558" y="983.1709">clip_all_axes ok ?</text><text fill="#000000" font-family="sans-serif" font-size="11" lengthAdjust="spacing" textLength="17.1177" x="1134.3381" y="976.2529">yes</text><text fill="#000000" font-family="sans-serif" font-size="11" lengthAdjust="spacing" textLength="12.2354" x="1262.2849" y="976.2529">no</text><rect fill="#E3F2FD" height="50.1875" rx="12.5" ry="12.5" style="stroke:#1565C0;stroke-width:0.5;" width="223.4492" x="996.9319" y="1000.6699"/><text fill="#0D47A1" font-family="sans-serif" font-size="12" lengthAdjust="spacing" textLength="203.4492" x="1006.9319" y="1023.127">accumulate voxel values along the ray</text><text fill="#0D47A1" font-family="sans-serif" font-size="12" lengthAdjust="spacing" textLength="141.416" x="1016.9338" y="1038.2207">(n_steps integer additions)</text><rect fill="#E3F2FD" height="35.0938" rx="12.5" ry="12.5" style="stroke:#1565C0;stroke-width:0.5;" width="211.7246" x="1002.7942" y="1070.8574"/><text fill="#0D47A1" font-family="sans-serif" font-size="12" lengthAdjust="spacing" textLength="191.7246" x="1012.7942" y="1093.3145">write m_arrPixels[nPixelAt] = accum</text><rect fill="#E3F2FD" height="35.0938" rx="12.5" ry="12.5" style="stroke:#1565C0;stroke-width:0.5;" width="129.4063" x="1240.3811" y="1000.6699"/><text fill="#0D47A1" font-family="sans-serif" font-size="12" lengthAdjust="spacing" textLength="109.4063" x="1250.3811" y="1023.127">leave pixel at default</text><polygon fill="#FFF3E0" points="1206.8704,1111.9512,1218.8704,1123.9512,1206.8704,1135.9512,1194.8704,1123.9512,1206.8704,1111.9512" style="stroke:#E65100;stroke-width:0.5;"/><rect fill="#E3F2FD" height="35.0938" rx="12.5" ry="12.5" style="stroke:#1565C0;stroke-width:0.5;" width="297.4297" x="1058.1555" y="1155.9512"/><text fill="#0D47A1" font-family="sans-serif" font-size="12" lengthAdjust="spacing" textLength="277.4297" x="1068.1555" y="1178.4082">update n_max / n_min (#ifdef COMPUTE_MINMAX)</text><rect fill="#E3F2FD" height="50.1875" rx="12.5" ry="12.5" style="stroke:#1565C0;stroke-width:0.5;" width="192.7813" x="1110.4797" y="1211.0449"/><text fill="#0D47A1" font-family="sans-serif" font-size="12" lengthAdjust="spacing" textLength="167.4258" x="1120.4797" y="1233.502">advance viStart += vStartStepX</text><text fill="#0D47A1" font-family="sans-serif" font-size="12" lengthAdjust="spacing" textLength="162.7793" x="1130.4817" y="1248.5957">advance viEnd  += vEndStepX</text><polygon fill="#FFF3E0" points="1206.8704,822.2949,1218.8704,834.2949,1206.8704,846.2949,1194.8704,834.2949,1206.8704,822.2949" style="stroke:#E65100;stroke-width:0.5;"/><polygon fill="#FFF3E0" points="1159.4919,1281.2324,1254.2488,1281.2324,1266.2488,1293.2324,1254.2488,1305.2324,1159.4919,1305.2324,1147.4919,1293.2324,1159.4919,1281.2324" style="stroke:#E65100;stroke-width:0.5;"/><text fill="#0D47A1" font-family="sans-serif" font-size="11" lengthAdjust="spacing" textLength="94.7568" x="1159.4919" y="1297.7334">more pixels in row?</text><rect fill="#E3F2FD" height="50.1875" rx="12.5" ry="12.5" style="stroke:#1565C0;stroke-width:0.5;" width="192.7813" x="1110.4797" y="1325.2324"/><text fill="#0D47A1" font-family="sans-serif" font-size="12" lengthAdjust="spacing" textLength="167.4258" x="1120.4797" y="1347.6895">advance viStart += vStartStepY</text><text fill="#0D47A1" font-family="sans-serif" font-size="12" lengthAdjust="spacing" textLength="162.7793" x="1130.4817" y="1362.7832">advance viEnd  += vEndStepY</text><line style="stroke:#000000;stroke-width:1.5;" x1="990.9319" x2="990.9319" y1="51.0645" y2="1627.9824"/><rect fill="#E3F2FD" height="35.0938" rx="12.5" ry="12.5" style="stroke:#1565C0;stroke-width:0.5;" width="162.3945" x="1578.7112" y="1395.4199"/><text fill="#0D47A1" font-family="sans-serif" font-size="12" lengthAdjust="spacing" textLength="142.3945" x="1588.7112" y="1417.877">nWindow = n_max - n_min</text><rect fill="#E3F2FD" height="50.1875" rx="12.5" ry="12.5" style="stroke:#1565C0;stroke-width:0.5;" width="225.4531" x="1547.1819" y="1450.5137"/><text fill="#0D47A1" font-family="sans-serif" font-size="12" lengthAdjust="spacing" textLength="205.4531" x="1557.1819" y="1472.9707">for each pixel, window/level into 0..255</text><text fill="#0D47A1" font-family="sans-serif" font-size="12" lengthAdjust="spacing" textLength="149.4082" x="1567.1838" y="1488.0645">pack to RGBA tuple V V V 0</text><line style="stroke:#000000;stroke-width:1.5;" x1="1402.7874" x2="1402.7874" y1="51.0645" y2="1627.9824"/><rect fill="#E3F2FD" height="65.2813" rx="12.5" ry="12.5" style="stroke:#1565C0;stroke-width:0.5;" width="216.7227" x="1921.0295" y="1520.7012"/><text fill="#0D47A1" font-family="sans-serif" font-size="12" lengthAdjust="spacing" textLength="117.0645" x="1931.0295" y="1543.1582">state.win := computed</text><text fill="#0D47A1" font-family="sans-serif" font-size="12" lengthAdjust="spacing" textLength="128.4023" x="1941.0315" y="1558.252">state.recompute := false</text><text fill="#0D47A1" font-family="sans-serif" font-size="12" lengthAdjust="spacing" textLength="186.7207" x="1941.0315" y="1573.3457">m_arrPixels ready for glDrawPixels</text><ellipse cx="2029.3909" cy="1616.9824" fill="none" rx="11" ry="11" style="stroke:#222222;stroke-width:1.0;"/><ellipse cx="2029.3909" cy="1616.9824" fill="#222222" rx="6" ry="6" style="stroke:#222222;stroke-width:1.0;"/><line style="stroke:#000000;stroke-width:1.5;" x1="1915.0295" x2="1915.0295" y1="51.0645" y2="1627.9824"/><line style="stroke:#000000;stroke-width:1.5;" x1="2141.7522" x2="2141.7522" y1="51.0645" y2="1627.9824"/><line style="stroke:#181818;stroke-width:1.0;" x1="137.0771" x2="137.0771" y1="98.7051" y2="118.7051"/><polygon fill="#181818" points="133.0771,108.7051,137.0771,118.7051,141.0771,108.7051,137.0771,112.7051" style="stroke:#181818;stroke-width:1.0;"/><line style="stroke:#181818;stroke-width:1.0;" x1="137.0771" x2="137.0771" y1="257.8105" y2="287.3574"/><polygon fill="#181818" points="133.0771,277.3574,137.0771,287.3574,141.0771,277.3574,137.0771,281.3574" style="stroke:#181818;stroke-width:1.0;"/><line style="stroke:#181818;stroke-width:1.0;" x1="137.0771" x2="137.0771" y1="197.7988" y2="222.7168"/><polygon fill="#181818" points="133.0771,212.7168,137.0771,222.7168,141.0771,212.7168,137.0771,216.7168" style="stroke:#181818;stroke-width:1.0;"/><line style="stroke:#181818;stroke-width:1.0;" x1="202.5867" x2="423.761" y1="185.7988" y2="185.7988"/><polygon fill="#181818" points="419.761,267.8105,423.761,277.8105,427.761,267.8105,423.761,271.8105" style="stroke:#181818;stroke-width:1.0;"/><line style="stroke:#181818;stroke-width:1.0;" x1="423.761" x2="423.761" y1="185.7988" y2="351.3574"/><polygon fill="#181818" points="419.761,341.3574,423.761,351.3574,427.761,341.3574,423.761,345.3574" style="stroke:#181818;stroke-width:1.0;"/><line style="stroke:#181818;stroke-width:1.0;" x1="137.0771" x2="137.0771" y1="153.7988" y2="173.7988"/><polygon fill="#181818" points="133.0771,163.7988,137.0771,173.7988,141.0771,163.7988,137.0771,167.7988" style="stroke:#181818;stroke-width:1.0;"/><line style="stroke:#181818;stroke-width:1.0;" x1="423.761" x2="423.761" y1="386.4512" y2="406.4512"/><polygon fill="#181818" points="419.761,396.4512,423.761,406.4512,427.761,396.4512,423.761,400.4512" style="stroke:#181818;stroke-width:1.0;"/><line style="stroke:#181818;stroke-width:1.0;" x1="788.3889" x2="788.3889" y1="511.7324" y2="531.7324"/><polygon fill="#181818" points="784.3889,521.7324,788.3889,531.7324,792.3889,521.7324,788.3889,525.7324" style="stroke:#181818;stroke-width:1.0;"/><line style="stroke:#181818;stroke-width:1.0;" x1="788.3889" x2="788.3889" y1="566.8262" y2="586.8262"/><polygon fill="#181818" points="784.3889,576.8262,788.3889,586.8262,792.3889,576.8262,788.3889,580.8262" style="stroke:#181818;stroke-width:1.0;"/><line style="stroke:#181818;stroke-width:1.0;" x1="788.3889" x2="788.3889" y1="621.9199" y2="641.9199"/><polygon fill="#181818" points="784.3889,631.9199,788.3889,641.9199,792.3889,631.9199,788.3889,635.9199" style="stroke:#181818;stroke-width:1.0;"/><line style="stroke:#181818;stroke-width:1.0;" x1="788.3889" x2="788.3889" y1="692.1074" y2="712.1074"/><polygon fill="#181818" points="784.3889,702.1074,788.3889,712.1074,792.3889,702.1074,788.3889,706.1074" style="stroke:#181818;stroke-width:1.0;"/><line style="stroke:#181818;stroke-width:1.0;" x1="788.3889" x2="788.3889" y1="747.2012" y2="767.2012"/><polygon fill="#181818" points="784.3889,757.2012,788.3889,767.2012,792.3889,757.2012,788.3889,761.2012" style="stroke:#181818;stroke-width:1.0;"/><line style="stroke:#181818;stroke-width:1.0;" x1="1108.6565" x2="1108.6565" y1="1050.8574" y2="1070.8574"/><polygon fill="#181818" points="1104.6565,1060.8574,1108.6565,1070.8574,1112.6565,1060.8574,1108.6565,1064.8574" style="stroke:#181818;stroke-width:1.0;"/><line style="stroke:#181818;stroke-width:1.0;" x1="1151.4558" x2="1108.6565" y1="978.6699" y2="978.6699"/><line style="stroke:#181818;stroke-width:1.0;" x1="1108.6565" x2="1108.6565" y1="978.6699" y2="1000.6699"/><polygon fill="#181818" points="1104.6565,990.6699,1108.6565,1000.6699,1112.6565,990.6699,1108.6565,994.6699" style="stroke:#181818;stroke-width:1.0;"/><line style="stroke:#181818;stroke-width:1.0;" x1="1262.2849" x2="1305.0842" y1="978.6699" y2="978.6699"/><line style="stroke:#181818;stroke-width:1.0;" x1="1305.0842" x2="1305.0842" y1="978.6699" y2="1000.6699"/><polygon fill="#181818" points="1301.0842,990.6699,1305.0842,1000.6699,1309.0842,990.6699,1305.0842,994.6699" style="stroke:#181818;stroke-width:1.0;"/><line style="stroke:#181818;stroke-width:1.0;" x1="1108.6565" x2="1108.6565" y1="1105.9512" y2="1123.9512"/><line style="stroke:#181818;stroke-width:1.0;" x1="1108.6565" x2="1194.8704" y1="1123.9512" y2="1123.9512"/><polygon fill="#181818" points="1184.8704,1119.9512,1194.8704,1123.9512,1184.8704,1127.9512,1188.8704,1123.9512" style="stroke:#181818;stroke-width:1.0;"/><line style="stroke:#181818;stroke-width:1.0;" x1="1305.0842" x2="1305.0842" y1="1035.7637" y2="1123.9512"/><line style="stroke:#181818;stroke-width:1.0;" x1="1305.0842" x2="1218.8704" y1="1123.9512" y2="1123.9512"/><polygon fill="#181818" points="1228.8704,1119.9512,1218.8704,1123.9512,1228.8704,1127.9512,1224.8704,1123.9512" style="stroke:#181818;stroke-width:1.0;"/><line style="stroke:#181818;stroke-width:1.0;" x1="1206.8704" x2="1206.8704" y1="946.6699" y2="966.6699"/><polygon fill="#181818" points="1202.8704,956.6699,1206.8704,966.6699,1210.8704,956.6699,1206.8704,960.6699" style="stroke:#181818;stroke-width:1.0;"/><line style="stroke:#181818;stroke-width:1.0;" x1="1206.8704" x2="1206.8704" y1="1135.9512" y2="1155.9512"/><polygon fill="#181818" points="1202.8704,1145.9512,1206.8704,1155.9512,1210.8704,1145.9512,1206.8704,1149.9512" style="stroke:#181818;stroke-width:1.0;"/><line style="stroke:#181818;stroke-width:1.0;" x1="1206.8704" x2="1206.8704" y1="1191.0449" y2="1211.0449"/><polygon fill="#181818" points="1202.8704,1201.0449,1206.8704,1211.0449,1210.8704,1201.0449,1206.8704,1205.0449" style="stroke:#181818;stroke-width:1.0;"/><line style="stroke:#181818;stroke-width:1.0;" x1="1206.8704" x2="1206.8704" y1="846.2949" y2="866.2949"/><polygon fill="#181818" points="1202.8704,856.2949,1206.8704,866.2949,1210.8704,856.2949,1206.8704,860.2949" style="stroke:#181818;stroke-width:1.0;"/><line style="stroke:#181818;stroke-width:1.0;" x1="1266.2488" x2="1383.7874" y1="1293.2324" y2="1293.2324"/><polygon fill="#181818" points="1379.7874,1073.7637,1383.7874,1063.7637,1387.7874,1073.7637,1383.7874,1069.7637" style="stroke:#181818;stroke-width:1.0;"/><line style="stroke:#181818;stroke-width:1.0;" x1="1383.7874" x2="1383.7874" y1="834.2949" y2="1293.2324"/><line style="stroke:#181818;stroke-width:1.0;" x1="1383.7874" x2="1218.8704" y1="834.2949" y2="834.2949"/><polygon fill="#181818" points="1228.8704,830.2949,1218.8704,834.2949,1228.8704,838.2949,1224.8704,834.2949" style="stroke:#181818;stroke-width:1.0;"/><line style="stroke:#181818;stroke-width:1.0;" x1="1206.8704" x2="1206.8704" y1="1261.2324" y2="1281.2324"/><polygon fill="#181818" points="1202.8704,1271.2324,1206.8704,1281.2324,1210.8704,1271.2324,1206.8704,1275.2324" style="stroke:#181818;stroke-width:1.0;"/><line style="stroke:#181818;stroke-width:1.0;" x1="1206.8704" x2="1206.8704" y1="1305.2324" y2="1325.2324"/><polygon fill="#181818" points="1202.8704,1315.2324,1206.8704,1325.2324,1210.8704,1315.2324,1206.8704,1319.2324" style="stroke:#181818;stroke-width:1.0;"/><line style="stroke:#181818;stroke-width:1.0;" x1="1659.9084" x2="1659.9084" y1="1430.5137" y2="1450.5137"/><polygon fill="#181818" points="1655.9084,1440.5137,1659.9084,1450.5137,1663.9084,1440.5137,1659.9084,1444.5137" style="stroke:#181818;stroke-width:1.0;"/><line style="stroke:#181818;stroke-width:1.0;" x1="2029.3909" x2="2029.3909" y1="1585.9824" y2="1605.9824"/><polygon fill="#181818" points="2025.3909,1595.9824,2029.3909,1605.9824,2033.3909,1595.9824,2029.3909,1599.9824" style="stroke:#181818;stroke-width:1.0;"/><line style="stroke:#181818;stroke-width:1.0;" x1="423.761" x2="423.761" y1="456.6387" y2="461.6387"/><line style="stroke:#181818;stroke-width:1.0;" x1="423.761" x2="788.3889" y1="461.6387" y2="461.6387"/><line style="stroke:#181818;stroke-width:1.0;" x1="788.3889" x2="788.3889" y1="461.6387" y2="476.6387"/><polygon fill="#181818" points="784.3889,466.6387,788.3889,476.6387,792.3889,466.6387,788.3889,470.6387" style="stroke:#181818;stroke-width:1.0;"/><line style="stroke:#181818;stroke-width:1.0;" x1="788.3889" x2="788.3889" y1="802.2949" y2="807.2949"/><line style="stroke:#181818;stroke-width:1.0;" x1="788.3889" x2="1206.8704" y1="807.2949" y2="807.2949"/><line style="stroke:#181818;stroke-width:1.0;" x1="1206.8704" x2="1206.8704" y1="807.2949" y2="822.2949"/><polygon fill="#181818" points="1202.8704,812.2949,1206.8704,822.2949,1210.8704,812.2949,1206.8704,816.2949" style="stroke:#181818;stroke-width:1.0;"/><line style="stroke:#181818;stroke-width:1.0;" x1="1206.8704" x2="1206.8704" y1="1375.4199" y2="1380.4199"/><line style="stroke:#181818;stroke-width:1.0;" x1="1206.8704" x2="1659.9084" y1="1380.4199" y2="1380.4199"/><line style="stroke:#181818;stroke-width:1.0;" x1="1659.9084" x2="1659.9084" y1="1380.4199" y2="1395.4199"/><polygon fill="#181818" points="1655.9084,1385.4199,1659.9084,1395.4199,1663.9084,1385.4199,1659.9084,1389.4199" style="stroke:#181818;stroke-width:1.0;"/><line style="stroke:#181818;stroke-width:1.0;" x1="1659.9084" x2="1659.9084" y1="1500.7012" y2="1505.7012"/><line style="stroke:#181818;stroke-width:1.0;" x1="1659.9084" x2="2029.3909" y1="1505.7012" y2="1505.7012"/><line style="stroke:#181818;stroke-width:1.0;" x1="2029.3909" x2="2029.3909" y1="1505.7012" y2="1520.7012"/><polygon fill="#181818" points="2025.3909,1510.7012,2029.3909,1520.7012,2033.3909,1510.7012,2029.3909,1514.7012" style="stroke:#181818;stroke-width:1.0;"/><text fill="#000000" font-family="sans-serif" font-size="18" lengthAdjust="spacing" textLength="250.1543" x="13.2609" y="69.75">Phase 1: edit_ops.compute_drr</text><text fill="#000000" font-family="sans-serif" font-size="18" lengthAdjust="spacing" textLength="312.1699" x="266.676" y="69.75">Phase 2: project corners (cpp:266-294)</text><text fill="#000000" font-family="sans-serif" font-size="18" lengthAdjust="spacing" textLength="336.208" x="619.2849" y="69.75">Phase 3: unproject anchors (cpp:298-349)</text><text fill="#000000" font-family="sans-serif" font-size="18" lengthAdjust="spacing" textLength="273.1377" x="1060.2908" y="69.75">Phase 4: ray march (cpp:367-430)</text><text fill="#000000" font-family="sans-serif" font-size="18" lengthAdjust="spacing" textLength="502.2422" x="1407.7874" y="69.75">Phase 5: post-process (cpp:432-455, #ifdef POST_PROCESS)</text><text fill="#000000" font-family="sans-serif" font-size="18" lengthAdjust="spacing" textLength="54.0352" x="2001.3733" y="69.75">Output</text><!--SRC=[VLLhJ-Cu5FsUNt4bFapIQJ9z0-d0Y6cPtP4MgDeEGxLQHIPnMY-97JbEIaVy-BrsqWTB1ueInpxNz_W-ZZ_0R9FV_0LNeM8bKniOCxAK9BK-m4YaMQ4eP4IjrcJZGopalKYAbC9724bA9O6KACb2ceDx2TC_lbv1nfvf0al98W-tcAzO3lYlLXGQYI1H0qGCe_5qEgKyef9Ai9a2lPB3Q0wbG6kqu4e0WOux1fQI9NKyor9C9HG-VoQXkhnylSMMw8HbD66SWbtF8CYnhFo9yOpWcO3KX_nAmgUb50MFHY8H4aveD-x4qJ6aaEYZGkc_atP_q0zRHv3V15Tx729RKU-Kj8yWCSAfuD4R4d4STsdh7OF_Sw63VhjrQ92lI2JMZ2yX9abEBUjbiY8vXROFD68g45dkXLLeWaZA5ojNH2hBbvH4W6D5FSnnK9ea3oqMWxt_XeiBu0AZ-yNH-UHWRsZkM9g9puKhig4Pvqfa5cQ6nJlt7HyoAVwbeO9GI4vb3dQOPNvdC70xvptdnVANIJ6f8MTG-zjXVpR_R8xnCtrad2WcUEuCBR_H-1MaZCC5wASeiH18ag3vBxSaIK5pJGSXv5b3y7a4qcWCTooxFXHyovFmS2LsFC_Ft6xllERvWs-PsYPyJQXVXewZEw6SwPdXMpZDcl0x-2rzLW_3txemfiTi5cXJVSqGz827FTWFtFfB1sEFMhn2BNQeD-uzpwjZYAFAyJMFckPftEs72vEJqVJwQduTVB-T1_VNe_dT5Epsm6iF84PXYDnCO6-ZV7GxfuCpo8j7jn8C4SSvLSvXFde-IBB1pCbmLUMXEpXrUzqMva7IZ19LrHvMA52YCNpH1FxW-5RTWYNJlF2eTicGf3ubCyTq02M41_cAnMeB3dLbD1fXmh904eot3B9QJpmpYUi1UTOripK1G9dIQuOeZkl2VHJFO7T1WvsgANGdlTe4nDEHFZBd8M5Of4M2pLZ98LIbYfKhiB6ragAtFGN0SmUwF8niqgMkyGYRlMwJtRPhoN37D21IJdJ8yx-vUL-fVp12ncc5nYLKK2uEA2MKbBIMTg8WeZ4f4bN3JQiRM955cZKtzV99lx4nxHCMem6CxcucFx0oRhxVtbmzrCny4fNOQdIR6FXuSL2b3ri6UvHEem5jwszOrmAiLmpl1piLicQgum5IhByurljk5jQxBXRxakoZa8bSkQWIUEVLwj3hTjnUlz-4-g2Jkzayc4plHjUpcPOC_fDnL6KCSXKOjmeCTikkSWtV9gmDy5D2IuopkGDRdjVfzpM_36yBNMBcabL5XcUzDx-MfdTNA1HrT5Q9E6u4_WNKKXzPHfRrWgJrd5wkxWXSEoWAq5V1Hj_qi4p6agohwQ6bPVq_]--></g></svg>