<svg xmlns="http://www.w3.org/2000/svg" xmlns:xlink="http://www.w3.org/1999/xlink" contentStyleType="text/css" height="1600px" preserveAspectRatio="none" style="width:2765px;height:1600px;background:#FFFFFF;" version="1.1" viewBox="0 0 2765 1600" width="2765px" zoomAndPan="magnify"><title>&lt;&lt;act&gt;&gt; CDRRRenderer DrawScene Pipeline</title><defs/><g><!--bg-injected--><rect x=\"0\" y=\"0\" width=\"100%\" height=\"100%\" fill=\"#FFFFFF\"/><text fill="#000000" font-family="sans-serif" font-size="14" font-weight="bold" lengthAdjust="spacing" textLength="278.5508" x="1241.8474" y="34.5332">&#171;act&#187; CDRRRenderer DrawScene Pipeline</text><rect fill="none" height="22.6406" style="stroke:none;stroke-width:1.0;" width="2732.2456" x="15" y="51.0645"/><ellipse cx="204.7688" cy="88.7051" fill="#222222" rx="10" ry="10" style="stroke:#222222;stroke-width:1.0;"/><polygon fill="#FFF3E0" points="161.9692,118.7051,247.5684,118.7051,259.5684,130.7051,247.5684,142.7051,161.9692,142.7051,149.9692,130.7051,161.9692,118.7051" style="stroke:#E65100;stroke-width:0.5;"/><text fill="#0D47A1" font-family="sans-serif" font-size="11" lengthAdjust="spacing" textLength="85.5991" x="161.9692" y="135.2061">isEnabled.Get() ?</text><text fill="#000000" font-family="sans-serif" font-size="11" lengthAdjust="spacing" textLength="17.1177" x="132.8516" y="128.2881">yes</text><text fill="#000000" font-family="sans-serif" font-size="11" lengthAdjust="spacing" textLength="12.2354" x="259.5684" y="128.2881">no</text><polygon fill="#FFF3E0" points="75.6846,152.7051,179.3359,152.7051,191.3359,164.7051,179.3359,176.7051,75.6846,176.7051,63.6846,164.7051,75.6846,152.7051" style="stroke:#E65100;stroke-width:0.5;"/><text fill="#0D47A1" font-family="sans-serif" font-size="11" lengthAdjust="spacing" textLength="103.6514" x="75.6846" y="169.2061">for_volume != none ?</text><text fill="#000000" font-family="sans-serif" font-size="11" lengthAdjust="spacing" textLength="17.1177" x="46.5669" y="162.2881">yes</text><text fill="#000000" font-family="sans-serif" font-size="11" lengthAdjust="spacing" textLength="12.2354" x="191.3359" y="162.2881">no</text><rect fill="#E3F2FD" height="35.0938" rx="12.5" ry="12.5" style="stroke:#1565C0;stroke-width:0.5;" width="65.3691" x="21" y="186.7051"/><text fill="#0D47A1" font-family="sans-serif" font-size="12" lengthAdjust="spacing" textLength="45.3691" x="31" y="209.1621">continue</text><rect fill="#E3F2FD" height="35.0938" rx="12.5" ry="12.5" style="stroke:#1565C0;stroke-width:0.5;" width="50.6914" x="175.9902" y="186.7051"/><text fill="#0D47A1" font-family="sans-serif" font-size="12" lengthAdjust="spacing" textLength="30.6914" x="185.9902" y="209.1621">no-op</text><ellipse cx="201.3359" cy="267.7988" fill="none" rx="11" ry="11" style="stroke:#222222;stroke-width:1.0;"/><ellipse cx="201.3359" cy="267.7988" fill="#222222" rx="6" ry="6" style="stroke:#222222;stroke-width:1.0;"/><rect fill="#E3F2FD" height="35.0938" rx="12.5" ry="12.5" style="stroke:#1565C0;stroke-width:0.5;" width="50.6914" x="256.6816" y="152.7051"/><text fill="#0D47A1" font-family="sans-serif" font-size="12" lengthAdjust="spacing" textLength="30.6914" x="266.6816" y="175.1621">no-op</text><ellipse cx="282.0273" cy="233.7988" fill="none" rx="11" ry="11" style="stroke:#222222;stroke-width:1.0;"/><ellipse cx="282.0273" cy="233.7988" fill="#222222" rx="6" ry="6" style="stroke:#222222;stroke-width:1.0;"/><line style="stroke:#000000;stroke-width:1.5;" x1="15" x2="15" y1="51.0645" y2="1588.4512"/><path d="M590.1895,347.7168 L590.1895,365.0684 L570.1895,369.0684 L590.1895,373.0684 L590.1895,390.4199 A0,0 0 0 0 590.1895,390.4199 L822.8901,390.4199 A0,0 0 0 0 822.8901,390.4199 L822.8901,357.7168 L812.8901,347.7168 L590.1895,347.7168 A0,0 0 0 0 590.1895,347.7168 " fill="#FEFFDD" style="stroke:#181818;stroke-width:0.5;"/><path d="M812.8901,347.7168 L812.8901,357.7168 L822.8901,357.7168 L812.8901,347.7168 " fill="#FEFFDD" style="stroke:#181818;stroke-width:0.5;"/><text fill="#000000" font-family="sans-serif" font-size="13" lengthAdjust="spacing" textLength="211.7007" x="596.1895" y="366.2119">Win32 thread mgmt -- not translated.</text><text fill="#000000" font-family="sans-serif" font-size="13" lengthAdjust="spacing" textLength="157.5107" x="596.1895" y="382.5635">kind: CWinThread methods</text><rect fill="#E3F2FD" height="35.0938" rx="12.5" ry="12.5" style="stroke:#1565C0;stroke-width:0.5;" width="252.8164" x="317.373" y="351.5215"/><text fill="#0D47A1" font-family="sans-serif" font-size="12" lengthAdjust="spacing" textLength="232.8164" x="327.373" y="373.9785">SuspendThread + delete + clear (boundary)</text><polygon fill="#FFF3E0" points="389.2109,298.7988,498.3516,298.7988,510.3516,310.7988,498.3516,322.7988,389.2109,322.7988,377.2109,310.7988,389.2109,298.7988" style="stroke:#E65100;stroke-width:0.5;"/><text fill="#000000" font-family="sans-serif" font-size="11" lengthAdjust="spacing" textLength="17.1177" x="447.7813" y="334.2178">yes</text><text fill="#0D47A1" font-family="sans-serif" font-size="11" lengthAdjust="spacing" textLength="109.1406" x="389.2109" y="315.2998">m_pThread != NULL ?</text><text fill="#000000" font-family="sans-serif" font-size="11" lengthAdjust="spacing" textLength="12.2354" x="510.3516" y="308.3818">no</text><polygon fill="#FFF3E0" points="443.7813,410.4199,455.7813,422.4199,443.7813,434.4199,431.7813,422.4199,443.7813,410.4199" style="stroke:#E65100;stroke-width:0.5;"/><line style="stroke:#000000;stroke-width:1.5;" x1="311.373" x2="311.373" y1="51.0645" y2="1588.4512"/><rect fill="#E3F2FD" height="65.2813" rx="12.5" ry="12.5" style="stroke:#1565C0;stroke-width:0.5;" width="265.7539" x="883.1001" y="503.3379"/><text fill="#0D47A1" font-family="sans-serif" font-size="12" lengthAdjust="spacing" textLength="245.7539" x="893.1001" y="525.7949">reset n_steps = RAY_TRACE_RESOLUTION,</text><text fill="#0D47A1" font-family="sans-serif" font-size="12" lengthAdjust="spacing" textLength="194.4199" x="896.4341" y="540.8887">n_shift = RAY_TRACE_RES_LOG2,</text><text fill="#0D47A1" font-family="sans-serif" font-size="12" lengthAdjust="spacing" textLength="72.3809" x="896.4341" y="555.9824">n_res_div = 4</text><rect fill="#E3F2FD" height="50.1875" rx="12.5" ry="12.5" style="stroke:#1565C0;stroke-width:0.5;" width="265.1387" x="883.4077" y="588.6191"/><text fill="#0D47A1" font-family="sans-serif" font-size="12" lengthAdjust="spacing" textLength="233.1094" x="893.4077" y="611.0762">derive image_width = rect.Width / n_res_div</text><text fill="#0D47A1" font-family="sans-serif" font-size="12" lengthAdjust="spacing" textLength="241.8047" x="896.7417" y="626.1699">derive image_height = rect.Height / n_res_div</text><rect fill="#E3F2FD" height="35.0938" rx="12.5" ry="12.5" style="stroke:#1565C0;stroke-width:0.5;" width="316.1035" x="857.9253" y="658.8066"/><text fill="#0D47A1" font-family="sans-serif" font-size="12" lengthAdjust="spacing" textLength="296.1035" x="867.9253" y="681.2637">glGetIntegerv(GL_VIEWPORT, m_viewport) (boundary)</text><rect fill="#E3F2FD" height="35.0938" rx="12.5" ry="12.5" style="stroke:#1565C0;stroke-width:0.5;" width="234.0723" x="898.9409" y="722.6309"/><text fill="#0D47A1" font-family="sans-serif" font-size="12" font-weight="bold" lengthAdjust="spacing" textLength="85.9863" x="908.9409" y="745.0879">ComputeDRR()</text><text fill="#0D47A1" font-family="sans-serif" font-size="12" lengthAdjust="spacing" textLength="124.752" x="998.2612" y="745.0879">(see act_data_pipeline)</text><rect fill="#E3F2FD" height="35.0938" rx="12.5" ry="12.5" style="stroke:#1565C0;stroke-width:0.5;" width="213.4297" x="909.2622" y="826.6426"/><text fill="#0D47A1" font-family="sans-serif" font-size="12" lengthAdjust="spacing" textLength="193.4297" x="919.2622" y="849.0996">AfxMessageBox warning (boundary)</text><polygon fill="#FFF3E0" points="986.0225,777.7246,1045.9316,777.7246,1057.9316,789.7246,1045.9316,801.7246,986.0225,801.7246,974.0225,789.7246,986.0225,777.7246" style="stroke:#E65100;stroke-width:0.5;"/><text fill="#000000" font-family="sans-serif" font-size="11" lengthAdjust="spacing" textLength="17.1177" x="1019.9771" y="813.1436">yes</text><text fill="#0D47A1" font-family="sans-serif" font-size="11" lengthAdjust="spacing" textLength="59.9092" x="986.0225" y="794.2256">bOverMax ?</text><text fill="#000000" font-family="sans-serif" font-size="11" lengthAdjust="spacing" textLength="12.2354" x="1057.9316" y="787.3076">no</text><polygon fill="#FFF3E0" points="1015.9771,881.7363,1027.9771,893.7363,1015.9771,905.7363,1003.9771,893.7363,1015.9771,881.7363" style="stroke:#E65100;stroke-width:0.5;"/><polygon fill="#FFF3E0" points="960.6494,454.4199,1071.3047,454.4199,1083.3047,466.4199,1071.3047,478.4199,960.6494,478.4199,948.6494,466.4199,960.6494,454.4199" style="stroke:#E65100;stroke-width:0.5;"/><text fill="#000000" font-family="sans-serif" font-size="11" lengthAdjust="spacing" textLength="17.1177" x="1019.9771" y="489.8389">yes</text><text fill="#0D47A1" font-family="sans-serif" font-size="11" lengthAdjust="spacing" textLength="110.6553" x="960.6494" y="470.9209">m_bRecomputeDRR ?</text><text fill="#000000" font-family="sans-serif" font-size="11" lengthAdjust="spacing" textLength="12.2354" x="1083.3047" y="464.0029">no</text><polygon fill="#FFF3E0" points="1015.9771,925.7363,1027.9771,937.7363,1015.9771,949.7363,1003.9771,937.7363,1015.9771,925.7363" style="stroke:#E65100;stroke-width:0.5;"/><line style="stroke:#000000;stroke-width:1.5;" x1="851.8901" x2="851.8901" y1="51.0645" y2="1588.4512"/><rect fill="#E3F2FD" height="35.0938" rx="12.5" ry="12.5" style="stroke:#1565C0;stroke-width:0.5;" width="283.0684" x="1219.6021" y="969.7363"/><text fill="#0D47A1" font-family="sans-serif" font-size="12" lengthAdjust="spacing" textLength="263.0684" x="1229.6021" y="992.1934">glMatrixMode(GL_PROJECTION) + glPushMatrix</text><rect fill="#E3F2FD" height="35.0938" rx="12.5" ry="12.5" style="stroke:#1565C0;stroke-width:0.5;" width="244.7949" x="1238.7388" y="1024.8301"/><text fill="#0D47A1" font-family="sans-serif" font-size="12" lengthAdjust="spacing" textLength="224.7949" x="1248.7388" y="1047.2871">gluOrtho2D, glLoadIdentity, glRasterPos3f</text><path d="M1533.2085,1076.1191 L1533.2085,1093.4707 L1513.2085,1097.4707 L1533.2085,1101.4707 L1533.2085,1118.8223 A0,0 0 0 0 1533.2085,1118.8223 L1801.1831,1118.8223 A0,0 0 0 0 1801.1831,1118.8223 L1801.1831,1086.1191 L1791.1831,1076.1191 L1533.2085,1076.1191 A0,0 0 0 0 1533.2085,1076.1191 " fill="#FEFFDD" style="stroke:#181818;stroke-width:0.5;"/><path d="M1791.1831,1076.1191 L1791.1831,1086.1191 L1801.1831,1086.1191 L1791.1831,1076.1191 " fill="#FEFFDD" style="stroke:#181818;stroke-width:0.5;"/><text fill="#000000" font-family="sans-serif" font-size="13" lengthAdjust="spacing" textLength="222.5234" x="1539.2085" y="1094.6143">glDrawPixels writes to the framebuffer.</text><text fill="#000000" font-family="sans-serif" font-size="13" lengthAdjust="spacing" textLength="246.9746" x="1539.2085" y="1110.9658">This is the "save" boundary; not translated.</text><rect fill="#E3F2FD" height="35.0938" rx="12.5" ry="12.5" style="stroke:#1565C0;stroke-width:0.5;" width="304.1445" x="1209.064" y="1079.9238"/><text fill="#0D47A1" font-family="sans-serif" font-size="12" font-weight="bold" lengthAdjust="spacing" textLength="150.7441" x="1219.064" y="1102.3809">glDrawPixels(m_arrPixels)</text><text fill="#0D47A1" font-family="sans-serif" font-size="12" lengthAdjust="spacing" textLength="130.0664" x="1373.1421" y="1102.3809">-- the durable side-effect</text><rect fill="#E3F2FD" height="35.0938" rx="12.5" ry="12.5" style="stroke:#1565C0;stroke-width:0.5;" width="273.0723" x="1224.6001" y="1138.8223"/><text fill="#0D47A1" font-family="sans-serif" font-size="12" lengthAdjust="spacing" textLength="253.0723" x="1234.6001" y="1161.2793">glPopMatrix + glMatrixMode(GL_MODELVIEW)</text><line style="stroke:#000000;stroke-width:1.5;" x1="1203.064" x2="1203.064" y1="51.0645" y2="1588.4512"/><rect fill="#E3F2FD" height="65.2813" rx="12.5" ry="12.5" style="stroke:#1565C0;stroke-width:0.5;" width="283.7656" x="1855.355" y="1242.834"/><text fill="#0D47A1" font-family="sans-serif" font-size="12" lengthAdjust="spacing" textLength="263.7656" x="1865.355" y="1265.291">reset n_steps = RAY_TRACE_RESOLUTION * 2,</text><text fill="#0D47A1" font-family="sans-serif" font-size="12" lengthAdjust="spacing" textLength="214.7695" x="1868.689" y="1280.3848">n_shift = RAY_TRACE_RES_LOG2 + 1,</text><text fill="#0D47A1" font-family="sans-serif" font-size="12" lengthAdjust="spacing" textLength="72.3809" x="1868.689" y="1295.4785">n_res_div = 1</text><rect fill="#E3F2FD" height="35.0938" rx="12.5" ry="12.5" style="stroke:#1565C0;stroke-width:0.5;" width="232.7539" x="1880.8608" y="1328.1152"/><text fill="#0D47A1" font-family="sans-serif" font-size="12" lengthAdjust="spacing" textLength="212.7539" x="1890.8608" y="1350.5723">recompute image dims, refetch viewport</text><path d="M2202.2925,1373.209 L2202.2925,1398.7363 L2182.2925,1402.7363 L2202.2925,1406.7363 L2202.2925,1432.2637 A0,0 0 0 0 2202.2925,1432.2637 L2447.3076,1432.2637 A0,0 0 0 0 2447.3076,1432.2637 L2447.3076,1383.209 L2437.3076,1373.209 L2202.2925,1373.209 A0,0 0 0 0 2202.2925,1373.209 " fill="#FEFFDD" style="stroke:#181818;stroke-width:0.5;"/><path d="M2437.3076,1373.209 L2437.3076,1383.209 L2447.3076,1383.209 L2437.3076,1373.209 " fill="#FEFFDD" style="stroke:#181818;stroke-width:0.5;"/><text fill="#000000" font-family="sans-serif" font-size="13" lengthAdjust="spacing" textLength="224.0151" x="2208.2925" y="1391.7041">Source has the spawn line commented</text><text fill="#000000" font-family="sans-serif" font-size="13" lengthAdjust="spacing" textLength="211.0469" x="2208.2925" y="1408.0557">out at cpp:539. State.thread_running</text><text fill="#000000" font-family="sans-serif" font-size="13" lengthAdjust="spacing" textLength="184.958" x="2208.2925" y="1424.4072">stays false. Preserved verbatim.</text><rect fill="#E3F2FD" height="35.0938" rx="12.5" ry="12.5" style="stroke:#1565C0;stroke-width:0.5;" width="370.1094" x="1812.1831" y="1385.1895"/><text fill="#0D47A1" font-family="sans-serif" font-size="12" font-weight="bold" lengthAdjust="spacing" textLength="97.3301" x="1822.1831" y="1407.6465">(commented out)</text><text fill="#0D47A1" font-family="sans-serif" font-size="12" lengthAdjust="spacing" textLength="249.4453" x="1922.8472" y="1407.6465">AfxBeginThread(BackgroundComputeDRR, ...)</text><polygon fill="#FFF3E0" points="1954.9001,1193.916,2039.5754,1193.916,2051.5754,1205.916,2039.5754,1217.916,1954.9001,1217.916,1942.9001,1205.916,1954.9001,1193.916" style="stroke:#E65100;stroke-width:0.5;"/><text fill="#000000" font-family="sans-serif" font-size="11" lengthAdjust="spacing" textLength="17.1177" x="2001.2378" y="1229.335">yes</text><text fill="#0D47A1" font-family="sans-serif" font-size="11" lengthAdjust="spacing" textLength="84.6753" x="1954.9001" y="1210.417">m_nResDiv &gt; 1 ?</text><text fill="#000000" font-family="sans-serif" font-size="11" lengthAdjust="spacing" textLength="12.2354" x="2051.5754" y="1203.499">no</text><polygon fill="#FFF3E0" points="1997.2378,1452.2637,2009.2378,1464.2637,1997.2378,1476.2637,1985.2378,1464.2637,1997.2378,1452.2637" style="stroke:#E65100;stroke-width:0.5;"/><line style="stroke:#000000;stroke-width:1.5;" x1="1806.1831" x2="1806.1831" y1="51.0645" y2="1588.4512"/><rect fill="#E3F2FD" height="50.1875" rx="12.5" ry="12.5" style="stroke:#1565C0;stroke-width:0.5;" width="259.4375" x="2482.3076" y="1496.2637"/><text fill="#0D47A1" font-family="sans-serif" font-size="12" lengthAdjust="spacing" textLength="108.0703" x="2492.3076" y="1518.7207">framebuffer updated</text><text fill="#0D47A1" font-family="sans-serif" font-size="12" lengthAdjust="spacing" textLength="229.4355" x="2502.3096" y="1533.8145">m_bRecomputeDRR cleared if recomputed</text><ellipse cx="2612.0264" cy="1577.4512" fill="none" rx="11" ry="11" style="stroke:#222222;stroke-width:1.0;"/><ellipse cx="2612.0264" cy="1577.4512" fill="#222222" rx="6" ry="6" style="stroke:#222222;stroke-width:1.0;"/><line style="stroke:#000000;stroke-width:1.5;" x1="2476.3076" x2="2476.3076" y1="51.0645" y2="1588.4512"/><line style="stroke:#000000;stroke-width:1.5;" x1="2745.7451" x2="2745.7451" y1="51.0645" y2="1588.4512"/><line style="stroke:#181818;stroke-width:1.0;" x1="201.3359" x2="201.3359" y1="221.7988" y2="256.7988"/><polygon fill="#181818" points="197.3359,246.7988,201.3359,256.7988,205.3359,246.7988,201.3359,250.7988" style="stroke:#181818;stroke-width:1.0;"/><line style="stroke:#181818;stroke-width:1.0;" x1="63.6846" x2="53.6846" y1="164.7051" y2="164.7051"/><line style="stroke:#181818;stroke-width:1.0;" x1="53.6846" x2="53.6846" y1="164.7051" y2="186.7051"/><polygon fill="#181818" points="49.6846,176.7051,53.6846,186.7051,57.6846,176.7051,53.6846,180.7051" style="stroke:#181818;stroke-width:1.0;"/><line style="stroke:#181818;stroke-width:1.0;" x1="191.3359" x2="201.3359" y1="164.7051" y2="164.7051"/><line style="stroke:#181818;stroke-width:1.0;" x1="201.3359" x2="201.3359" y1="164.7051" y2="186.7051"/><polygon fill="#181818" points="197.3359,176.7051,201.3359,186.7051,205.3359,176.7051,201.3359,180.7051" style="stroke:#181818;stroke-width:1.0;"/><line style="stroke:#181818;stroke-width:1.0;" x1="53.6846" x2="53.6846" y1="221.7988" y2="283.7988"/><line style="stroke:#181818;stroke-width:1.0;" x1="53.6846" x2="443.7813" y1="283.7988" y2="283.7988"/><line style="stroke:#181818;stroke-width:1.0;" x1="443.7813" x2="443.7813" y1="283.7988" y2="298.7988"/><polygon fill="#181818" points="439.7813,288.7988,443.7813,298.7988,447.7813,288.7988,443.7813,292.7988" style="stroke:#181818;stroke-width:1.0;"/><line style="stroke:#181818;stroke-width:1.0;" x1="282.0273" x2="282.0273" y1="187.7988" y2="222.7988"/><polygon fill="#181818" points="278.0273,212.7988,282.0273,222.7988,286.0273,212.7988,282.0273,216.7988" style="stroke:#181818;stroke-width:1.0;"/><line style="stroke:#181818;stroke-width:1.0;" x1="149.9692" x2="127.5103" y1="130.7051" y2="130.7051"/><line style="stroke:#181818;stroke-width:1.0;" x1="127.5103" x2="127.5103" y1="130.7051" y2="152.7051"/><polygon fill="#181818" points="123.5103,142.7051,127.5103,152.7051,131.5103,142.7051,127.5103,146.7051" style="stroke:#181818;stroke-width:1.0;"/><line style="stroke:#181818;stroke-width:1.0;" x1="259.5684" x2="282.0273" y1="130.7051" y2="130.7051"/><line style="stroke:#181818;stroke-width:1.0;" x1="282.0273" x2="282.0273" y1="130.7051" y2="152.7051"/><polygon fill="#181818" points="278.0273,142.7051,282.0273,152.7051,286.0273,142.7051,282.0273,146.7051" style="stroke:#181818;stroke-width:1.0;"/><line style="stroke:#181818;stroke-width:1.0;" x1="204.7688" x2="204.7688" y1="98.7051" y2="118.7051"/><polygon fill="#181818" points="200.7688,108.7051,204.7688,118.7051,208.7688,108.7051,204.7688,112.7051" style="stroke:#181818;stroke-width:1.0;"/><line style="stroke:#181818;stroke-width:1.0;" x1="443.7813" x2="443.7813" y1="322.7988" y2="351.5215"/><polygon fill="#181818" points="439.7813,341.5215,443.7813,351.5215,447.7813,341.5215,443.7813,345.5215" style="stroke:#181818;stroke-width:1.0;"/><line style="stroke:#181818;stroke-width:1.0;" x1="510.3516" x2="832.8901" y1="310.7988" y2="310.7988"/><polygon fill="#181818" points="828.8901,359.0684,832.8901,369.0684,836.8901,359.0684,832.8901,363.0684" style="stroke:#181818;stroke-width:1.0;"/><line style="stroke:#181818;stroke-width:1.0;" x1="832.8901" x2="832.8901" y1="310.7988" y2="422.4199"/><line style="stroke:#181818;stroke-width:1.0;" x1="832.8901" x2="455.7813" y1="422.4199" y2="422.4199"/><polygon fill="#181818" points="465.7813,418.4199,455.7813,422.4199,465.7813,426.4199,461.7813,422.4199" style="stroke:#181818;stroke-width:1.0;"/><line style="stroke:#181818;stroke-width:1.0;" x1="443.7813" x2="443.7813" y1="386.6152" y2="410.4199"/><polygon fill="#181818" points="439.7813,400.4199,443.7813,410.4199,447.7813,400.4199,443.7813,404.4199" style="stroke:#181818;stroke-width:1.0;"/><line style="stroke:#181818;stroke-width:1.0;" x1="1015.9771" x2="1015.9771" y1="568.6191" y2="588.6191"/><polygon fill="#181818" points="1011.9771,578.6191,1015.9771,588.6191,1019.9771,578.6191,1015.9771,582.6191" style="stroke:#181818;stroke-width:1.0;"/><line style="stroke:#181818;stroke-width:1.0;" x1="1015.9771" x2="1015.9771" y1="638.8066" y2="658.8066"/><polygon fill="#181818" points="1011.9771,648.8066,1015.9771,658.8066,1019.9771,648.8066,1015.9771,652.8066" style="stroke:#181818;stroke-width:1.0;"/><line style="stroke:#181818;stroke-width:1.0;" x1="1015.9771" x2="1015.9771" y1="693.9004" y2="722.6309"/><polygon fill="#181818" points="1011.9771,712.6309,1015.9771,722.6309,1019.9771,712.6309,1015.9771,716.6309" style="stroke:#181818;stroke-width:1.0;"/><line style="stroke:#181818;stroke-width:1.0;" x1="1015.9771" x2="1015.9771" y1="801.7246" y2="826.6426"/><polygon fill="#181818" points="1011.9771,816.6426,1015.9771,826.6426,1019.9771,816.6426,1015.9771,820.6426" style="stroke:#181818;stroke-width:1.0;"/><line style="stroke:#181818;stroke-width:1.0;" x1="1057.9316" x2="1132.6919" y1="789.7246" y2="789.7246"/><polygon fill="#181818" points="1128.6919,834.1895,1132.6919,844.1895,1136.6919,834.1895,1132.6919,838.1895" style="stroke:#181818;stroke-width:1.0;"/><line style="stroke:#181818;stroke-width:1.0;" x1="1132.6919" x2="1132.6919" y1="789.7246" y2="893.7363"/><line style="stroke:#181818;stroke-width:1.0;" x1="1132.6919" x2="1027.9771" y1="893.7363" y2="893.7363"/><polygon fill="#181818" points="1037.9771,889.7363,1027.9771,893.7363,1037.9771,897.7363,1033.9771,893.7363" style="stroke:#181818;stroke-width:1.0;"/><line style="stroke:#181818;stroke-width:1.0;" x1="1015.9771" x2="1015.9771" y1="861.7363" y2="881.7363"/><polygon fill="#181818" points="1011.9771,871.7363,1015.9771,881.7363,1019.9771,871.7363,1015.9771,875.7363" style="stroke:#181818;stroke-width:1.0;"/><line style="stroke:#181818;stroke-width:1.0;" x1="1015.9771" x2="1015.9771" y1="757.7246" y2="777.7246"/><polygon fill="#181818" points="1011.9771,767.7246,1015.9771,777.7246,1019.9771,767.7246,1015.9771,771.7246" style="stroke:#181818;stroke-width:1.0;"/><line style="stroke:#181818;stroke-width:1.0;" x1="1015.9771" x2="1015.9771" y1="478.4199" y2="503.3379"/><polygon fill="#181818" points="1011.9771,493.3379,1015.9771,503.3379,1019.9771,493.3379,1015.9771,497.3379" style="stroke:#181818;stroke-width:1.0;"/><line style="stroke:#181818;stroke-width:1.0;" x1="1083.3047" x2="1184.0288" y1="466.4199" y2="466.4199"/><polygon fill="#181818" points="1180.0288,692.6309,1184.0288,702.6309,1188.0288,692.6309,1184.0288,696.6309" style="stroke:#181818;stroke-width:1.0;"/><line style="stroke:#181818;stroke-width:1.0;" x1="1184.0288" x2="1184.0288" y1="466.4199" y2="937.7363"/><line style="stroke:#181818;stroke-width:1.0;" x1="1184.0288" x2="1027.9771" y1="937.7363" y2="937.7363"/><polygon fill="#181818" points="1037.9771,933.7363,1027.9771,937.7363,1037.9771,941.7363,1033.9771,937.7363" style="stroke:#181818;stroke-width:1.0;"/><line style="stroke:#181818;stroke-width:1.0;" x1="1015.9771" x2="1015.9771" y1="905.7363" y2="925.7363"/><polygon fill="#181818" points="1011.9771,915.7363,1015.9771,925.7363,1019.9771,915.7363,1015.9771,919.7363" style="stroke:#181818;stroke-width:1.0;"/><line style="stroke:#181818;stroke-width:1.0;" x1="1361.1362" x2="1361.1362" y1="1004.8301" y2="1024.8301"/><polygon fill="#181818" points="1357.1362,1014.8301,1361.1362,1024.8301,1365.1362,1014.8301,1361.1362,1018.8301" style="stroke:#181818;stroke-width:1.0;"/><line style="stroke:#181818;stroke-width:1.0;" x1="1361.1362" x2="1361.1362" y1="1059.9238" y2="1079.9238"/><polygon fill="#181818" points="1357.1362,1069.9238,1361.1362,1079.9238,1365.1362,1069.9238,1361.1362,1073.9238" style="stroke:#181818;stroke-width:1.0;"/><line style="stroke:#181818;stroke-width:1.0;" x1="1361.1362" x2="1361.1362" y1="1115.0176" y2="1138.8223"/><polygon fill="#181818" points="1357.1362,1128.8223,1361.1362,1138.8223,1365.1362,1128.8223,1361.1362,1132.8223" style="stroke:#181818;stroke-width:1.0;"/><line style="stroke:#181818;stroke-width:1.0;" x1="1997.2378" x2="1997.2378" y1="1308.1152" y2="1328.1152"/><polygon fill="#181818" points="1993.2378,1318.1152,1997.2378,1328.1152,2001.2378,1318.1152,1997.2378,1322.1152" style="stroke:#181818;stroke-width:1.0;"/><line style="stroke:#181818;stroke-width:1.0;" x1="1997.2378" x2="1997.2378" y1="1363.209" y2="1385.1895"/><polygon fill="#181818" points="1993.2378,1375.1895,1997.2378,1385.1895,2001.2378,1375.1895,1997.2378,1379.1895" style="stroke:#181818;stroke-width:1.0;"/><line style="stroke:#181818;stroke-width:1.0;" x1="1997.2378" x2="1997.2378" y1="1217.916" y2="1242.834"/><polygon fill="#181818" points="1993.2378,1232.834,1997.2378,1242.834,2001.2378,1232.834,1997.2378,1236.834" style="stroke:#181818;stroke-width:1.0;"/><line style="stroke:#181818;stroke-width:1.0;" x1="2051.5754" x2="2457.3076" y1="1205.916" y2="1205.916"/><polygon fill="#181818" points="2453.3076,1332.5488,2457.3076,1342.5488,2461.3076,1332.5488,2457.3076,1336.5488" style="stroke:#181818;stroke-width:1.0;"/><line style="stroke:#181818;stroke-width:1.0;" x1="2457.3076" x2="2457.3076" y1="1205.916" y2="1464.2637"/><line style="stroke:#181818;stroke-width:1.0;" x1="2457.3076" x2="2009.2378" y1="1464.2637" y2="1464.2637"/><polygon fill="#181818" points="2019.2378,1460.2637,2009.2378,1464.2637,2019.2378,1468.2637,2015.2378,1464.2637" style="stroke:#181818;stroke-width:1.0;"/><line style="stroke:#181818;stroke-width:1.0;" x1="1997.2378" x2="1997.2378" y1="1420.2832" y2="1452.2637"/><polygon fill="#181818" points="1993.2378,1442.2637,1997.2378,1452.2637,2001.2378,1442.2637,1997.2378,1446.2637" style="stroke:#181818;stroke-width:1.0;"/><line style="stroke:#181818;stroke-width:1.0;" x1="2612.0264" x2="2612.0264" y1="1546.4512" y2="1566.4512"/><polygon fill="#181818" points="2608.0264,1556.4512,2612.0264,1566.4512,2616.0264,1556.4512,2612.0264,1560.4512" style="stroke:#181818;stroke-width:1.0;"/><line style="stroke:#181818;stroke-width:1.0;" x1="443.7813" x2="443.7813" y1="434.4199" y2="439.4199"/><line style="stroke:#181818;stroke-width:1.0;" x1="443.7813" x2="1015.9771" y1="439.4199" y2="439.4199"/><line style="stroke:#181818;stroke-width:1.0;" x1="1015.9771" x2="1015.9771" y1="439.4199" y2="454.4199"/><polygon fill="#181818" points="1011.9771,444.4199,1015.9771,454.4199,1019.9771,444.4199,1015.9771,448.4199" style="stroke:#181818;stroke-width:1.0;"/><line style="stroke:#181818;stroke-width:1.0;" x1="1015.9771" x2="1015.9771" y1="949.7363" y2="954.7363"/><line style="stroke:#181818;stroke-width:1.0;" x1="1015.9771" x2="1361.1362" y1="954.7363" y2="954.7363"/><line style="stroke:#181818;stroke-width:1.0;" x1="1361.1362" x2="1361.1362" y1="954.7363" y2="969.7363"/><polygon fill="#181818" points="1357.1362,959.7363,1361.1362,969.7363,1365.1362,959.7363,1361.1362,963.7363" style="stroke:#181818;stroke-width:1.0;"/><line style="stroke:#181818;stroke-width:1.0;" x1="1361.1362" x2="1361.1362" y1="1173.916" y2="1178.916"/><line style="stroke:#181818;stroke-width:1.0;" x1="1361.1362" x2="1997.2378" y1="1178.916" y2="1178.916"/><line style="stroke:#181818;stroke-width:1.0;" x1="1997.2378" x2="1997.2378" y1="1178.916" y2="1193.916"/><polygon fill="#181818" points="1993.2378,1183.916,1997.2378,1193.916,2001.2378,1183.916,1997.2378,1187.916" style="stroke:#181818;stroke-width:1.0;"/><line style="stroke:#181818;stroke-width:1.0;" x1="1997.2378" x2="1997.2378" y1="1476.2637" y2="1481.2637"/><line style="stroke:#181818;stroke-width:1.0;" x1="1997.2378" x2="2612.0264" y1="1481.2637" y2="1481.2637"/><line style="stroke:#181818;stroke-width:1.0;" x1="2612.0264" x2="2612.0264" y1="1481.2637" y2="1496.2637"/><polygon fill="#181818" points="2608.0264,1486.2637,2612.0264,1496.2637,2616.0264,1486.2637,2612.0264,1490.2637" style="stroke:#181818;stroke-width:1.0;"/><text fill="#000000" font-family="sans-serif" font-size="18" lengthAdjust="spacing" textLength="246.1641" x="40.1045" y="69.75">Phase 1: edit_ops.draw_scene</text><text fill="#000000" font-family="sans-serif" font-size="18" lengthAdjust="spacing" textLength="354.2256" x="404.5188" y="69.75">Phase 2: thread management (cpp:468-473)</text><text fill="#000000" font-family="sans-serif" font-size="18" lengthAdjust="spacing" textLength="341.1738" x="856.8901" y="69.75">Phase 3: low-res recompute (cpp:478-495)</text><text fill="#000000" font-family="sans-serif" font-size="18" lengthAdjust="spacing" textLength="297.1934" x="1356.0269" y="69.75">Phase 4: GL boundary (cpp:498-525)</text><text fill="#000000" font-family="sans-serif" font-size="18" lengthAdjust="spacing" textLength="363.2168" x="1959.637" y="69.75">Phase 5: optional hi-res spawn (cpp:528-540)</text><text fill="#000000" font-family="sans-serif" font-size="18" lengthAdjust="spacing" textLength="54.0352" x="2584.0088" y="69.75">Output</text><!--SRC=[dLLTSzf657tdLzmw3n7K4FDbno99nmRYkWE10L9FdpHhzWhjHDhLxAx0pFZ7zww42DYuxLHFalRShtFlkViUvbip7i7Dqegri5iO2BRIBAcyXxCvM-CPfCn66xQ5K6de3sQp6KgE6hKFgtYWsMOgdZ0suDa8WMUQFSO8Hd2iOnZYqf8ZOS0TwiAGGqZ-yJ6ZOrrjm2AYdmuZ5QIeZJ0MfOLGnFXXS0l6AesDIiKAIuu_VM9B- -NBKIBWifWlKI9CHOgna5Yfc1z2fem20TjLTikMFrPQPPBtLKorlCDss0hvAQJIvBX0kUTTitlPNLwSG7vLqlx44VA2TwvOymIIQ4sKvA-I2CEmZHV_OF0o5xpiDYyE3Kp4kDe8kOAGnOPAVvv6p20qVK0kRA1Iq-34K60SHSyLOvcs5H629ynGkdRnnXrQhmg_LLsV97XRDDMAY-PGrFTWhU8iGVZbCpM9Q7uDT8-_93Q4pB2N_wAXGF2aEW18LLTfR_zDhKqBgEGYh1mR789pO04ggslvb896nY5XagqmSJFZBTFKxrn-h7UksjNdlCOaI1S5ZfB_zdqqEf6yFyzCIkvtm5-1OumMwMKP8zFWFRg6CRsj5kb8HOTQh2AxA-L1o7PhdyygiL2lEnHOpQI9cIMATr1g6_UXJnQxQ0dQI75Jyf0xFw3YkEgs3x7Qr3KQKjDI9Mb6cHHLNr7LrzrzrO-pyfoKSgfcye4MP41gImryXjdDNy5YTjCV1hFXV3BwlhYVV3ilaYPG94Bx4XIC9dUjFOJy1Loi2TGfMF9fRiMQb9rGUuADu3QYGqhRDXxoZmy_hGedHmOHEe9BYz-BhmEJNP1LJBDxBoskKA-zkr7mv_tmOJgPBSuX2TO2DwdIjlggXNwjrj_JurLhDV0CeXDVm9bbGRfR93kuu_HniaOzPazlJVzD-3H6OoZtM_K46wQbq-JBmCT3_dBmZxlTyU5k1AM3NP-lFzQxBTTdAdtCh1PFOyNHLJwTJVuOzbtVgZIwgtYQcQX0z1mucsYQjDRWd8v6Yl5xJfAXHUE-Pup6G4-LQOU4hTKEDpiD4zEwU7T4qMY_iUfxbIDb75qF6oqiJQrLkV713U24iOXe_UzkYJEJtpfbrRrNEjgBX6gQghIeC2_uc8xnP30SkMaWvaj6kpwer0ebMGoHo7LaKhQH1RVT5d7RkTXhICxG36Yalq3p_oe8Qj3w3ogYz9idbDJibP5AhUVQ02uISqx22D4k8oYdV3_P7g7TFgIhLcNMzOncynPNvSxn3c-XKWJdq6WqtbfmSvNf9G9ncFUeuCpf0_QXTaWA2Cn2JcVxkW5pIrrh5Ainq9bqegYKwvzjJN5fDM3gsDHhIfbKziYiI1h_jX8dcQNSIGW7qmHPojakcvTBC5_c582QkoUKzohkSlaR]--></g></svg>