<svg xmlns="http://www.w3.org/2000/svg" xmlns:xlink="http://www.w3.org/1999/xlink" contentStyleType="text/css" height="1313px" preserveAspectRatio="none" style="width:583px;height:1313px;background:#FFFFFF;" version="1.1" viewBox="0 0 583 1313" width="583px" zoomAndPan="magnify"><title>&lt;&lt;bdd&gt;&gt; CDRRRenderer state{} dict schema</title><defs/><g><!--bg-injected--><rect x=\"0\" y=\"0\" width=\"100%\" height=\"100%\" fill=\"#FFFFFF\"/><text fill="#000000" font-family="sans-serif" font-size="14" font-weight="bold" lengthAdjust="spacing" textLength="279.3096" x="144.8452" y="28.5332">&#171;bdd&#187; CDRRRenderer state{} dict schema</text><!--cluster Root--><g id="cluster_Root"><path d="M8.5,484.6094 L49.376,484.6094 A3.75,3.75 0 0 1 51.876,487.1094 L58.876,516.2188 L381.5,516.2188 A2.5,2.5 0 0 1 384,518.7188 L384,1229.1094 A2.5,2.5 0 0 1 381.5,1231.6094 L8.5,1231.6094 A2.5,2.5 0 0 1 6,1229.1094 L6,487.1094 A2.5,2.5 0 0 1 8.5,484.6094 " fill="none" style="stroke:#000000;stroke-width:1.5;"/><line style="stroke:#000000;stroke-width:1.5;" x1="6" x2="58.876" y1="516.2188" y2="516.2188"/><text fill="#000000" font-family="sans-serif" font-size="14" font-weight="bold" lengthAdjust="spacing" textLength="31.876" x="14" y="505.1426">Root</text></g><!--cluster Display Rows--><g id="cluster_Display Rows"><path d="M414.5,635.6094 L514.5273,635.6094 A3.75,3.75 0 0 1 517.0273,638.1094 L524.0273,667.2188 L573.5,667.2188 A2.5,2.5 0 0 1 576,669.7188 L576,1050.1094 A2.5,2.5 0 0 1 573.5,1052.6094 L414.5,1052.6094 A2.5,2.5 0 0 1 412,1050.1094 L412,638.1094 A2.5,2.5 0 0 1 414.5,635.6094 " fill="none" style="stroke:#000000;stroke-width:1.5;"/><line style="stroke:#000000;stroke-width:1.5;" x1="412" x2="524.0273" y1="667.2188" y2="667.2188"/><text fill="#000000" font-family="sans-serif" font-size="14" font-weight="bold" lengthAdjust="spacing" textLength="91.0273" x="420" y="656.1426">Display Rows</text></g><!--cluster Ray-Trace Anchors--><g id="cluster_Ray-Trace Anchors"><path d="M98.5,52.6094 L235.8789,52.6094 A3.75,3.75 0 0 1 238.3789,55.1094 L245.3789,84.2188 L557.5,84.2188 A2.5,2.5 0 0 1 560,86.7188 L560,458.1094 A2.5,2.5 0 0 1 557.5,460.6094 L98.5,460.6094 A2.5,2.5 0 0 1 96,458.1094 L96,55.1094 A2.5,2.5 0 0 1 98.5,52.6094 " fill="none" style="stroke:#000000;stroke-width:1.5;"/><line style="stroke:#000000;stroke-width:1.5;" x1="96" x2="245.3789" y1="84.2188" y2="84.2188"/><text fill="#000000" font-family="sans-serif" font-size="14" font-weight="bold" lengthAdjust="spacing" textLength="128.3789" x="104" y="73.1426">Ray-Trace Anchors</text></g><!--cluster Enumerations--><g id="cluster_Enumerations"><path d="M426.5,1076.6094 L528.8516,1076.6094 A3.75,3.75 0 0 1 531.3516,1079.1094 L538.3516,1108.2188 L561.5,1108.2188 A2.5,2.5 0 0 1 564,1110.7188 L564,1304.1094 A2.5,2.5 0 0 1 561.5,1306.6094 L426.5,1306.6094 A2.5,2.5 0 0 1 424,1304.1094 L424,1079.1094 A2.5,2.5 0 0 1 426.5,1076.6094 " fill="none" style="stroke:#000000;stroke-width:1.5;"/><line style="stroke:#000000;stroke-width:1.5;" x1="424" x2="538.3516" y1="1108.2188" y2="1108.2188"/><text fill="#000000" font-family="sans-serif" font-size="14" font-weight="bold" lengthAdjust="spacing" textLength="93.3516" x="432" y="1097.1426">Enumerations</text></g><!--class state--><g id="elem_state"><rect codeLine="27" fill="#FFE0B2" height="535.6719" id="state" rx="2.5" ry="2.5" style="stroke:#E65100;stroke-width:0.5;" width="345.6709" x="22" y="679.6094"/><text fill="#000000" font-family="sans-serif" font-size="12" font-style="italic" lengthAdjust="spacing" textLength="34.0254" x="177.8228" y="701.0664">&#171;root&#187;</text><text fill="#000000" font-family="sans-serif" font-size="14" lengthAdjust="spacing" textLength="30.3516" x="179.6597" y="726.2363">state</text><line style="stroke:#E65100;stroke-width:0.5;" x1="23" x2="366.6709" y1="738.3125" y2="738.3125"/><text fill="#000000" font-family="sans-serif" font-size="14" lengthAdjust="spacing" textLength="98.0273" x="32" y="760.8457">win : DRRMode</text><text fill="#000000" font-family="sans-serif" font-size="14" lengthAdjust="spacing" textLength="128.9531" x="32" y="786.4551">view : opaque | none</text><text fill="#000000" font-family="sans-serif" font-size="14" lengthAdjust="spacing" textLength="182.6289" x="32" y="812.0645">for_volume : VolumeId | none</text><text fill="#000000" font-family="sans-serif" font-size="14" lengthAdjust="spacing" textLength="169.6064" x="32" y="837.6738">volume_transform : Matrix4</text><text fill="#000000" font-family="sans-serif" font-size="14" lengthAdjust="spacing" textLength="104.2822" x="32" y="863.2832">recompute : bool</text><text fill="#000000" font-family="sans-serif" font-size="14" lengthAdjust="spacing" textLength="75.4893" x="32" y="888.8926">n_steps : int</text><text fill="#000000" font-family="sans-serif" font-size="14" lengthAdjust="spacing" textLength="67.7031" x="32" y="914.502">n_shift : int</text><text fill="#000000" font-family="sans-serif" font-size="14" lengthAdjust="spacing" textLength="87.1582" x="32" y="940.1113">n_res_div : int</text><text fill="#000000" font-family="sans-serif" font-size="14" lengthAdjust="spacing" textLength="105.0547" x="32" y="965.7207">image_width : int</text><text fill="#000000" font-family="sans-serif" font-size="14" lengthAdjust="spacing" textLength="110.5166" x="32" y="991.3301">image_height : int</text><text fill="#000000" font-family="sans-serif" font-size="14" lengthAdjust="spacing" textLength="94.1514" x="32" y="1016.9395">viewport : int[4]</text><text fill="#000000" font-family="sans-serif" font-size="14" lengthAdjust="spacing" textLength="68.4756" x="32" y="1042.5488">n_max : int</text><text fill="#000000" font-family="sans-serif" font-size="14" lengthAdjust="spacing" textLength="64.5859" x="32" y="1068.1582">n_min : int</text><text fill="#000000" font-family="sans-serif" font-size="14" lengthAdjust="spacing" textLength="99.6064" x="32" y="1093.7676">over_max : bool</text><text fill="#000000" font-family="sans-serif" font-size="14" lengthAdjust="spacing" textLength="140.6426" x="32" y="1119.377">thread : opaque | none</text><text fill="#000000" font-family="sans-serif" font-size="14" lengthAdjust="spacing" textLength="132.3232" x="32" y="1144.9863">thread_running : bool</text><text fill="#000000" font-family="sans-serif" font-size="14" lengthAdjust="spacing" textLength="296.5225" x="32" y="1170.5957">observer_attached_to_camera_projection : bool</text><line style="stroke:#E65100;stroke-width:1.0;stroke-dasharray:1.0,2.0;" x1="23" x2="366.6709" y1="1181.6719" y2="1181.6719"/><text fill="#000000" font-family="sans-serif" font-size="14" lengthAdjust="spacing" textLength="325.6709" x="32" y="1204.2051">+1 stale field (use_tandem_rays; see markdown 2.2)</text></g><g id="elem_GMN4"><path d="M39,528.6094 L39,644.7188 A0,0 0 0 0 39,644.7188 L191,644.7188 L195,679.5794 L199,644.7188 L351.2705,644.7188 A0,0 0 0 0 351.2705,644.7188 L351.2705,538.6094 L341.2705,528.6094 L39,528.6094 A0,0 0 0 0 39,528.6094 " fill="#FEFFDD" style="stroke:#181818;stroke-width:0.5;"/><path d="M341.2705,528.6094 L341.2705,538.6094 L351.2705,538.6094 L341.2705,528.6094 " fill="#FEFFDD" style="stroke:#181818;stroke-width:0.5;"/><text fill="#000000" font-family="sans-serif" font-size="13" lengthAdjust="spacing" textLength="221.1206" x="49" y="551.1045">Key insight: the m_pThread field is the</text><text fill="#000000" font-family="sans-serif" font-size="13" lengthAdjust="spacing" textLength="248.606" x="49" y="567.4561">only handle on the background hi-res pass.</text><text fill="#000000" font-family="sans-serif" font-size="13" lengthAdjust="spacing" textLength="283.2705" x="49" y="583.8076">AfxBeginThread spawn at cpp:539 is commented</text><text fill="#000000" font-family="sans-serif" font-size="13" lengthAdjust="spacing" textLength="224.0088" x="49" y="600.1592">out -- thread_running stays false in this</text><text fill="#000000" font-family="sans-serif" font-size="13" lengthAdjust="spacing" textLength="234.8506" x="49" y="616.5107">build, but the LTS preserves the state for</text><text fill="#000000" font-family="sans-serif" font-size="13" lengthAdjust="spacing" textLength="123.5571" x="49" y="632.8623">a future un-comment.</text></g><!--class accumulated_pixel--><g id="elem_accumulated_pixel"><rect codeLine="59" fill="#F3E5F5" height="143.5313" id="accumulated_pixel" rx="2.5" ry="2.5" style="stroke:#7B1FA2;stroke-width:0.5;" width="129.958" x="429" y="679.6094"/><text fill="#000000" font-family="sans-serif" font-size="12" font-style="italic" lengthAdjust="spacing" textLength="74.707" x="456.6255" y="701.0664">&#171;displayRow&#187;</text><text fill="#000000" font-family="sans-serif" font-size="14" lengthAdjust="spacing" textLength="115.958" x="436" y="726.2363">accumulated_pixel</text><line style="stroke:#7B1FA2;stroke-width:0.5;" x1="430" x2="557.958" y1="738.3125" y2="738.3125"/><text fill="#000000" font-family="sans-serif" font-size="14" lengthAdjust="spacing" textLength="33.4551" x="439" y="760.8457">y : int</text><text fill="#000000" font-family="sans-serif" font-size="14" lengthAdjust="spacing" textLength="33.4551" x="439" y="786.4551">x : int</text><text fill="#000000" font-family="sans-serif" font-size="14" lengthAdjust="spacing" textLength="59.9238" x="439" y="812.0645">value : int</text></g><!--class post_pixel--><g id="elem_post_pixel"><rect codeLine="64" fill="#F3E5F5" height="177.1406" id="post_pixel" rx="2.5" ry="2.5" style="stroke:#7B1FA2;stroke-width:0.5;" width="132.0273" x="428" y="859.1094"/><text fill="#000000" font-family="sans-serif" font-size="12" font-style="italic" lengthAdjust="spacing" textLength="74.707" x="456.6602" y="880.5664">&#171;displayRow&#187;</text><text fill="#000000" font-family="sans-serif" font-size="14" lengthAdjust="spacing" textLength="63.041" x="462.4932" y="905.7363">post_pixel</text><line style="stroke:#7B1FA2;stroke-width:0.5;" x1="429" x2="559.0273" y1="917.8125" y2="917.8125"/><text fill="#000000" font-family="sans-serif" font-size="14" lengthAdjust="spacing" textLength="33.4551" x="438" y="940.3457">y : int</text><text fill="#000000" font-family="sans-serif" font-size="14" lengthAdjust="spacing" textLength="33.4551" x="438" y="965.9551">x : int</text><text fill="#000000" font-family="sans-serif" font-size="14" lengthAdjust="spacing" textLength="59.9238" x="438" y="991.5645">value : int</text><line style="stroke:#7B1FA2;stroke-width:0.5;" x1="429" x2="559.0273" y1="1002.6406" y2="1002.6406"/><text fill="#000000" font-family="sans-serif" font-size="14" lengthAdjust="spacing" textLength="112.0273" x="438" y="1025.1738">rgba : (R, G, B, A)</text></g><!--class fx_vec--><g id="elem_fx_vec"><rect codeLine="73" fill="#E3F2FD" height="143.5313" id="fx_vec" rx="2.5" ry="2.5" style="stroke:#1565C0;stroke-width:0.5;" width="100.1719" x="444" y="198.6094"/><text fill="#000000" font-family="sans-serif" font-size="12" font-style="italic" lengthAdjust="spacing" textLength="74.0391" x="457.0664" y="220.0664">&#171;recordType&#187;</text><text fill="#000000" font-family="sans-serif" font-size="14" lengthAdjust="spacing" textLength="40.4619" x="473.855" y="245.2363">fx_vec</text><line style="stroke:#1565C0;stroke-width:0.5;" x1="445" x2="543.1719" y1="257.3125" y2="257.3125"/><text fill="#000000" font-family="sans-serif" font-size="14" lengthAdjust="spacing" textLength="80.1719" x="454" y="279.8457">x : int_16_16</text><text fill="#000000" font-family="sans-serif" font-size="14" lengthAdjust="spacing" textLength="80.1719" x="454" y="305.4551">y : int_16_16</text><text fill="#000000" font-family="sans-serif" font-size="14" lengthAdjust="spacing" textLength="80.1719" x="454" y="331.0645">z : int_16_16</text></g><!--class drr_pipeline--><g id="elem_drr_pipeline"><rect codeLine="78" fill="#E3F2FD" height="348.4063" id="drr_pipeline" rx="2.5" ry="2.5" style="stroke:#1565C0;stroke-width:0.5;" width="166.2891" x="112" y="96.6094"/><text fill="#000000" font-family="sans-serif" font-size="12" font-style="italic" lengthAdjust="spacing" textLength="74.0391" x="158.125" y="118.0664">&#171;recordType&#187;</text><text fill="#000000" font-family="sans-serif" font-size="14" lengthAdjust="spacing" textLength="73.1582" x="158.5654" y="143.2363">drr_pipeline</text><line style="stroke:#1565C0;stroke-width:0.5;" x1="113" x2="277.2891" y1="155.3125" y2="155.3125"/><text fill="#000000" font-family="sans-serif" font-size="14" lengthAdjust="spacing" textLength="59.1377" x="122" y="177.8457">width : int</text><text fill="#000000" font-family="sans-serif" font-size="14" lengthAdjust="spacing" textLength="64.5996" x="122" y="203.4551">height : int</text><text fill="#000000" font-family="sans-serif" font-size="14" lengthAdjust="spacing" textLength="61.4893" x="122" y="229.0645">depth : int</text><text fill="#000000" font-family="sans-serif" font-size="14" lengthAdjust="spacing" textLength="75.4893" x="122" y="254.6738">n_steps : int</text><text fill="#000000" font-family="sans-serif" font-size="14" lengthAdjust="spacing" textLength="67.7031" x="122" y="280.2832">n_shift : int</text><text fill="#000000" font-family="sans-serif" font-size="14" lengthAdjust="spacing" textLength="97.2549" x="122" y="305.8926">vi_start : fx_vec</text><text fill="#000000" font-family="sans-serif" font-size="14" lengthAdjust="spacing" textLength="93.3857" x="122" y="331.502">vi_end : fx_vec</text><text fill="#000000" font-family="sans-serif" font-size="14" lengthAdjust="spacing" textLength="146.2891" x="122" y="357.1113">vi_step_x_start : fx_vec</text><text fill="#000000" font-family="sans-serif" font-size="14" lengthAdjust="spacing" textLength="142.4199" x="122" y="382.7207">vi_step_x_end : fx_vec</text><text fill="#000000" font-family="sans-serif" font-size="14" lengthAdjust="spacing" textLength="146.2891" x="122" y="408.3301">vi_step_y_start : fx_vec</text><text fill="#000000" font-family="sans-serif" font-size="14" lengthAdjust="spacing" textLength="142.4199" x="122" y="433.9395">vi_step_y_end : fx_vec</text></g><!--class DRRMode--><g id="elem_DRRMode"><rect codeLine="94" fill="#FFF9C4" height="169.1406" id="DRRMode" rx="2.5" ry="2.5" style="stroke:#F9A825;stroke-width:0.5;" width="107.9512" x="440" y="1121.1094"/><text fill="#000000" font-family="sans-serif" font-size="12" font-style="italic" lengthAdjust="spacing" textLength="80.0566" x="453.9473" y="1142.5664">&#171;enumeration&#187;</text><text fill="#000000" font-family="sans-serif" font-size="14" lengthAdjust="spacing" textLength="65.3516" x="461.2998" y="1167.7363">DRRMode</text><line style="stroke:#F9A825;stroke-width:0.5;" x1="441" x2="546.9512" y1="1179.8125" y2="1179.8125"/><text fill="#000000" font-family="sans-serif" font-size="14" lengthAdjust="spacing" textLength="54.5029" x="450" y="1202.3457">unbound</text><text fill="#000000" font-family="sans-serif" font-size="14" lengthAdjust="spacing" textLength="26.4482" x="450" y="1227.9551">dirty</text><text fill="#000000" font-family="sans-serif" font-size="14" lengthAdjust="spacing" textLength="61.4824" x="450" y="1253.5645">computed</text><text fill="#000000" font-family="sans-serif" font-size="14" lengthAdjust="spacing" textLength="87.9512" x="450" y="1279.1738">bg_computing</text></g><!--reverse link state to accumulated_pixel--><g id="link_state_accumulated_pixel"><path codeLine="102" d="M380.06,751.6094 C401.63,751.6094 410.53,751.6094 428.9,751.6094 " fill="none" id="state-backto-accumulated_pixel" style="stroke:#181818;stroke-width:1.0;"/><polygon fill="#181818" points="368.06,751.6094,374.06,755.6094,380.06,751.6094,374.06,747.6094,368.06,751.6094" style="stroke:#181818;stroke-width:1.0;"/><text fill="#000000" font-family="sans-serif" font-size="13" lengthAdjust="spacing" textLength="121.3735" x="272.48" y="744.1045">pixels (during march)</text><text fill="#000000" font-family="sans-serif" font-size="13" lengthAdjust="spacing" textLength="7.23" x="379.6892" y="761.3563">1</text><text fill="#000000" font-family="sans-serif" font-size="13" lengthAdjust="spacing" textLength="5.0591" x="412.0743" y="770.4619">*</text></g><!--reverse link state to post_pixel--><g id="link_state_post_pixel"><path codeLine="103" d="M380.06,947.6094 C401.24,947.6094 409.78,947.6094 427.9,947.6094 " fill="none" id="state-backto-post_pixel" style="stroke:#181818;stroke-width:1.0;"/><polygon fill="#181818" points="368.06,947.6094,374.06,951.6094,380.06,947.6094,374.06,943.6094,368.06,947.6094" style="stroke:#181818;stroke-width:1.0;"/><text fill="#000000" font-family="sans-serif" font-size="13" lengthAdjust="spacing" textLength="152.4517" x="240.98" y="940.1045">pixels (after post_process)</text><text fill="#000000" font-family="sans-serif" font-size="13" lengthAdjust="spacing" textLength="7.23" x="379.6892" y="965.6251">1</text><text fill="#000000" font-family="sans-serif" font-size="13" lengthAdjust="spacing" textLength="5.0591" x="410.9611" y="966.4285">*</text></g><!--link state to DRRMode--><g id="link_state_DRRMode"><path codeLine="104" d="M368.06,1168.3594 C394.02,1168.3594 419.01,1168.3594 439.78,1168.3594 " fill="none" id="state-DRRMode" style="stroke:#181818;stroke-width:1.0;"/><text fill="#000000" font-family="sans-serif" font-size="13" lengthAdjust="spacing" textLength="19.5063" x="379.92" y="1160.8545">win</text><text fill="#000000" font-family="sans-serif" font-size="13" lengthAdjust="spacing" textLength="7.23" x="379.6892" y="1195.688">1</text><text fill="#000000" font-family="sans-serif" font-size="13" lengthAdjust="spacing" textLength="7.23" x="420.89" y="1182.6328">1</text></g><!--reverse link drr_pipeline to fx_vec--><g id="link_drr_pipeline_fx_vec"><path codeLine="105" d="M290.29,270.6094 C343.51,270.6094 398.76,270.6094 443.9,270.6094 " fill="none" id="drr_pipeline-backto-fx_vec" style="stroke:#181818;stroke-width:1.0;"/><polygon fill="#181818" points="278.29,270.6094,284.29,274.6094,290.29,270.6094,284.29,266.6094,278.29,270.6094" style="stroke:#181818;stroke-width:1.0;"/><text fill="#000000" font-family="sans-serif" font-size="13" lengthAdjust="spacing" textLength="46.249" x="310.09" y="289.1045">anchors</text><text fill="#000000" font-family="sans-serif" font-size="13" lengthAdjust="spacing" textLength="7.23" x="290.3734" y="289.1708">1</text><text fill="#000000" font-family="sans-serif" font-size="13" lengthAdjust="spacing" textLength="7.23" x="424.8041" y="289.8497">6</text></g><!--SRC=[hLPjJ-D64FxkNp4A7uwx0YA1S4UAJkAbgauzf2gWVgagQxqxZhVOk-xkEiH7-U-TzGRRSPAhAjL2sCpBCxCppypo3XvgU_yLRdBDd-0EKwcaarh1dMGBmuhe7Jpm30i6gJRWCeJRk_byZagWGGFMCOSlho0aToTHvAJB4Qwk4Y4-Vzvl2RQ1Z2Bx95N9A0pmd5aBBn7GSyFuqyBeIebRdMjpTMMqTeItVWxI54-JIJ3LXk1tcZMcU34TdvxkGKLEtezrYTxf0C_IIIfse6wODQZZwSMKxq4LqfOvg-VwkK5Dpt2QJhTHDyqQr8_9E6MJtQYLl6MMCn5oEE2Vy89VRgDkcZMe4_meplQWegeADCptcnoehkabFzz6tJGBBRXadoRJw3NAf43Wql0SmpSMfQkXG9TfOOSDldREoAHo-8LhzI2_8PpsJ7Afq56TGHloxYbineH-bce1ASijzZI_CY6y_3pACNNWD1Yvo1onZDhc4uwYaaxD5WYZET5ZjAPOe5l3IMY94rJ-eLWm0wBllHROIfSIdqciI_PNXV0tAAqw9Or7lDGvLOfCVci-leYXKJ28dM7AaaD1flUCIh8wRqqytOgIIaIwHEkyLQZOEYmjYQLoVMacwUH3gK4R2xaSo6L1bOYVfN3PJas6JVKsLVxO9RKaY7y__wCNfc2hhT15Kxo-J2_Hh4qtZkGoWqpiBMbGnwPIolTuuAmJYyO3C-SOxHCHEnrpvfaQbqR_6Ve_z3evQJz_WB5d02siL68kuB2or1f6-wg83QljZs0HeM3cYSYdO78oUT_ulZQ_bQOM9TevNO1E0vLQw5-mfW9ONynPipIBk7mCXmsnfFNYxYmgho6Zq9GCvUmzadPO8PF7r4ueYR9TzjVfwWONKgrXRSaeH-Q0b-LiUdRf8n2H2bGEHHUdSd1yF2mivLxRC5gKDMcbRJsIIkRYY5wkoUhhumEKb8olV7E4zGmHcLiNkYegLnc4IXslKmXfqrNGb8tMHZULTs4H0cr2kpcTZFEgg7A25t4fLvZ3O6rsyreF23SavPBb5VPahxqmfRRk_yPl1dcHC18Tpe_WvoEuEOBhD_hqZpzdzV6ZOHpXMl5Ccq4DqbMyH0w3M-Xbc4Wylg2VORe3wRSjQRyCmXYgGeb-2U-Fjsjrx5mQ0iijm_-omPQIZ5cpT48D-XfFf5ro3n-llkEuDlYkV_rl_lMs_sPFV-hkoq4xrpSA3E_Khi2LIlpCTtMKnjNjN-kheLCdYpZ8Q8wxJC9CZiOZ-43JFlemsZ5BCsZU5Wv5PVmMe4N7i_SxV7i3qZcnrD4_TK5bD4Th-wxUarvlnvtv2pNQO5WRu6BqHl8Pi302qJy0]--></g></svg>