<svg xmlns="http://www.w3.org/2000/svg" xmlns:xlink="http://www.w3.org/1999/xlink" contentStyleType="text/css" height="676px" preserveAspectRatio="none" style="width:1146px;height:676px;background:#FFFFFF;" version="1.1" viewBox="0 0 1146 676" width="1146px" zoomAndPan="magnify"><title>&lt;&lt;stm&gt;&gt; CDRRRenderer Primary State Machine</title><defs/><g><!--bg-injected--><rect x=\"0\" y=\"0\" width=\"100%\" height=\"100%\" fill=\"#FFFFFF\"/><text fill="#000000" font-family="sans-serif" font-size="14" font-weight="bold" lengthAdjust="spacing" textLength="300.3301" x="415.9563" y="24.5332">&#171;stm&#187; CDRRRenderer Primary State Machine</text><!--cluster Browse--><g id="cluster_Browse"><path d="M19.5,45.6094 L680.5,45.6094 A12.5,12.5 0 0 1 693,58.1094 L693,68.2188 L7,68.2188 L7,58.1094 A12.5,12.5 0 0 1 19.5,45.6094 " fill="#E3F2FD" style="stroke:#E3F2FD;stroke-width:1.0;"/><rect fill="none" height="496.5" rx="12.5" ry="12.5" style="stroke:#1565C0;stroke-width:0.5;" width="686" x="7" y="45.6094"/><line style="stroke:#1565C0;stroke-width:0.5;" x1="7" x2="693" y1="68.2188" y2="68.2188"/><text fill="#0D47A1" font-family="sans-serif" font-size="14" lengthAdjust="spacing" textLength="46.6826" x="320" y="64.1426">Browse</text></g><g id="Browse.Unbound"><rect fill="#E3F2FD" height="50" rx="12.5" ry="12.5" style="stroke:#1565C0;stroke-width:0.5;" width="74.5029" x="194.5" y="145.6094"/><line style="stroke:#1565C0;stroke-width:0.5;" x1="194.5" x2="269.0029" y1="173.2188" y2="173.2188"/><text fill="#0D47A1" font-family="sans-serif" font-size="14" lengthAdjust="spacing" textLength="54.5029" x="204.5" y="165.1426">unbound</text></g><g id="Browse.Dirty"><rect fill="#E3F2FD" height="50" rx="12.5" ry="12.5" style="stroke:#1565C0;stroke-width:0.5;" width="50" x="353" y="273.6094"/><line style="stroke:#1565C0;stroke-width:0.5;" x1="353" x2="403" y1="301.2188" y2="301.2188"/><text fill="#0D47A1" font-family="sans-serif" font-size="14" lengthAdjust="spacing" textLength="26.4482" x="364.7759" y="293.1426">dirty</text></g><g id="Browse.Computed"><rect fill="#E3F2FD" height="50" rx="12.5" ry="12.5" style="stroke:#1565C0;stroke-width:0.5;" width="81.4824" x="141.5" y="463.6094"/><line style="stroke:#1565C0;stroke-width:0.5;" x1="141.5" x2="222.9824" y1="491.2188" y2="491.2188"/><text fill="#0D47A1" font-family="sans-serif" font-size="14" lengthAdjust="spacing" textLength="61.4824" x="151.5" y="483.1426">computed</text></g><g id="elem_GMN12"><path d="M304.5,149.1094 L304.5,166.6094 L269.81,170.6094 L304.5,174.6094 L304.5,191.8125 A0,0 0 0 0 304.5,191.8125 L511.9307,191.8125 A0,0 0 0 0 511.9307,191.8125 L511.9307,159.1094 L501.9307,149.1094 L304.5,149.1094 A0,0 0 0 0 304.5,149.1094 " fill="#FEFFDD" style="stroke:#181818;stroke-width:0.5;"/><path d="M501.9307,149.1094 L501.9307,159.1094 L511.9307,159.1094 L501.9307,149.1094 " fill="#FEFFDD" style="stroke:#181818;stroke-width:0.5;"/><text fill="#000000" font-family="sans-serif" font-size="13" lengthAdjust="spacing" textLength="114.8926" x="310.5" y="167.6045">forVolume == NULL</text><text fill="#000000" font-family="sans-serif" font-size="13" lengthAdjust="spacing" textLength="186.4307" x="310.5" y="183.9561">DrawScene is a no-op (cpp:466)</text></g><g id="elem_GMN15"><path d="M257.5,459.1094 L257.5,484.6094 L222.61,488.6094 L257.5,492.6094 L257.5,518.1641 A0,0 0 0 0 257.5,518.1641 L414.3589,518.1641 A0,0 0 0 0 414.3589,518.1641 L414.3589,469.1094 L404.3589,459.1094 L257.5,459.1094 A0,0 0 0 0 257.5,459.1094 " fill="#FEFFDD" style="stroke:#181818;stroke-width:0.5;"/><path d="M404.3589,459.1094 L404.3589,469.1094 L414.3589,469.1094 L404.3589,459.1094 " fill="#FEFFDD" style="stroke:#181818;stroke-width:0.5;"/><text fill="#000000" font-family="sans-serif" font-size="13" lengthAdjust="spacing" textLength="98.9727" x="263.5" y="477.6045">m_arrPixels valid</text><text fill="#000000" font-family="sans-serif" font-size="13" lengthAdjust="spacing" textLength="109.8145" x="263.5" y="493.9561">glDrawPixels is the</text><text fill="#000000" font-family="sans-serif" font-size="13" lengthAdjust="spacing" textLength="135.8589" x="263.5" y="510.3076">boundary call (cpp:518)</text></g><g id="BgComputing"><rect fill="#E8EAF6" height="50" rx="12.5" ry="12.5" style="stroke:#283593;stroke-width:0.5;" width="107.9512" x="717" y="463.6094"/><line style="stroke:#283593;stroke-width:0.5;" x1="717" x2="824.9512" y1="491.2188" y2="491.2188"/><text fill="#1A237E" font-family="sans-serif" font-size="14" lengthAdjust="spacing" textLength="87.9512" x="727" y="483.1426">bg_computing</text></g><g id="elem_GMN19"><path d="M860.5,434.6094 L860.5,484.6094 L825.32,488.6094 L860.5,492.6094 L860.5,542.7188 A0,0 0 0 0 860.5,542.7188 L1093.2324,542.7188 A0,0 0 0 0 1093.2324,542.7188 L1093.2324,444.6094 L1083.2324,434.6094 L860.5,434.6094 A0,0 0 0 0 860.5,434.6094 " fill="#FEFFDD" style="stroke:#181818;stroke-width:0.5;"/><path d="M1083.2324,434.6094 L1083.2324,444.6094 L1093.2324,444.6094 L1083.2324,434.6094 " fill="#FEFFDD" style="stroke:#181818;stroke-width:0.5;"/><text fill="#000000" font-family="sans-serif" font-size="13" lengthAdjust="spacing" textLength="171.228" x="866.5" y="453.1045">UNREACHABLE in source as</text><text fill="#000000" font-family="sans-serif" font-size="13" lengthAdjust="spacing" textLength="166.9116" x="866.5" y="469.4561">preserved -- AfxBeginThread</text><text fill="#000000" font-family="sans-serif" font-size="13" lengthAdjust="spacing" textLength="211.7324" x="866.5" y="485.8076">spawn at cpp:539 is commented out.</text><text fill="#000000" font-family="sans-serif" font-size="13" lengthAdjust="spacing" textLength="145.9834" x="866.5" y="502.1592">State retained so a future</text><text fill="#000000" font-family="sans-serif" font-size="13" lengthAdjust="spacing" textLength="171.9961" x="866.5" y="518.5107">un-comment does not change</text><text fill="#000000" font-family="sans-serif" font-size="13" lengthAdjust="spacing" textLength="95.3799" x="866.5" y="534.8623">the LTS surface.</text></g><g id="Destroyed"><rect fill="#E8F5E9" height="50" rx="12.5" ry="12.5" style="stroke:#2E7D32;stroke-width:0.5;" width="81.4824" x="918.5" y="620.6094"/><line style="stroke:#2E7D32;stroke-width:0.5;" x1="918.5" x2="999.9824" y1="648.2188" y2="648.2188"/><text fill="#1B5E20" font-family="sans-serif" font-size="14" lengthAdjust="spacing" textLength="61.4824" x="928.5" y="640.1426">destroyed</text></g><!--link Unbound to Dirty--><g id="link_Unbound_Dirty"><path d="M269.63,187.6994 C295.97,199.4994 328.29,215.2094 339,225.6094 C352.77,238.9794 360.5197,252.7446 366.9797,267.9946 " fill="none" id="Unbound-to-Dirty" style="stroke:#181818;stroke-width:1.0;"/><polygon fill="#181818" points="369.32,273.5194,369.4927,263.672,367.3697,268.9154,362.1263,266.7925,369.32,273.5194" style="stroke:#181818;stroke-width:1.0;"/><text fill="#000000" font-family="sans-serif" font-size="13" lengthAdjust="spacing" textLength="150.6616" x="355" y="240.1045">set_volume(V) [V != none]</text></g><!--link Dirty to Unbound--><g id="link_Dirty_Unbound"><path d="M352.71,297.0594 C317.32,294.7694 254.12,284.7694 225,243.6094 C215.28,229.8694 215.9438,216.5417 220.4138,201.4717 " fill="none" id="Dirty-to-Unbound" style="stroke:#181818;stroke-width:1.0;"/><polygon fill="#181818" points="222.12,195.7194,215.7258,203.2103,220.6982,200.5129,223.3955,205.4853,222.12,195.7194" style="stroke:#181818;stroke-width:1.0;"/><text fill="#000000" font-family="sans-serif" font-size="13" lengthAdjust="spacing" textLength="104.0571" x="226" y="240.1045">set_volume(none)</text></g><!--link Dirty to Computed--><g id="link_Dirty_Computed"><path d="M352.76,302.1794 C282.45,309.5894 88.27,331.8594 70,353.6094 C36.85,393.0794 91.9757,436.1314 136.2057,462.6814 " fill="none" id="Dirty-to-Computed" style="stroke:#181818;stroke-width:1.0;"/><polygon fill="#181818" points="141.35,465.7694,135.6922,457.7078,137.063,463.196,131.5748,464.5669,141.35,465.7694" style="stroke:#181818;stroke-width:1.0;"/><text fill="#000000" font-family="sans-serif" font-size="13" lengthAdjust="spacing" textLength="72.979" x="105.6868" y="376.6045">compute_drr</text><text fill="#000000" font-family="sans-serif" font-size="13" lengthAdjust="spacing" textLength="142.3525" x="71" y="392.9561">draw_scene [recompute]</text></g><!--reverse link Dirty to Computed--><g id="link_Dirty_Computed"><path d="M408.6132,309.8467 C429.0932,317.9067 451.12,330.3094 464,353.6094 C474.97,373.4494 478.93,387.5494 464,404.6094 C430.93,442.4094 285.51,413.3694 240,434.6094 C225.66,441.2994 212.41,452.8094 202.2,463.3994 " fill="none" id="Dirty-backto-Computed" style="stroke:#181818;stroke-width:1.0;"/><polygon fill="#181818" points="403.03,307.6494,409.9399,314.6674,407.6827,309.4804,412.8696,307.2232,403.03,307.6494" style="stroke:#181818;stroke-width:1.0;"/><text fill="#000000" font-family="sans-serif" font-size="13" lengthAdjust="spacing" textLength="156.8252" x="475" y="368.1045">camera_projection_change</text><text fill="#000000" font-family="sans-serif" font-size="13" lengthAdjust="spacing" textLength="148.0972" x="479.364" y="384.4561">set_volume_transform(M)</text><text fill="#000000" font-family="sans-serif" font-size="13" lengthAdjust="spacing" textLength="150.6616" x="478.0818" y="400.8076">set_volume(V) [V != none]</text></g><!--link Computed to Unbound--><g id="link_Computed_Unbound"><path d="M141.33,473.7094 C110.96,460.9394 71.62,438.7394 53,404.6094 C42.14,384.7094 44.41,374.5894 53,353.6094 C81.54,283.8794 146.2061,229.9565 189.7261,199.2765 " fill="none" id="Computed-to-Unbound" style="stroke:#181818;stroke-width:1.0;"/><polygon fill="#181818" points="194.63,195.8194,184.9694,197.7357,190.5434,198.7003,189.5788,204.2743,194.63,195.8194" style="stroke:#181818;stroke-width:1.0;"/><text fill="#000000" font-family="sans-serif" font-size="13" lengthAdjust="spacing" textLength="104.0571" x="107" y="304.1045">set_volume(none)</text></g><!--link Computed to BgComputing--><g id="link_Computed_BgComputing"><path d="M183.1,463.2794 C185.76,436.8194 194.42,396.5194 222,377.1094 C258.83,351.1994 581.85,400.4494 677,434.6094 C696.84,441.7294 712.2099,449.7988 728.9599,460.1788 " fill="none" id="Computed-to-BgComputing" style="stroke:#181818;stroke-width:1.0;"/><polygon fill="#181818" points="734.06,463.3394,728.5169,455.1985,729.8099,460.7056,724.3028,461.9986,734.06,463.3394" style="stroke:#181818;stroke-width:1.0;"/><text fill="#000000" font-family="sans-serif" font-size="13" lengthAdjust="spacing" textLength="114.1816" x="223" y="376.6045">(bg_thread_started)</text><text fill="#000000" font-family="sans-serif" font-size="13" lengthAdjust="spacing" textLength="96.4526" x="231.8645" y="392.9561">[m_nResDiv &gt; 1]</text></g><!--reverse link Computed to BgComputing--><g id="link_Computed_BgComputing"><path d="M183.7001,457.3095 C186.3601,430.8495 194.42,396.5194 222,377.1094 C258.83,351.1994 581.85,400.4494 677,434.6094 C696.84,441.7294 717.31,452.9594 734.06,463.3394 " fill="none" id="Computed-backto-BgComputing" style="stroke:#181818;stroke-width:1.0;"/><polygon fill="#181818" points="183.1,463.2794,187.9802,454.7246,183.6001,458.3045,180.0203,453.9244,183.1,463.2794" style="stroke:#181818;stroke-width:1.0;"/><text fill="#000000" font-family="sans-serif" font-size="13" lengthAdjust="spacing" textLength="118.5298" x="221" y="384.6045">bg_thread_complete</text></g><!--link BgComputing to Dirty--><g id="link_BgComputing_Dirty"><path d="M754.58,463.5294 C732.34,432.8994 689.68,380.7494 640,353.6094 C561.14,310.5294 457.7962,301.9325 409.1162,300.2025 " fill="none" id="BgComputing-to-Dirty" style="stroke:#181818;stroke-width:1.0;"/><polygon fill="#181818" points="403.12,299.9894,411.9723,304.3065,408.1168,300.167,412.2564,296.3115,403.12,299.9894" style="stroke:#181818;stroke-width:1.0;"/><text fill="#000000" font-family="sans-serif" font-size="13" lengthAdjust="spacing" textLength="156.8252" x="705" y="376.6045">camera_projection_change</text><text fill="#000000" font-family="sans-serif" font-size="13" lengthAdjust="spacing" textLength="93.2217" x="736.8018" y="392.9561">(thread aborted)</text></g><!--link Browse to Destroyed--><g id="link_Browse_Destroyed"><path d="M693.4781,173.596 C693.6975,173.6497 693.921,173.7045 694.1485,173.7604 C695.9683,174.2079 698.0423,174.7269 700.3548,175.3191 C709.6052,177.6881 722.6725,181.229 738.5519,186.0505 C770.3106,195.6934 813.3175,210.4587 859.5325,231.2156 C951.9625,272.7294 1057.225,338.2094 1111,434.6094 C1137.74,482.5394 1138.59,510.6594 1111,558.1094 C1087.19,599.0594 1041.6551,620.3616 1005.2651,632.2116 " fill="none" id="Browse-to-Destroyed" style="stroke:#181818;stroke-width:1.0;"/><polygon fill="#181818" points="999.56,634.0694,1009.3562,635.0861,1004.3143,632.5212,1006.8792,627.4792,999.56,634.0694" style="stroke:#181818;stroke-width:1.0;"/><text fill="#000000" font-family="sans-serif" font-size="13" lengthAdjust="spacing" textLength="46.2427" x="1092" y="384.6045">destruct</text></g><!--link BgComputing to Destroyed--><g id="link_BgComputing_Destroyed"><path d="M794.99,513.8194 C808.68,527.2794 826.38,544.0894 843,558.1094 C869.41,580.3794 896.0283,600.191 919.5383,616.991 " fill="none" id="BgComputing-to-Destroyed" style="stroke:#181818;stroke-width:1.0;"/><polygon fill="#181818" points="924.42,620.4794,919.4231,611.9923,920.3519,617.5724,914.7718,618.5012,924.42,620.4794" style="stroke:#181818;stroke-width:1.0;"/><text fill="#000000" font-family="sans-serif" font-size="13" lengthAdjust="spacing" textLength="143.0762" x="884" y="587.1045">destruct (thread aborted)</text></g><!--SRC=[jLLBKzim4BxxLspBWUIG518I7aEPWQIlcK2PX7AX7OzYhnqLM_98Se3fzBztBTcEysXFLASu- -r-gq_xs8VPYxwUmCmmWt3DWWKN26FEOiLIRnzk5K-PUe79tGmYgM0qdawdA49KgA1rF_joxN_zD7dN-BSRP5cxwtc6cmJX_5oRzE9YtQyAkaRgUVgHYumHBsXh-EK1dIiMFCPAvY8SoKIgy_EvaayQAIR07lQZNXGwd5GKVHjJdBt3mN0G75ZSHodCRXJX3iAZOtQucrS7J9JOFJn15WstUHiOY-kTz0Ud_KtU3LIH7-lrZt4thq6LSi4IyY3UQ82dsxmDZEF5ux3Vs-JTG1Myym7s3hpVQ-8lM2YVk8WXOeb6pyWCZ8IvD4Qc47A5WU5IU5GTxr_jKB0h-nfWU55PPe6mb4cUOcTUQ05BZZQdL8Qesw_BxRbwU-ioU0jCLyaqQiHLOudCXStAGh-vtmri4qbwcHUB6nU__e8AP9hb1bt0KVdHn5fmnTIXzn6TYpAYEsUWqVXEijPz6nxkuSrx45BW3-lhi9LdJL7wbln-gDHt4IhsvEi0QH0yq6CxaujI-tNoR2E18WfBKJ4_K_Adgn4_M30HutUnoiqtYWbDeoHjNRURXbr9h-Y8hBhzhWiNBktcFRVnkrsiZv3q1eh72mCogloyoejolRSkL79mysqogIrZ4cfcTU8Q68NfKAkqQFwT7Gs7BXqQUJRyBgBgTdMyr6TAtV9dJ3GiMS9NbZWfk4eJaL5xr3QRRJ5E0vOaZdvmUB91__lLstL6Gwnirdazic31Emerr6Npdpfr7lkEW4Q2wzTuL7r3DM2zTRaR4DTDDzCFbwFFbrUJ3y05Q9ch02cMDMPq2rHBMtfm6JrVOSp5tK8XSu-YC_OaW1cmSlTFYqUXZ58KHRdAt7Gjp6quXORHXWk9WyeaoasktFFbebCwGIX9DaeONCjOSp44YyMhSnMn0BlUgffMdM7lH-NUL80glKKI6PklJvefWbAtFQI-cA8UyoLSmE4Fh-dJIJ0owwFX35P12haJ9Eerd-r1zAyfq7AnWCsbJUZLQ_AkN73_f-XeyHWbNyefFQw-eBbOFQ_S7BKqDQpInuR90xDRoHLyXOGjuVu0]--></g></svg>