<svg xmlns="http://www.w3.org/2000/svg" xmlns:xlink="http://www.w3.org/1999/xlink" contentStyleType="text/css" height="399px" preserveAspectRatio="none" style="width:1068px;height:399px;background:#FFFFFF;" version="1.1" viewBox="0 0 1068 399" width="1068px" zoomAndPan="magnify"><title>&lt;&lt;stm&gt;&gt; CCamera Primary State Machine</title><defs/><g><!--bg-injected--><rect x="0" y="0" width="100%" height="100%" fill="#FFFFFF"/><text fill="#000000" font-family="sans-serif" font-size="14" font-weight="bold" lengthAdjust="spacing" textLength="259.8955" x="397.1589" y="24.5332">&#171;stm&#187; CCamera Primary State Machine</text><g id="Pre"><rect fill="#E3F2FD" height="50" rx="12.5" ry="12.5" style="stroke:#1565C0;stroke-width:0.5;" width="104.8203" x="7" y="45.6094"/><line style="stroke:#1565C0;stroke-width:0.5;" x1="7" x2="111.8203" y1="73.2188" y2="73.2188"/><text fill="#0D47A1" font-family="sans-serif" font-size="14" lengthAdjust="spacing" textLength="84.8203" x="17" y="65.1426">pre_construct</text></g><g id="Active"><rect fill="#E3F2FD" height="50" rx="12.5" ry="12.5" style="stroke:#1565C0;stroke-width:0.5;" width="56.5723" x="31" y="194.6094"/><line style="stroke:#1565C0;stroke-width:0.5;" x1="31" x2="87.5723" y1="222.2188" y2="222.2188"/><text fill="#0D47A1" font-family="sans-serif" font-size="14" lengthAdjust="spacing" textLength="36.5723" x="41" y="214.1426">active</text></g><g id="Dead"><rect fill="#E8F5E9" height="50" rx="12.5" ry="12.5" style="stroke:#2E7D32;stroke-width:0.5;" width="81.4824" x="19" y="343.6094"/><line style="stroke:#2E7D32;stroke-width:0.5;" x1="19" x2="100.4824" y1="371.2188" y2="371.2188"/><text fill="#000000" font-family="sans-serif" font-size="14" lengthAdjust="spacing" textLength="61.4824" x="29" y="363.1426">destroyed</text></g><g id="elem_GMN10"><path d="M848,173.6094 L848,215.6094 L88.34,219.6094 L848,223.6094 L848,265.3672 A0,0 0 0 0 848,265.3672 L1061.2134,265.3672 A0,0 0 0 0 1061.2134,265.3672 L1061.2134,183.6094 L1051.2134,173.6094 L848,173.6094 A0,0 0 0 0 848,173.6094 " fill="#FEFFDD" style="stroke:#181818;stroke-width:0.5;"/><path d="M1051.2134,173.6094 L1051.2134,183.6094 L1061.2134,183.6094 L1051.2134,173.6094 " fill="#FEFFDD" style="stroke:#181818;stroke-width:0.5;"/><text fill="#000000" font-family="sans-serif" font-size="13" lengthAdjust="spacing" textLength="166.1753" x="854" y="192.1045">OBSERVABLE: 8 setters fire</text><text fill="#000000" font-family="sans-serif" font-size="13" lengthAdjust="spacing" textLength="192.2134" x="854" y="208.4561">m_eventChange. SetFieldOfView</text><text fill="#000000" font-family="sans-serif" font-size="13" lengthAdjust="spacing" textLength="151.7534" x="854" y="224.8076">is a convenience that calls</text><text fill="#000000" font-family="sans-serif" font-size="13" lengthAdjust="spacing" textLength="191.1406" x="854" y="241.1592">SetClippingPlanes + SetDistance</text><text fill="#000000" font-family="sans-serif" font-size="13" lengthAdjust="spacing" textLength="85.9346" x="854" y="257.5107">-- fires TWICE.</text></g><!--link Pre to Active--><g id="link_Pre_Active"><path d="M59.5,95.8794 C59.5,123.1194 59.5,161.0494 59.5,188.2994 " fill="none" id="Pre-to-Active" style="stroke:#181818;stroke-width:1.0;"/><polygon fill="#181818" points="59.5,194.2994,63.5,185.2994,59.5,189.2994,55.5,185.2994,59.5,194.2994" style="stroke:#181818;stroke-width:1.0;"/><text fill="#000000" font-family="sans-serif" font-size="13" lengthAdjust="spacing" textLength="52.7427" x="60.5" y="140.1045">construct</text></g><!--link Active to Active--><g id="link_Active_Active"><path d="M88.23,214.7294 C106.05,213.5494 123,215.1794 123,219.6094 C123,224.0394 112.0369,226.0658 94.2169,224.8858 " fill="none" id="Active-to-Active" style="stroke:#181818;stroke-width:1.0;"/><polygon fill="#181818" points="88.23,224.4894,96.946,229.0753,93.2191,224.8197,97.4746,221.0928,88.23,224.4894" style="stroke:#181818;stroke-width:1.0;"/><text fill="#000000" font-family="sans-serif" font-size="13" lengthAdjust="spacing" textLength="237.0342" x="147.7986" y="208.6045">set_target/direction/distance/up_direction</text><text fill="#000000" font-family="sans-serif" font-size="13" lengthAdjust="spacing" textLength="274.6313" x="129" y="224.9561">set_viewing_angle/aspect_ratio/clipping_planes</text><text fill="#000000" font-family="sans-serif" font-size="13" lengthAdjust="spacing" textLength="168.3652" x="182.1331" y="241.3076">(each fires GetChangeEvent)</text></g><!--link Active to Active--><g id="link_Active_Active"><path d="M88.23,214.5594 C174.6,205.8794 409,207.5694 409,219.6094 C409,231.6494 180.5699,233.9393 94.1999,225.2593 " fill="none" id="Active-to-Active-1" style="stroke:#181818;stroke-width:1.0;"/><polygon fill="#181818" points="88.23,224.6594,96.7849,229.5393,93.2049,225.1593,97.5849,221.5794,88.23,224.6594" style="stroke:#181818;stroke-width:1.0;"/><text fill="#000000" font-family="sans-serif" font-size="13" lengthAdjust="spacing" textLength="158.2344" x="425.1055" y="217.1045">set_field_of_view(MaxSize)</text><text fill="#000000" font-family="sans-serif" font-size="13" lengthAdjust="spacing" textLength="178.4453" x="415" y="233.4561">[fires change TWICE indirectly]</text></g><!--link Active to Active--><g id="link_Active_Active"><path d="M88.26,213.5694 C204.64,198.8494 599,200.8694 599,219.6094 C599,238.3494 210.5926,241.1223 94.2126,226.4023 " fill="none" id="Active-to-Active-2" style="stroke:#181818;stroke-width:1.0;"/><polygon fill="#181818" points="88.26,225.6494,96.6869,230.7471,93.2205,226.2768,97.6908,222.8103,88.26,225.6494" style="stroke:#181818;stroke-width:1.0;"/><text fill="#000000" font-family="sans-serif" font-size="13" lengthAdjust="spacing" textLength="183.5171" x="605" y="217.1045">recalc_xform / recalc_projection</text><text fill="#000000" font-family="sans-serif" font-size="13" lengthAdjust="spacing" textLength="179.937" x="606.79" y="233.4561">(mutable cache update; no fire)</text></g><!--link Active to Dead--><g id="link_Active_Dead"><path d="M59.5,244.8794 C59.5,272.1194 59.5,310.0494 59.5,337.2994 " fill="none" id="Active-to-Dead" style="stroke:#181818;stroke-width:1.0;"/><polygon fill="#181818" points="59.5,343.2994,63.5,334.2994,59.5,338.2994,55.5,334.2994,59.5,343.2994" style="stroke:#181818;stroke-width:1.0;"/><text fill="#000000" font-family="sans-serif" font-size="13" lengthAdjust="spacing" textLength="46.2427" x="60.5" y="310.1045">destruct</text></g><!--SRC=[TLBHRXen47o_hrYbBqGL8I6bIIb22XTIHMgKg5JfGwbEotaFtDpP9tiXeLN_lMjpK2JIU_BjZcTcPysQIuB1m7Cr74AQOaKEuS7f2jqQ9enCS8VvGXjA_9CsDJgimCVwxmJa6s7-D7TsQLHgI-i6Wvcppvw4xGsT5zr2RL3MAN87YBFU-rv-6X4trl11_rIzky2prtMONAKDbb7fikZHXqEbVKoNBjHvD_cpFyS2bNtMPWu5bfuIjZMmXPbbjXKexIXdRKsIR0O-gXrbkJMUtJBd8q0lIONqjeQtE9HhAug0gtXy1QD8QEoQL8HT4ohOzviaWRejzanxk6NfmquzQKhj_QudpXZTdBYpCoydKJGvTPPrjgjEJS2kD8NfCpJpaZheQsbc3WNGoKjTrw5NbsZ8JqsBv1b08GGUFX6d2xb4unKPFlwlbq9JgJ9RHA7M7RvCz2ywdfhl6veySi3NRxVf6BJPc2lNFrxbanwMUVPIM5T1P_jRE_jpEr6hMZBEv3ddufHWMIi9-YCO6rt_Szba6YFlGzn323GnLlRYz7p1O8j6E3wf-z5a_ENnQlHvt8VBC9YioKVIsAuo2Z5i4Zc12V5DcFk-U9If8q9xmB0wWMcILG0laCLcMVhObojfa_T3Z1lUXjfrixc8QRURy6DS9maP1S7nNm00]--></g></svg>