<svg xmlns="http://www.w3.org/2000/svg" xmlns:xlink="http://www.w3.org/1999/xlink" contentStyleType="text/css" height="400px" preserveAspectRatio="none" style="width:526px;height:400px;background:#FFFFFF;" version="1.1" viewBox="0 0 526 400" width="526px" zoomAndPan="magnify"><title>&lt;&lt;stm&gt;&gt; CTracker (base) Primary State Machine</title><defs/><g><!--bg-injected--><rect x="0" y="0" width="100%" height="100%" fill="#FFFFFF"/><text fill="#000000" font-family="sans-serif" font-size="14" font-weight="bold" lengthAdjust="spacing" textLength="304.2471" x="104.2668" y="24.5332">&#171;stm&#187; CTracker (base) Primary State Machine</text><g id="Pre"><rect fill="#E3F2FD" height="50" rx="12.5" ry="12.5" style="stroke:#1565C0;stroke-width:0.5;" width="104.8203" x="7" y="45.6094"/><line style="stroke:#1565C0;stroke-width:0.5;" x1="7" x2="111.8203" y1="73.2188" y2="73.2188"/><text fill="#0D47A1" font-family="sans-serif" font-size="14" lengthAdjust="spacing" textLength="84.8203" x="17" y="65.1426">pre_construct</text></g><g id="Active"><rect fill="#E3F2FD" height="50" rx="12.5" ry="12.5" style="stroke:#1565C0;stroke-width:0.5;" width="56.5723" x="31" y="195.1094"/><line style="stroke:#1565C0;stroke-width:0.5;" x1="31" x2="87.5723" y1="222.7188" y2="222.7188"/><text fill="#0D47A1" font-family="sans-serif" font-size="14" lengthAdjust="spacing" textLength="36.5723" x="41" y="214.6426">active</text></g><g id="Dead"><rect fill="#E8F5E9" height="50" rx="12.5" ry="12.5" style="stroke:#2E7D32;stroke-width:0.5;" width="81.4824" x="19" y="344.6094"/><line style="stroke:#2E7D32;stroke-width:0.5;" x1="19" x2="100.4824" y1="372.2188" y2="372.2188"/><text fill="#000000" font-family="sans-serif" font-size="14" lengthAdjust="spacing" textLength="61.4824" x="29" y="364.1426">destroyed</text></g><g id="elem_GMN8"><path d="M329,182.6094 L329,216.1094 L88.02,220.1094 L329,224.1094 L329,258.0156 A0,0 0 0 0 329,258.0156 L519.7808,258.0156 A0,0 0 0 0 519.7808,258.0156 L519.7808,192.6094 L509.7808,182.6094 L329,182.6094 A0,0 0 0 0 329,182.6094 " fill="#FEFFDD" style="stroke:#181818;stroke-width:0.5;"/><path d="M509.7808,182.6094 L509.7808,192.6094 L519.7808,192.6094 L509.7808,182.6094 " fill="#FEFFDD" style="stroke:#181818;stroke-width:0.5;"/><text fill="#000000" font-family="sans-serif" font-size="13" lengthAdjust="spacing" textLength="153.2007" x="335" y="201.1045">All 5 mouse handlers have</text><text fill="#000000" font-family="sans-serif" font-size="13" lengthAdjust="spacing" textLength="157.5298" x="335" y="217.4561">EMPTY bodies in the base.</text><text fill="#000000" font-family="sans-serif" font-size="13" lengthAdjust="spacing" textLength="169.7808" x="335" y="233.8076">Subclasses (CRotateTracker,</text><text fill="#000000" font-family="sans-serif" font-size="13" lengthAdjust="spacing" textLength="145.1963" x="335" y="250.1592">CZoomTracker) override.</text></g><!--link Pre to Active--><g id="link_Pre_Active"><path d="M59.5,95.6394 C59.5,123.0694 59.5,161.6694 59.5,189.0894 " fill="none" id="Pre-to-Active" style="stroke:#181818;stroke-width:1.0;"/><polygon fill="#181818" points="59.5,195.0894,63.5,186.0894,59.5,190.0894,55.5,186.0894,59.5,195.0894" style="stroke:#181818;stroke-width:1.0;"/><text fill="#000000" font-family="sans-serif" font-size="13" lengthAdjust="spacing" textLength="89.5781" x="60.5" y="140.1045">construct(View)</text></g><!--link Active to Active--><g id="link_Active_Active"><path d="M88.23,205.4694 C106.05,201.9394 123,206.8194 123,220.1094 C123,233.3994 111.9356,239.4453 94.1156,235.9153 " fill="none" id="Active-to-Active" style="stroke:#181818;stroke-width:1.0;"/><polygon fill="#181818" points="88.23,234.7494,96.2812,240.422,93.1347,235.721,97.8357,232.5745,88.23,234.7494" style="stroke:#181818;stroke-width:1.0;"/><text fill="#000000" font-family="sans-serif" font-size="13" lengthAdjust="spacing" textLength="156.7681" x="138.769" y="193.1045">is_inside(_) [returns TRUE]</text><text fill="#000000" font-family="sans-serif" font-size="13" lengthAdjust="spacing" textLength="172.7197" x="130.7932" y="209.4561">on_button_down(_, _) [empty]</text><text fill="#000000" font-family="sans-serif" font-size="13" lengthAdjust="spacing" textLength="156.1016" x="139.1023" y="225.8076">on_button_up(_, _) [empty]</text><text fill="#000000" font-family="sans-serif" font-size="13" lengthAdjust="spacing" textLength="176.3062" x="129" y="242.1592">on_mouse_move(_, _) [empty]</text><text fill="#000000" font-family="sans-serif" font-size="13" lengthAdjust="spacing" textLength="170.5361" x="131.885" y="258.5107">on_mouse_drag(_, _) [empty]</text></g><!--link Active to Dead--><g id="link_Active_Dead"><path d="M59.5,245.1394 C59.5,272.5694 59.5,311.1694 59.5,338.5894 " fill="none" id="Active-to-Dead" style="stroke:#181818;stroke-width:1.0;"/><polygon fill="#181818" points="59.5,344.5894,63.5,335.5894,59.5,339.5894,55.5,335.5894,59.5,344.5894" style="stroke:#181818;stroke-width:1.0;"/><text fill="#000000" font-family="sans-serif" font-size="13" lengthAdjust="spacing" textLength="46.2427" x="60.5" y="311.1045">destruct</text></g><!--SRC=[TPBHI-D04CRVzwyOx4iALhHUzPHIqEgz2Q9Lk3ibRBAJPZ7P2RCRIv7xts-ofbAnxaDOyltsc_bcDzXG8KodFjIp6SmNhFCNP4WoxN48jsnhpMku3peWtEYyj0wLyY_MDPfr3JuARmfaNShH9LFhp9mgukaqOrfv55k00HuNuyAySyG6-IlJhS7Hv6II7qRk5xcmcnBkqFmurKUxwmRasZfT2J_0dyK4pxxMtMAYtnXFpV5O_TlELcf3A-kMKEZAemhKG238A0IgmLZ6F5XoCeuuXBs6CSt9-S1j7lP0UnbVDzfDynjEox5NZC15tEvW38eDhT54x0grWUsUbUgiHzAU6yqsBkVmKJrvjBWQgbuORJFMfzPvQp19X_2NCRJiF2pk7gwVdnovD6ibdaixwoJTXmx2kWdhJshRxD1gQZtAznM_5GthvMVneyS-Iunw3Z6_157AaSo3xR8CG4KV8rxdHLN11A8lbDgP2jdBfbUlRsuNl-MkZ4KFra4e4RetVH3L-pRBA-szQCdyZhgPzoz_F-hpFqHr_sS8aeXP9dQWq1de6leF]--></g></svg>