<svg xmlns="http://www.w3.org/2000/svg" xmlns:xlink="http://www.w3.org/1999/xlink" contentStyleType="text/css" height="1603px" preserveAspectRatio="none" style="width:3872px;height:1603px;background:#FFFFFF;" version="1.1" viewBox="0 0 3872 1603" width="3872px" zoomAndPan="magnify"><title>&lt;&lt;act&gt;&gt; CPenBeamEditApp OnFileImport Pipeline</title><defs/><g><!--bg-injected--><rect x="0" y="0" width="100%" height="100%" fill="#FFFFFF"/><text fill="#000000" font-family="sans-serif" font-size="14" font-weight="bold" lengthAdjust="spacing" textLength="315.8408" x="1776.9146" y="34.5332">&#171;act&#187; CPenBeamEditApp OnFileImport Pipeline</text><rect fill="none" height="22.6406" style="stroke:none;stroke-width:1.0;" width="3839.6699" x="15" y="51.0645"/><ellipse cx="304.1074" cy="88.7051" fill="#222222" rx="10" ry="10" style="stroke:#222222;stroke-width:1.0;"/><rect fill="#E3F2FD" height="35.0938" rx="12.5" ry="12.5" style="stroke:#1565C0;stroke-width:0.5;" width="266.457" x="170.8789" y="118.7051"/><text fill="#0D47A1" font-family="sans-serif" font-size="12" lengthAdjust="spacing" textLength="246.457" x="180.8789" y="141.1621">CFileDialog dlgFile(TRUE, "dat", "density.dat")</text><polygon fill="#FFF3E0" points="254.5833,173.7988,353.6316,173.7988,365.6316,185.7988,353.6316,197.7988,254.5833,197.7988,242.5833,185.7988,254.5833,173.7988" style="stroke:#E65100;stroke-width:0.5;"/><text fill="#0D47A1" font-family="sans-serif" font-size="11" lengthAdjust="spacing" textLength="99.0483" x="254.5833" y="190.2998">DoModal == IDOK ?</text><text fill="#000000" font-family="sans-serif" font-size="11" lengthAdjust="spacing" textLength="17.1177" x="225.4656" y="183.3818">yes</text><text fill="#000000" font-family="sans-serif" font-size="11" lengthAdjust="spacing" textLength="12.2354" x="365.6316" y="183.3818">no</text><rect fill="#E3F2FD" height="35.0938" rx="12.5" ry="12.5" style="stroke:#1565C0;stroke-width:0.5;" width="313.0156" x="21" y="207.7988"/><text fill="#0D47A1" font-family="sans-serif" font-size="12" lengthAdjust="spacing" textLength="293.0156" x="31" y="230.2559">strPath := dlgFile.GetPathName().Left(ReverseFind('\'))</text><rect fill="#E3F2FD" height="35.0938" rx="12.5" ry="12.5" style="stroke:#1565C0;stroke-width:0.5;" width="153.3828" x="354.0156" y="207.7988"/><text fill="#0D47A1" font-family="sans-serif" font-size="12" lengthAdjust="spacing" textLength="133.3828" x="364.0156" y="230.2559">return -- import cancelled</text><ellipse cx="430.707" cy="273.8926" fill="none" rx="11" ry="11" style="stroke:#222222;stroke-width:1.0;"/><ellipse cx="430.707" cy="273.8926" fill="#222222" rx="6" ry="6" style="stroke:#222222;stroke-width:1.0;"/><line style="stroke:#000000;stroke-width:1.5;" x1="15" x2="15" y1="51.0645" y2="1591.9785"/><rect fill="#E3F2FD" height="35.0938" rx="12.5" ry="12.5" style="stroke:#1565C0;stroke-width:0.5;" width="192.377" x="543.0273" y="304.8926"/><text fill="#0D47A1" font-family="sans-serif" font-size="12" lengthAdjust="spacing" textLength="172.377" x="553.0273" y="327.3496">GetFirstDocTemplate() -&gt; CPlan</text><path d="M781.0332,371.2754 L781.0332,388.627 L761.0332,392.627 L781.0332,396.627 L781.0332,413.9785 A0,0 0 0 0 781.0332,413.9785 L969.6494,413.9785 A0,0 0 0 0 969.6494,413.9785 L969.6494,381.2754 L959.6494,371.2754 L781.0332,371.2754 A0,0 0 0 0 781.0332,371.2754 " fill="#FEFFDD" style="stroke:#181818;stroke-width:0.5;"/><path d="M959.6494,371.2754 L959.6494,381.2754 L969.6494,381.2754 L959.6494,371.2754 " fill="#FEFFDD" style="stroke:#181818;stroke-width:0.5;"/><text fill="#000000" font-family="sans-serif" font-size="13" lengthAdjust="spacing" textLength="167.6162" x="787.0332" y="389.7705">SetPathName called TWICE.</text><text fill="#000000" font-family="sans-serif" font-size="13" lengthAdjust="spacing" textLength="100.439" x="787.0332" y="406.1221">Second call wins.</text><rect fill="#E3F2FD" height="65.2813" rx="12.5" ry="12.5" style="stroke:#1565C0;stroke-width:0.5;" width="243.6348" x="517.3984" y="359.9863"/><text fill="#0D47A1" font-family="sans-serif" font-size="12" lengthAdjust="spacing" textLength="223.6348" x="527.3984" y="382.4434">pPlan-&gt;SetPathName("ImportedPlan.pln")</text><text fill="#0D47A1" font-family="sans-serif" font-size="12" lengthAdjust="spacing" textLength="206.2559" x="537.4004" y="397.5371">pPlan-&gt;SetPathName("IMPORT.PLN")</text><text fill="#0D47A1" font-family="sans-serif" font-size="12" lengthAdjust="spacing" textLength="136.4004" x="537.4004" y="412.6309">pPlan-&gt;SetModifiedFlag()</text><line style="stroke:#000000;stroke-width:1.5;" x1="511.3984" x2="511.3984" y1="51.0645" y2="1591.9785"/><rect fill="#E3F2FD" height="35.0938" rx="12.5" ry="12.5" style="stroke:#1565C0;stroke-width:0.5;" width="282.4297" x="987.5171" y="445.2676"/><text fill="#0D47A1" font-family="sans-serif" font-size="12" lengthAdjust="spacing" textLength="262.4297" x="997.5171" y="467.7246">m_pSeriesDocTemplate-&gt;CreateNewDocument()</text><rect fill="#E3F2FD" height="50.1875" rx="12.5" ry="12.5" style="stroke:#1565C0;stroke-width:0.5;" width="237.582" x="1009.9409" y="500.3613"/><text fill="#0D47A1" font-family="sans-serif" font-size="12" lengthAdjust="spacing" textLength="217.582" x="1019.9409" y="522.8184">pSeries-&gt;SetPathName("IMPORT.SER")</text><text fill="#0D47A1" font-family="sans-serif" font-size="12" lengthAdjust="spacing" textLength="146.3965" x="1029.9429" y="537.9121">pSeries-&gt;SetModifiedFlag()</text><line style="stroke:#000000;stroke-width:1.5;" x1="974.6494" x2="974.6494" y1="51.0645" y2="1591.9785"/><path d="M1562.4355,574.291 L1562.4355,591.6426 L1542.4355,595.6426 L1562.4355,599.6426 L1562.4355,616.9941 A0,0 0 0 0 1562.4355,616.9941 L1776.3599,616.9941 A0,0 0 0 0 1776.3599,616.9941 L1776.3599,584.291 L1766.3599,574.291 L1562.4355,574.291 A0,0 0 0 0 1562.4355,574.291 " fill="#FEFFDD" style="stroke:#181818;stroke-width:0.5;"/><path d="M1766.3599,574.291 L1766.3599,584.291 L1776.3599,584.291 L1766.3599,574.291 " fill="#FEFFDD" style="stroke:#181818;stroke-width:0.5;"/><text fill="#000000" font-family="sans-serif" font-size="13" lengthAdjust="spacing" textLength="192.9243" x="1568.4355" y="592.7861">Boundary: CStdioFile line-by-line.</text><text fill="#000000" font-family="sans-serif" font-size="13" lengthAdjust="spacing" textLength="179.2134" x="1568.4355" y="609.1377">Density values scaled by 1000.</text><rect fill="#E3F2FD" height="50.1875" rx="12.5" ry="12.5" style="stroke:#1565C0;stroke-width:0.5;" width="255.6211" x="1286.8145" y="570.5488"/><rect fill="#0D47A1" height="3.5" style="stroke:#0D47A1;stroke-width:0.0;" width="3.5" x="1305.8145" y="585.6426"/><text fill="#0D47A1" font-family="sans-serif" font-size="12" lengthAdjust="spacing" textLength="219.6211" x="1312.8145" y="593.0059">ReadAsciiImage(strPath + "\\density.dat",</text><text fill="#0D47A1" font-family="sans-serif" font-size="12" lengthAdjust="spacing" textLength="155.0859" x="1356.8262" y="608.0996">&amp;pSeries-&gt;volume, 1000.0)**</text><line style="stroke:#000000;stroke-width:1.5;" x1="1280.8145" x2="1280.8145" y1="51.0645" y2="1591.9785"/><rect fill="#E3F2FD" height="50.1875" rx="12.5" ry="12.5" style="stroke:#1565C0;stroke-width:0.5;" width="217.7598" x="1787.3599" y="640.7363"/><text fill="#0D47A1" font-family="sans-serif" font-size="12" lengthAdjust="spacing" textLength="122.7188" x="1797.3599" y="663.1934">CStructure constructed</text><text fill="#0D47A1" font-family="sans-serif" font-size="12" lengthAdjust="spacing" textLength="187.7578" x="1807.3618" y="678.2871">added to pSeries-&gt;m_arrStructures</text><rect fill="#E3F2FD" height="35.0938" rx="12.5" ry="12.5" style="stroke:#1565C0;stroke-width:0.5;" width="206.3926" x="1793.0435" y="710.9238"/><text fill="#0D47A1" font-family="sans-serif" font-size="12" lengthAdjust="spacing" textLength="186.3926" x="1803.0435" y="733.3809">pRegion-&gt;SetDimensions(W, H, D)</text><path d="M2022.2837,756.0176 L2022.2837,789.7207 L2002.2837,793.7207 L2022.2837,797.7207 L2022.2837,831.4238 A0,0 0 0 0 2022.2837,831.4238 L2221.0498,831.4238 A0,0 0 0 0 2221.0498,831.4238 L2221.0498,766.0176 L2211.0498,756.0176 L2022.2837,756.0176 A0,0 0 0 0 2022.2837,756.0176 " fill="#FEFFDD" style="stroke:#181818;stroke-width:0.5;"/><path d="M2211.0498,756.0176 L2211.0498,766.0176 L2221.0498,766.0176 L2211.0498,756.0176 " fill="#FEFFDD" style="stroke:#181818;stroke-width:0.5;"/><text fill="#000000" font-family="sans-serif" font-size="13" lengthAdjust="spacing" textLength="176.1284" x="2028.2837" y="774.5127">Comment claims "all ones" but</text><text fill="#000000" font-family="sans-serif" font-size="13" lengthAdjust="spacing" textLength="167.6416" x="2028.2837" y="790.8643">the loop only writes 1s where</text><text fill="#000000" font-family="sans-serif" font-size="13" lengthAdjust="spacing" textLength="177.7661" x="2028.2837" y="807.2158">nAtX &gt; 45 &amp;&amp; nAtX &lt; 55. Quirk</text><text fill="#000000" font-family="sans-serif" font-size="13" lengthAdjust="spacing" textLength="114.8799" x="2028.2837" y="823.5674">preserved verbatim.</text><rect fill="#E3F2FD" height="50.1875" rx="12.5" ry="12.5" style="stroke:#1565C0;stroke-width:0.5;" width="212.0879" x="1790.1958" y="768.627"/><text fill="#0D47A1" font-family="sans-serif" font-size="12" lengthAdjust="spacing" textLength="192.0879" x="1800.1958" y="791.084">initialize region: ones in vertical strip</text><text fill="#0D47A1" font-family="sans-serif" font-size="12" lengthAdjust="spacing" textLength="160.0723" x="1810.1978" y="806.1777">nAtX in 46..54 (NOT all ones!)</text><line style="stroke:#000000;stroke-width:1.5;" x1="1781.3599" x2="1781.3599" y1="51.0645" y2="1591.9785"/><rect fill="#E3F2FD" height="35.0938" rx="12.5" ry="12.5" style="stroke:#1565C0;stroke-width:0.5;" width="162.4004" x="2271.7061" y="851.4238"/><text fill="#0D47A1" font-family="sans-serif" font-size="12" lengthAdjust="spacing" textLength="142.4004" x="2281.7061" y="873.8809">pPlan-&gt;SetSeries(pSeries)</text><rect fill="#E3F2FD" height="35.0938" rx="12.5" ry="12.5" style="stroke:#1565C0;stroke-width:0.5;" width="241.7129" x="2232.0498" y="906.5176"/><text fill="#0D47A1" font-family="sans-serif" font-size="12" lengthAdjust="spacing" textLength="221.7129" x="2242.0498" y="928.9746">GetDoseMatrix-&gt;SetDimensions(W, H, D)</text><rect fill="#E3F2FD" height="35.0938" rx="12.5" ry="12.5" style="stroke:#1565C0;stroke-width:0.5;" width="176.4277" x="2264.6924" y="1005.6113"/><text fill="#0D47A1" font-family="sans-serif" font-size="12" lengthAdjust="spacing" textLength="156.4277" x="2274.6924" y="1028.0684">read dose%i.dat (nAt = 1..99)</text><rect fill="#E3F2FD" height="80.375" rx="12.5" ry="12.5" style="stroke:#1565C0;stroke-width:0.5;" width="203.0938" x="2251.3594" y="1060.7051"/><text fill="#0D47A1" font-family="sans-serif" font-size="12" lengthAdjust="spacing" textLength="114.0527" x="2261.3594" y="1083.1621">CBeam pPencilBeam</text><text fill="#0D47A1" font-family="sans-serif" font-size="12" lengthAdjust="spacing" textLength="146.0684" x="2271.3613" y="1098.2559">SetWeight(gaussian(50, 7))</text><text fill="#0D47A1" font-family="sans-serif" font-size="12" lengthAdjust="spacing" textLength="113.3672" x="2271.3613" y="1113.3496">SetDoseValid(TRUE)</text><text fill="#0D47A1" font-family="sans-serif" font-size="12" lengthAdjust="spacing" textLength="173.0918" x="2271.3613" y="1128.4434">pPlan-&gt;AddBeam(pPencilBeam)</text><path d="M2491.1084,1172.3691 L2491.1084,1189.7207 L2471.1084,1193.7207 L2491.1084,1197.7207 L2491.1084,1215.0723 A0,0 0 0 0 2491.1084,1215.0723 L2677.9409,1215.0723 A0,0 0 0 0 2677.9409,1215.0723 L2677.9409,1182.3691 L2667.9409,1172.3691 L2491.1084,1172.3691 A0,0 0 0 0 2491.1084,1172.3691 " fill="#FEFFDD" style="stroke:#181818;stroke-width:0.5;"/><path d="M2667.9409,1172.3691 L2667.9409,1182.3691 L2677.9409,1182.3691 L2667.9409,1172.3691 " fill="#FEFFDD" style="stroke:#181818;stroke-width:0.5;"/><text fill="#000000" font-family="sans-serif" font-size="13" lengthAdjust="spacing" textLength="165.8325" x="2497.1084" y="1190.8643">Loop starts at nAt=1, NOT 0.</text><text fill="#000000" font-family="sans-serif" font-size="13" lengthAdjust="spacing" textLength="148.8779" x="2497.1084" y="1207.2158">Reads 99 beams not 100.</text><rect fill="#E3F2FD" height="65.2813" rx="12.5" ry="12.5" style="stroke:#1565C0;stroke-width:0.5;" width="236.4043" x="2234.7041" y="1161.0801"/><text fill="#0D47A1" font-family="sans-serif" font-size="12" lengthAdjust="spacing" textLength="125.4082" x="2244.7041" y="1183.5371">weighted accumulation:</text><text fill="#0D47A1" font-family="sans-serif" font-size="12" lengthAdjust="spacing" textLength="181.4531" x="2254.7061" y="1198.6309">totalDose += weight * pencil_dose</text><text fill="#0D47A1" font-family="sans-serif" font-size="12" lengthAdjust="spacing" textLength="206.4023" x="2254.7061" y="1213.7246">maxDose := max(maxDose, totalDose)</text><polygon fill="#FFF3E0" points="2352.9063,961.6113,2364.9063,973.6113,2352.9063,985.6113,2340.9063,973.6113,2352.9063,961.6113" style="stroke:#E65100;stroke-width:0.5;"/><polygon fill="#FFF3E0" points="2324.6194,1246.3613,2381.1931,1246.3613,2393.1931,1258.3613,2381.1931,1270.3613,2324.6194,1270.3613,2312.6194,1258.3613,2324.6194,1246.3613" style="stroke:#E65100;stroke-width:0.5;"/><text fill="#0D47A1" font-family="sans-serif" font-size="11" lengthAdjust="spacing" textLength="56.5737" x="2324.6194" y="1262.8623">nAt &lt; 100 ?</text><line style="stroke:#000000;stroke-width:1.5;" x1="2226.0498" x2="2226.0498" y1="51.0645" y2="1591.9785"/><path d="M2993.3823,1280.3613 L2993.3823,1305.8887 L2973.3823,1309.8887 L2993.3823,1313.8887 L2993.3823,1339.416 A0,0 0 0 0 2993.3823,1339.416 L3209.8013,1339.416 A0,0 0 0 0 3209.8013,1339.416 L3209.8013,1290.3613 L3199.8013,1280.3613 L2993.3823,1280.3613 A0,0 0 0 0 2993.3823,1280.3613 " fill="#FEFFDD" style="stroke:#181818;stroke-width:0.5;"/><path d="M3199.8013,1280.3613 L3199.8013,1290.3613 L3209.8013,1290.3613 L3199.8013,1280.3613 " fill="#FEFFDD" style="stroke:#181818;stroke-width:0.5;"/><text fill="#000000" font-family="sans-serif" font-size="13" lengthAdjust="spacing" textLength="174.8525" x="2999.3823" y="1298.8564">Outer nAtY reuses scope from</text><text fill="#000000" font-family="sans-serif" font-size="13" lengthAdjust="spacing" textLength="195.4189" x="2999.3823" y="1315.208">cpp:261's loop. Pre-C++03 MSVC</text><text fill="#000000" font-family="sans-serif" font-size="13" lengthAdjust="spacing" textLength="185.6943" x="2999.3823" y="1331.5596">scope leak. Preserved verbatim.</text><rect fill="#E3F2FD" height="35.0938" rx="12.5" ry="12.5" style="stroke:#1565C0;stroke-width:0.5;" width="258.4414" x="2714.9409" y="1292.3418"/><text fill="#0D47A1" font-family="sans-serif" font-size="12" lengthAdjust="spacing" textLength="238.4414" x="2724.9409" y="1314.7988">for each (nAtY, nAtX): totalDose /= maxDose</text><line style="stroke:#000000;stroke-width:1.5;" x1="2708.9409" x2="2708.9409" y1="51.0645" y2="1591.9785"/><rect fill="#E3F2FD" height="35.0938" rx="12.5" ry="12.5" style="stroke:#1565C0;stroke-width:0.5;" width="184.4082" x="3277.6904" y="1359.416"/><text fill="#0D47A1" font-family="sans-serif" font-size="12" lengthAdjust="spacing" textLength="164.4082" x="3287.6904" y="1381.873">pPlan-&gt;UpdateAllViews(NULL)</text><rect fill="#E3F2FD" height="35.0938" rx="12.5" ry="12.5" style="stroke:#1565C0;stroke-width:0.5;" width="197.0527" x="3271.3682" y="1414.5098"/><text fill="#0D47A1" font-family="sans-serif" font-size="12" lengthAdjust="spacing" textLength="177.0527" x="3281.3682" y="1436.9668">m_pMainWnd-&gt;RedrawWindow()</text><line style="stroke:#000000;stroke-width:1.5;" x1="3214.8013" x2="3214.8013" y1="51.0645" y2="1591.9785"/><rect fill="#E3F2FD" height="80.375" rx="12.5" ry="12.5" style="stroke:#1565C0;stroke-width:0.5;" width="320.1816" x="3528.9878" y="1469.6035"/><text fill="#0D47A1" font-family="sans-serif" font-size="12" lengthAdjust="spacing" textLength="94.0547" x="3538.9878" y="1492.0605">Plan synthesized:</text><text fill="#0D47A1" font-family="sans-serif" font-size="12" lengthAdjust="spacing" textLength="272.4492" x="3548.9897" y="1507.1543">pSeries with density volume + strip-region structure</text><text fill="#0D47A1" font-family="sans-serif" font-size="12" lengthAdjust="spacing" textLength="290.1797" x="3548.9897" y="1522.248">pPlan with 99 weighted pencil-beam dose components</text><text fill="#0D47A1" font-family="sans-serif" font-size="12" lengthAdjust="spacing" textLength="156.082" x="3548.9897" y="1537.3418">totalDose normalized to [0, 1]</text><ellipse cx="3689.0786" cy="1580.9785" fill="none" rx="11" ry="11" style="stroke:#222222;stroke-width:1.0;"/><ellipse cx="3689.0786" cy="1580.9785" fill="#222222" rx="6" ry="6" style="stroke:#222222;stroke-width:1.0;"/><line style="stroke:#000000;stroke-width:1.5;" x1="3522.9878" x2="3522.9878" y1="51.0645" y2="1591.9785"/><line style="stroke:#000000;stroke-width:1.5;" x1="3853.1694" x2="3853.1694" y1="51.0645" y2="1591.9785"/><line style="stroke:#181818;stroke-width:1.0;" x1="304.1074" x2="304.1074" y1="98.7051" y2="118.7051"/><polygon fill="#181818" points="300.1074,108.7051,304.1074,118.7051,308.1074,108.7051,304.1074,112.7051" style="stroke:#181818;stroke-width:1.0;"/><line style="stroke:#181818;stroke-width:1.0;" x1="430.707" x2="430.707" y1="242.8926" y2="262.8926"/><polygon fill="#181818" points="426.707,252.8926,430.707,262.8926,434.707,252.8926,430.707,256.8926" style="stroke:#181818;stroke-width:1.0;"/><line style="stroke:#181818;stroke-width:1.0;" x1="242.5833" x2="177.5078" y1="185.7988" y2="185.7988"/><line style="stroke:#181818;stroke-width:1.0;" x1="177.5078" x2="177.5078" y1="185.7988" y2="207.7988"/><polygon fill="#181818" points="173.5078,197.7988,177.5078,207.7988,181.5078,197.7988,177.5078,201.7988" style="stroke:#181818;stroke-width:1.0;"/><line style="stroke:#181818;stroke-width:1.0;" x1="365.6316" x2="430.707" y1="185.7988" y2="185.7988"/><line style="stroke:#181818;stroke-width:1.0;" x1="430.707" x2="430.707" y1="185.7988" y2="207.7988"/><polygon fill="#181818" points="426.707,197.7988,430.707,207.7988,434.707,197.7988,430.707,201.7988" style="stroke:#181818;stroke-width:1.0;"/><line style="stroke:#181818;stroke-width:1.0;" x1="177.5078" x2="177.5078" y1="242.8926" y2="289.8926"/><line style="stroke:#181818;stroke-width:1.0;" x1="177.5078" x2="639.2158" y1="289.8926" y2="289.8926"/><line style="stroke:#181818;stroke-width:1.0;" x1="639.2158" x2="639.2158" y1="289.8926" y2="304.8926"/><polygon fill="#181818" points="635.2158,294.8926,639.2158,304.8926,643.2158,294.8926,639.2158,298.8926" style="stroke:#181818;stroke-width:1.0;"/><line style="stroke:#181818;stroke-width:1.0;" x1="304.1074" x2="304.1074" y1="153.7988" y2="173.7988"/><polygon fill="#181818" points="300.1074,163.7988,304.1074,173.7988,308.1074,163.7988,304.1074,167.7988" style="stroke:#181818;stroke-width:1.0;"/><line style="stroke:#181818;stroke-width:1.0;" x1="639.2158" x2="639.2158" y1="339.9863" y2="359.9863"/><polygon fill="#181818" points="635.2158,349.9863,639.2158,359.9863,643.2158,349.9863,639.2158,353.9863" style="stroke:#181818;stroke-width:1.0;"/><line style="stroke:#181818;stroke-width:1.0;" x1="1128.7319" x2="1128.7319" y1="480.3613" y2="500.3613"/><polygon fill="#181818" points="1124.7319,490.3613,1128.7319,500.3613,1132.7319,490.3613,1128.7319,494.3613" style="stroke:#181818;stroke-width:1.0;"/><line style="stroke:#181818;stroke-width:1.0;" x1="1896.2397" x2="1896.2397" y1="690.9238" y2="710.9238"/><polygon fill="#181818" points="1892.2397,700.9238,1896.2397,710.9238,1900.2397,700.9238,1896.2397,704.9238" style="stroke:#181818;stroke-width:1.0;"/><line style="stroke:#181818;stroke-width:1.0;" x1="1896.2397" x2="1896.2397" y1="746.0176" y2="768.627"/><polygon fill="#181818" points="1892.2397,758.627,1896.2397,768.627,1900.2397,758.627,1896.2397,762.627" style="stroke:#181818;stroke-width:1.0;"/><line style="stroke:#181818;stroke-width:1.0;" x1="2352.9063" x2="2352.9063" y1="886.5176" y2="906.5176"/><polygon fill="#181818" points="2348.9063,896.5176,2352.9063,906.5176,2356.9063,896.5176,2352.9063,900.5176" style="stroke:#181818;stroke-width:1.0;"/><line style="stroke:#181818;stroke-width:1.0;" x1="2352.9063" x2="2352.9063" y1="1040.7051" y2="1060.7051"/><polygon fill="#181818" points="2348.9063,1050.7051,2352.9063,1060.7051,2356.9063,1050.7051,2352.9063,1054.7051" style="stroke:#181818;stroke-width:1.0;"/><line style="stroke:#181818;stroke-width:1.0;" x1="2352.9063" x2="2352.9063" y1="1141.0801" y2="1161.0801"/><polygon fill="#181818" points="2348.9063,1151.0801,2352.9063,1161.0801,2356.9063,1151.0801,2352.9063,1155.0801" style="stroke:#181818;stroke-width:1.0;"/><line style="stroke:#181818;stroke-width:1.0;" x1="2352.9063" x2="2352.9063" y1="985.6113" y2="1005.6113"/><polygon fill="#181818" points="2348.9063,995.6113,2352.9063,1005.6113,2356.9063,995.6113,2352.9063,999.6113" style="stroke:#181818;stroke-width:1.0;"/><line style="stroke:#181818;stroke-width:1.0;" x1="2393.1931" x2="2689.9409" y1="1258.3613" y2="1258.3613"/><polygon fill="#181818" points="2685.9409,1125.9863,2689.9409,1115.9863,2693.9409,1125.9863,2689.9409,1121.9863" style="stroke:#181818;stroke-width:1.0;"/><line style="stroke:#181818;stroke-width:1.0;" x1="2689.9409" x2="2689.9409" y1="973.6113" y2="1258.3613"/><line style="stroke:#181818;stroke-width:1.0;" x1="2689.9409" x2="2364.9063" y1="973.6113" y2="973.6113"/><polygon fill="#181818" points="2374.9063,969.6113,2364.9063,973.6113,2374.9063,977.6113,2370.9063,973.6113" style="stroke:#181818;stroke-width:1.0;"/><line style="stroke:#181818;stroke-width:1.0;" x1="2352.9063" x2="2352.9063" y1="1226.3613" y2="1246.3613"/><polygon fill="#181818" points="2348.9063,1236.3613,2352.9063,1246.3613,2356.9063,1236.3613,2352.9063,1240.3613" style="stroke:#181818;stroke-width:1.0;"/><line style="stroke:#181818;stroke-width:1.0;" x1="2352.9063" x2="2352.9063" y1="941.6113" y2="961.6113"/><polygon fill="#181818" points="2348.9063,951.6113,2352.9063,961.6113,2356.9063,951.6113,2352.9063,955.6113" style="stroke:#181818;stroke-width:1.0;"/><line style="stroke:#181818;stroke-width:1.0;" x1="3369.8945" x2="3369.8945" y1="1394.5098" y2="1414.5098"/><polygon fill="#181818" points="3365.8945,1404.5098,3369.8945,1414.5098,3373.8945,1404.5098,3369.8945,1408.5098" style="stroke:#181818;stroke-width:1.0;"/><line style="stroke:#181818;stroke-width:1.0;" x1="3689.0786" x2="3689.0786" y1="1549.9785" y2="1569.9785"/><polygon fill="#181818" points="3685.0786,1559.9785,3689.0786,1569.9785,3693.0786,1559.9785,3689.0786,1563.9785" style="stroke:#181818;stroke-width:1.0;"/><line style="stroke:#181818;stroke-width:1.0;" x1="639.2158" x2="639.2158" y1="425.2676" y2="430.2676"/><line style="stroke:#181818;stroke-width:1.0;" x1="639.2158" x2="1128.7319" y1="430.2676" y2="430.2676"/><line style="stroke:#181818;stroke-width:1.0;" x1="1128.7319" x2="1128.7319" y1="430.2676" y2="445.2676"/><polygon fill="#181818" points="1124.7319,435.2676,1128.7319,445.2676,1132.7319,435.2676,1128.7319,439.2676" style="stroke:#181818;stroke-width:1.0;"/><line style="stroke:#181818;stroke-width:1.0;" x1="1128.7319" x2="1128.7319" y1="550.5488" y2="555.5488"/><line style="stroke:#181818;stroke-width:1.0;" x1="1128.7319" x2="1414.625" y1="555.5488" y2="555.5488"/><line style="stroke:#181818;stroke-width:1.0;" x1="1414.625" x2="1414.625" y1="555.5488" y2="570.5488"/><polygon fill="#181818" points="1410.625,560.5488,1414.625,570.5488,1418.625,560.5488,1414.625,564.5488" style="stroke:#181818;stroke-width:1.0;"/><line style="stroke:#181818;stroke-width:1.0;" x1="1414.625" x2="1414.625" y1="620.7363" y2="625.7363"/><line style="stroke:#181818;stroke-width:1.0;" x1="1414.625" x2="1896.2397" y1="625.7363" y2="625.7363"/><line style="stroke:#181818;stroke-width:1.0;" x1="1896.2397" x2="1896.2397" y1="625.7363" y2="640.7363"/><polygon fill="#181818" points="1892.2397,630.7363,1896.2397,640.7363,1900.2397,630.7363,1896.2397,634.7363" style="stroke:#181818;stroke-width:1.0;"/><line style="stroke:#181818;stroke-width:1.0;" x1="1896.2397" x2="1896.2397" y1="818.8145" y2="836.4238"/><line style="stroke:#181818;stroke-width:1.0;" x1="1896.2397" x2="2352.9063" y1="836.4238" y2="836.4238"/><line style="stroke:#181818;stroke-width:1.0;" x1="2352.9063" x2="2352.9063" y1="836.4238" y2="851.4238"/><polygon fill="#181818" points="2348.9063,841.4238,2352.9063,851.4238,2356.9063,841.4238,2352.9063,845.4238" style="stroke:#181818;stroke-width:1.0;"/><line style="stroke:#181818;stroke-width:1.0;" x1="2352.9063" x2="2352.9063" y1="1270.3613" y2="1275.3613"/><line style="stroke:#181818;stroke-width:1.0;" x1="2352.9063" x2="2844.1616" y1="1275.3613" y2="1275.3613"/><line style="stroke:#181818;stroke-width:1.0;" x1="2844.1616" x2="2844.1616" y1="1275.3613" y2="1292.3418"/><polygon fill="#181818" points="2840.1616,1282.3418,2844.1616,1292.3418,2848.1616,1282.3418,2844.1616,1286.3418" style="stroke:#181818;stroke-width:1.0;"/><line style="stroke:#181818;stroke-width:1.0;" x1="2844.1616" x2="2844.1616" y1="1327.4355" y2="1344.416"/><line style="stroke:#181818;stroke-width:1.0;" x1="2844.1616" x2="3369.8945" y1="1344.416" y2="1344.416"/><line style="stroke:#181818;stroke-width:1.0;" x1="3369.8945" x2="3369.8945" y1="1344.416" y2="1359.416"/><polygon fill="#181818" points="3365.8945,1349.416,3369.8945,1359.416,3373.8945,1349.416,3369.8945,1353.416" style="stroke:#181818;stroke-width:1.0;"/><line style="stroke:#181818;stroke-width:1.0;" x1="3369.8945" x2="3369.8945" y1="1449.6035" y2="1454.6035"/><line style="stroke:#181818;stroke-width:1.0;" x1="3369.8945" x2="3689.0786" y1="1454.6035" y2="1454.6035"/><line style="stroke:#181818;stroke-width:1.0;" x1="3689.0786" x2="3689.0786" y1="1454.6035" y2="1469.6035"/><polygon fill="#181818" points="3685.0786,1459.6035,3689.0786,1469.6035,3693.0786,1459.6035,3689.0786,1463.6035" style="stroke:#181818;stroke-width:1.0;"/><text fill="#000000" font-family="sans-serif" font-size="18" lengthAdjust="spacing" textLength="269.1738" x="128.6123" y="69.75">Phase 1: file dialog (cpp:218-224)</text><text fill="#000000" font-family="sans-serif" font-size="18" lengthAdjust="spacing" textLength="325.2217" x="580.4131" y="69.75">Phase 2: setup plan paths (cpp:226-236)</text><text fill="#000000" font-family="sans-serif" font-size="18" lengthAdjust="spacing" textLength="296.165" x="979.6494" y="69.75">Phase 3: create series (cpp:238-244)</text><text fill="#000000" font-family="sans-serif" font-size="18" lengthAdjust="spacing" textLength="291.1816" x="1385.4963" y="69.75">Phase 4: read density (cpp:247-248)</text><text fill="#000000" font-family="sans-serif" font-size="18" lengthAdjust="spacing" textLength="291.1553" x="1858.1272" y="69.75">Phase 5: init structure (cpp:251-270)</text><text fill="#000000" font-family="sans-serif" font-size="18" lengthAdjust="spacing" textLength="340.207" x="2297.3918" y="69.75">Phase 6: read pencil beams (cpp:286-311)</text><text fill="#000000" font-family="sans-serif" font-size="18" lengthAdjust="spacing" textLength="315.1846" x="2804.2788" y="69.75">Phase 7: normalize dose (cpp:314-320)</text><text fill="#000000" font-family="sans-serif" font-size="18" lengthAdjust="spacing" textLength="298.1865" x="3219.8013" y="69.75">Phase 8: update views (cpp:323-324)</text><text fill="#000000" font-family="sans-serif" font-size="18" lengthAdjust="spacing" textLength="54.0352" x="3661.061" y="69.75">Output</text><!--SRC=[XLLjK-Cs4FwUNx7DJUySYDquRu0XTBW4MgQyf06EtfJEZR2KH8CjUII5N3htuxlhbv23jCqNnzQZrVFiFhjoqYK2ZevOx8wFOJWMwgDWwIcNxYJBu5gToKISfvas3iOo4ubKebQpJr9bpB0KS9jybcxraSLFCwCNYWzreWsy4vrfUygt8RNXmXGe-hqBU_rUtDg2FDFAlU0GsUBTFHPkGOuaIxNYRqXCfzEEQFt7XjTSHByNjZOts3dZUYdL3AOiiIZzstZEh80mWYbc1hXaYPw15sTPr0xt_NQxs_XMiuuPLuk6bBnHWU39ZDwysydTQHFgdBawFOIoI2UWryPXJKx16-bBpLa2Wm6SZwv_WvyRuEP2WRSIjb4Zbf5rPipS7A915JRuHJZwTCLIuJM22p5rtaGy2sF5cLJS-_3myA611mZK09xIPI0ZtC8ey7sGHObZfcAH988VvW3hT5OJYilfMdWx0ekxCiWIfY33Cssfljttsvq-ge-Gp9aqrerqV2jI13ea1JxP2pSTrgACdlxnpGRfUc4omMafo19LppbkHLwEhoUtmVZYwZK6CoUdKl2pXCqybAkq4s3aREuGjn43TP98kBq_7vu6-LgCTiW_0rRR1gGQQFjQU2U2s0YKWlgD59Ng3jQyIpMFqY_PJRwo8Ti_7kPxhiGIlovIeHpnYahaTc4tfvDIs0RgjRIALZS2F853wQIILNSFMUqJgvsT2IwVs5ZAyvJDX5UPPnVg3m-R_clMuCtl_Ph2iqwGVXEmFLf1gx6pyogx7wdjc5b5CBnnN6fo9T2qy1zNFZqfpQEIv3DB5fX1Y_d6AZokYgXlSzwBG2hfq8Tc4QDLHIcl5_hjlHR9myEg9QnWWHESb33ECRRJBrbClp1ZrdXBPPY8cTI5TqOo9NOOnBjlmgzD656Xw7XiOFatAisn4MY5rAK2x2udKG6nanaTgKxS7xJIxGT1hmlUrVKjaADenm-lxJZKATa1ueJ9r4Az0jRXSK7hsFIGQ9tXnsG5IoCT7XjQMCw54RNoi6Fezk3z- -Bb27gz07vVIFE4wnbA5EOPSu147vcJwPO4zqltP4B5Ce577FsLiVVxVYSCASSl_LLaqYipIld1LXzfAouPvk3hl-VHY0pRe1ewP5VSzACat-4uEd4mW3083WuQnTo9XdG9OMFdjEX_vKqyu5vG1hqPMrWhcV9whIRiDHeR26Bq2Ol6yscxNYbrd71E4RsDwDMnopmqfep5sAmBx62gUBNVQSSIYWsx0oYWi5EcxWi9ge0f-vh3S3xZNwzyRRu4M6S4gqbzagVWYBe0n_ttDhaW2-JtYGN48t0GDe6SrQAEekQsS71GbWwtKfGjbTwByDsaXPM9R57cJjZrE-sybQPu2GeMptCsdvkvfnhHXkgV1fMoLrQ-NZXX2FyPtRImUMVhJC3KQ2fSRgT- -C7cVWvWR8G_tDrjTU3ovjCG0GKw4UmfN_n_s-v7iCWupU9dAPQbOplj3ahfRZZsBiUS9CadGdbNTnSNv5aSr9TCgdl5_UE9u8Ojx_6ErCjYhAAORE4m2CK0krBOY1QJngEDaOoN18xGQkOMin4dQZu9_69Gl0ojzHrLxC9YhNrMcCUduXL5YJLUWmhdWgrzvxXrxVAHzYTQFlphi4Rtypy0]--></g></svg>