<svg xmlns="http://www.w3.org/2000/svg" xmlns:xlink="http://www.w3.org/1999/xlink" contentStyleType="text/css" height="516px" preserveAspectRatio="none" style="width:982px;height:516px;background:#FFFFFF;" version="1.1" viewBox="0 0 982 516" width="982px" zoomAndPan="magnify"><title>&lt;&lt;stm&gt;&gt; CPenBeamEditApp Primary State Machine</title><defs/><g><!--bg-injected--><rect x="0" y="0" width="100%" height="100%" fill="#FFFFFF"/><text fill="#000000" font-family="sans-serif" font-size="14" font-weight="bold" lengthAdjust="spacing" textLength="325.9922" x="321.3511" y="24.5332">&#171;stm&#187; CPenBeamEditApp Primary State Machine</text><!--cluster Browse--><g id="cluster_Browse"><path d="M19.5,183.6094 L735.5,183.6094 A12.5,12.5 0 0 1 748,196.1094 L748,206.2188 L7,206.2188 L7,196.1094 A12.5,12.5 0 0 1 19.5,183.6094 " fill="#E3F2FD" style="stroke:#E3F2FD;stroke-width:1.0;"/><rect fill="none" height="327" rx="12.5" ry="12.5" style="stroke:#1565C0;stroke-width:0.5;" width="741" x="7" y="183.6094"/><line style="stroke:#1565C0;stroke-width:0.5;" x1="7" x2="748" y1="206.2188" y2="206.2188"/><text fill="#0D47A1" font-family="sans-serif" font-size="14" lengthAdjust="spacing" textLength="46.6826" x="347.5" y="202.1426">Browse</text></g><g id="Browse.Initialized"><rect fill="#E3F2FD" height="50" rx="12.5" ry="12.5" style="stroke:#1565C0;stroke-width:0.5;" width="77.5859" x="31" y="296.1094"/><line style="stroke:#1565C0;stroke-width:0.5;" x1="31" x2="108.5859" y1="323.7188" y2="323.7188"/><text fill="#0D47A1" font-family="sans-serif" font-size="14" lengthAdjust="spacing" textLength="57.5859" x="41" y="315.6426">initialized</text></g><g id="Browse.About"><rect fill="#FFF3E0" height="50" rx="12.5" ry="12.5" style="stroke:#E65100;stroke-width:0.5;" width="114.1855" x="83" y="436.6094"/><line style="stroke:#E65100;stroke-width:0.5;" x1="83" x2="197.1855" y1="464.2188" y2="464.2188"/><text fill="#BF360C" font-family="sans-serif" font-size="14" lengthAdjust="spacing" textLength="94.1855" x="93" y="456.1426">showing_about</text></g><g id="Browse.Importing"><rect fill="#E8EAF6" height="52.7031" rx="12.5" ry="12.5" style="stroke:#283593;stroke-width:0.5;" width="180.752" x="355.5" y="294.6094"/><line style="stroke:#283593;stroke-width:0.5;" x1="355.5" x2="536.252" y1="322.2188" y2="322.2188"/><text fill="#1A237E" font-family="sans-serif" font-size="14" lengthAdjust="spacing" textLength="57.5791" x="417.0864" y="314.1426">importing</text><text fill="#1A237E" font-family="sans-serif" font-size="12" lengthAdjust="spacing" textLength="160.752" x="360.5" y="339.6758">8-phase OnFileImport pipeline</text></g><g id="elem_GMN14"><path d="M144,283.6094 L144,317.1094 L109.23,321.1094 L144,325.1094 L144,359.0156 A0,0 0 0 0 144,359.0156 L319.6797,359.0156 A0,0 0 0 0 319.6797,359.0156 L319.6797,293.6094 L309.6797,283.6094 L144,283.6094 A0,0 0 0 0 144,283.6094 " fill="#FEFFDD" style="stroke:#181818;stroke-width:0.5;"/><path d="M309.6797,283.6094 L309.6797,293.6094 L319.6797,293.6094 L309.6797,283.6094 " fill="#FEFFDD" style="stroke:#181818;stroke-width:0.5;"/><text fill="#000000" font-family="sans-serif" font-size="13" lengthAdjust="spacing" textLength="154.6797" x="150" y="302.1045">on_file_new / on_file_open</text><text fill="#000000" font-family="sans-serif" font-size="13" lengthAdjust="spacing" textLength="117.0825" x="150" y="318.4561">/ on_file_print_setup</text><text fill="#000000" font-family="sans-serif" font-size="13" lengthAdjust="spacing" textLength="130.7808" x="150" y="334.8076">forwarded to CWinApp</text><text fill="#000000" font-family="sans-serif" font-size="13" lengthAdjust="spacing" textLength="122.8398" x="150" y="351.1592">defaults (no override)</text></g><g id="PreInit"><rect fill="#E3F2FD" height="50" rx="12.5" ry="12.5" style="stroke:#1565C0;stroke-width:0.5;" width="65.917" x="37" y="45.6094"/><line style="stroke:#1565C0;stroke-width:0.5;" x1="37" x2="102.917" y1="73.2188" y2="73.2188"/><text fill="#0D47A1" font-family="sans-serif" font-size="14" lengthAdjust="spacing" textLength="45.917" x="47" y="65.1426">pre_init</text></g><g id="Exited"><rect fill="#E8F5E9" height="50" rx="12.5" ry="12.5" style="stroke:#2E7D32;stroke-width:0.5;" width="57.3584" x="772.5" y="436.6094"/><line style="stroke:#2E7D32;stroke-width:0.5;" x1="772.5" x2="829.8584" y1="464.2188" y2="464.2188"/><text fill="#1B5E20" font-family="sans-serif" font-size="14" lengthAdjust="spacing" textLength="37.3584" x="782.5" y="456.1426">exited</text></g><!--link Initialized to About--><g id="link_Initialized_About"><path d="M62.25,346.4094 C58.07,364.0694 55.49,388.0394 65,406.6094 C71.14,418.6094 76.4772,425.0109 87.3972,432.9509 " fill="none" id="Initialized-to-About" style="stroke:#181818;stroke-width:1.0;"/><polygon fill="#181818" points="92.25,436.4794,87.3231,427.9514,88.206,433.539,82.6185,434.4218,92.25,436.4794" style="stroke:#181818;stroke-width:1.0;"/><text fill="#000000" font-family="sans-serif" font-size="13" lengthAdjust="spacing" textLength="83.1416" x="66" y="403.1045">on_app_about</text></g><!--reverse link Initialized to About--><g id="link_Initialized_About"><path d="M111.6365,349.8028 C131.7265,363.9428 148.69,377.6394 154,388.6094 C161.21,403.5094 157.49,421.8494 152.08,436.2794 " fill="none" id="Initialized-backto-About" style="stroke:#181818;stroke-width:1.0;"/><polygon fill="#181818" points="106.73,346.3494,111.7876,354.8005,110.8188,349.2272,116.3921,348.2584,106.73,346.3494" style="stroke:#181818;stroke-width:1.0;"/><text fill="#000000" font-family="sans-serif" font-size="13" lengthAdjust="spacing" textLength="70.1099" x="158" y="403.1045">about_close</text></g><!--link Initialized to Importing--><g id="link_Initialized_Importing"><path d="M72.15,295.8894 C76.44,263.3594 89.19,207.9294 127,182.6094 C204.91,130.4194 253.73,141.4594 338,182.6094 C385.54,205.8194 415.6312,255.7911 431.7712,289.0611 " fill="none" id="Initialized-to-Importing" style="stroke:#181818;stroke-width:1.0;"/><polygon fill="#181818" points="434.39,294.4594,434.0606,284.616,432.2076,289.9608,426.8629,288.1078,434.39,294.4594" style="stroke:#181818;stroke-width:1.0;"/><text fill="#000000" font-family="sans-serif" font-size="13" lengthAdjust="spacing" textLength="81.6563" x="154.5" y="148.1045">on_file_import</text></g><!--reverse link Initialized to Importing--><g id="link_Initialized_Importing"><path d="M72.9345,289.9409 C77.2245,257.4109 89.19,207.9294 127,182.6094 C204.91,130.4194 253.73,141.4594 338,182.6094 C385.54,205.8194 418.25,261.1894 434.39,294.4594 " fill="none" id="Initialized-backto-Importing" style="stroke:#181818;stroke-width:1.0;"/><polygon fill="#181818" points="72.15,295.8894,77.2924,287.4896,72.8037,290.9323,69.3611,286.4436,72.15,295.8894" style="stroke:#181818;stroke-width:1.0;"/><text fill="#000000" font-family="sans-serif" font-size="13" lengthAdjust="spacing" textLength="72.2681" x="159.0032" y="140.1045">import_done</text><text fill="#000000" font-family="sans-serif" font-size="13" lengthAdjust="spacing" textLength="98.2744" x="146" y="156.4561">import_cancelled</text></g><!--link Importing to Importing--><g id="link_Importing_Importing"><path d="M536.53,307.2294 C556.75,308.4994 571.5,313.1294 571.5,321.1094 C571.5,329.0894 562.7382,333.3433 542.5182,334.6133 " fill="none" id="Importing-to-Importing" style="stroke:#181818;stroke-width:1.0;"/><polygon fill="#181818" points="536.53,334.9894,545.763,338.4173,541.5202,334.6759,545.2616,330.4331,536.53,334.9894" style="stroke:#181818;stroke-width:1.0;"/><text fill="#000000" font-family="sans-serif" font-size="13" lengthAdjust="spacing" textLength="138.7471" x="577.5" y="326.6045">import_phase_complete</text></g><!--link PreInit to Initialized--><g id="link_PreInit_Initialized"><path d="M70,95.8894 C70,143.5194 70,242.6794 70,290.0994 " fill="none" id="PreInit-to-Initialized" style="stroke:#181818;stroke-width:1.0;"/><polygon fill="#181818" points="70,296.0994,74,287.0994,70,291.0994,66,287.0994,70,296.0994" style="stroke:#181818;stroke-width:1.0;"/><text fill="#000000" font-family="sans-serif" font-size="13" lengthAdjust="spacing" textLength="72.2681" x="71" y="148.1045">init_instance</text></g><!--link Browse to Exited--><g id="link_Browse_Exited"><path d="M748.1354,340.5841 C748.3776,341.1337 748.6239,341.6928 748.8742,342.261 C749.8754,344.5337 750.9406,346.9518 752.0587,349.4899 C754.2949,354.5662 756.7428,360.1231 759.3138,365.9594 C769.5975,389.3044 779.4313,411.6285 787.9813,431.0385 " fill="none" id="Browse-to-Exited" style="stroke:#181818;stroke-width:1.0;"/><polygon fill="#181818" points="790.4,436.5294,790.4325,426.6806,788.3844,431.9536,783.1113,429.9055,790.4,436.5294" style="stroke:#181818;stroke-width:1.0;"/><text fill="#000000" font-family="sans-serif" font-size="13" lengthAdjust="spacing" textLength="198.6943" x="776" y="403.1045">(CWinApp::ExitInstance, inherited)</text></g><!--SRC=[RPHDRzim38Rl_XL4Ssc11KlYvQD14A0fMg27OGLws6M0eLXK8bGM1LbPze7zzz6odRXEV1BDHtmfwhM33WPXjIf3iLx3uolQ3OhYIUhmu1oyUbq8_nlUWWW8NqM-rnQJf7pNrWal2YXZucy2_6n4_hxpTB3oaGpvrMhhwLWYbmKOOAecIjOSUOd-agcUmNWwc-QZo3sJ3TSfvaRooroCh-iM98MfuO5IAiNHfMw7YHpEfkFHXMwFOcwhqjaelwvRvi8sy00NADJiKhV3H6woIAVtQL-tHrLp4PDqZjTr0_f2szWewweftb_gTfXQ5-SodVHrUrIbkvtYP9JywzxvNaWwQhi39Ko9II07WM1B8L01KdlCWoRBDedck74UCsrrk05HigFmXTTmljCMsyGuGlMompGEQyYgc1P6_q4PyPTptAtRsL7kOyEPsDAXxkEXMi7fXZ-KBnpvm7XTl8sWlPOambtH8S_33jTDqIMGpOHpjLg4wyJmu1ZgRWI68vNbXdYKbvMztkr3jUlKHYoljE6XndVrdavwCNHxmUFxPf-PgZFWj4DJVRmVwQ515NfDBQ4kd4co-CCs0HyzHsDGzYlqcclms4AMK-4CXkPWbdYyyK10gYkPj3PlJsRn29zF4Jcq9-JysdbjGrPYEBXJLf4_2hQzh1pv-5rR_ekTaXALE9XGmgqbe9_elPPu5zDePMolCdhj0lobG-ElfxY4xkUH9AsHsxllJP0ZDZtNugabZPzRjActXDkcm-MoUlNIu9zuznvznTmb_m40]--></g></svg>