<svg xmlns="http://www.w3.org/2000/svg" xmlns:xlink="http://www.w3.org/1999/xlink" contentStyleType="text/css" height="528px" preserveAspectRatio="none" style="width:600px;height:528px;background:#FFFFFF;" version="1.1" viewBox="0 0 600 528" width="600px" zoomAndPan="magnify"><title>&lt;&lt;stm&gt;&gt; CMainFrame (VSIM_OGL) Primary State Machine</title><defs/><g><!--bg-injected--><rect x="0" y="0" width="100%" height="100%" fill="#FFFFFF"/><text fill="#000000" font-family="sans-serif" font-size="14" font-weight="bold" lengthAdjust="spacing" textLength="367.999" x="109.4753" y="24.5332">&#171;stm&#187; CMainFrame (VSIM_OGL) Primary State Machine</text><g id="PreCreate"><rect fill="#E3F2FD" height="50" rx="12.5" ry="12.5" style="stroke:#1565C0;stroke-width:0.5;" width="86.9307" x="7" y="45.6094"/><line style="stroke:#1565C0;stroke-width:0.5;" x1="7" x2="93.9307" y1="73.2188" y2="73.2188"/><text fill="#0D47A1" font-family="sans-serif" font-size="14" lengthAdjust="spacing" textLength="66.9307" x="17" y="65.1426">pre_create</text></g><g id="Created"><rect fill="#E3F2FD" height="50" rx="12.5" ry="12.5" style="stroke:#1565C0;stroke-width:0.5;" width="66.6963" x="17" y="195.1094"/><line style="stroke:#1565C0;stroke-width:0.5;" x1="17" x2="83.6963" y1="222.7188" y2="222.7188"/><text fill="#0D47A1" font-family="sans-serif" font-size="14" lengthAdjust="spacing" textLength="46.6963" x="27" y="214.6426">created</text></g><g id="Closing"><rect fill="#E3F2FD" height="50" rx="12.5" ry="12.5" style="stroke:#1565C0;stroke-width:0.5;" width="63.5791" x="18.5" y="344.6094"/><line style="stroke:#1565C0;stroke-width:0.5;" x1="18.5" x2="82.0791" y1="372.2188" y2="372.2188"/><text fill="#0D47A1" font-family="sans-serif" font-size="14" lengthAdjust="spacing" textLength="43.5791" x="28.5" y="364.1426">closing</text></g><g id="Closed"><rect fill="#E8F5E9" height="50" rx="12.5" ry="12.5" style="stroke:#2E7D32;stroke-width:0.5;" width="60.4688" x="20.5" y="472.6094"/><line style="stroke:#2E7D32;stroke-width:0.5;" x1="20.5" x2="80.9688" y1="500.2188" y2="500.2188"/><text fill="#1B5E20" font-family="sans-serif" font-size="14" lengthAdjust="spacing" textLength="40.4688" x="30.5" y="492.1426">closed</text></g><g id="elem_GMN11"><path d="M341,174.1094 L341,216.1094 L84.3,220.1094 L341,224.1094 L341,265.8672 A0,0 0 0 0 341,265.8672 L593.9497,265.8672 A0,0 0 0 0 593.9497,265.8672 L593.9497,184.1094 L583.9497,174.1094 L341,174.1094 A0,0 0 0 0 341,174.1094 " fill="#FEFFDD" style="stroke:#181818;stroke-width:0.5;"/><path d="M583.9497,174.1094 L583.9497,184.1094 L593.9497,184.1094 L583.9497,174.1094 " fill="#FEFFDD" style="stroke:#181818;stroke-width:0.5;"/><text fill="#000000" font-family="sans-serif" font-size="13" lengthAdjust="spacing" textLength="197.2661" x="347" y="192.6045">Four docking control bars created.</text><text fill="#000000" font-family="sans-serif" font-size="13" lengthAdjust="spacing" textLength="231.9497" x="347" y="208.9561">OnBarCheck/OnUpdateControlBarMenu</text><text fill="#000000" font-family="sans-serif" font-size="13" lengthAdjust="spacing" textLength="161.8652" x="347" y="225.3076">handle their visibility toggles</text><text fill="#000000" font-family="sans-serif" font-size="13" lengthAdjust="spacing" textLength="173.418" x="347" y="241.6592">via the framework defaults; no</text><text fill="#000000" font-family="sans-serif" font-size="13" lengthAdjust="spacing" textLength="127.8799" x="347" y="258.0107">overrides in this class.</text></g><!--link PreCreate to PreCreate--><g id="link_PreCreate_PreCreate"><path d="M94.09,58.7494 C112.9,57.7794 129,61.7294 129,70.6094 C129,79.4894 118.892,83.7484 100.082,82.7784 " fill="none" id="PreCreate-to-PreCreate" style="stroke:#181818;stroke-width:1.0;"/><polygon fill="#181818" points="94.09,82.4694,102.8721,86.9276,99.0834,82.7269,103.2841,78.9382,94.09,82.4694" style="stroke:#181818;stroke-width:1.0;"/><text fill="#000000" font-family="sans-serif" font-size="13" lengthAdjust="spacing" textLength="112.7344" x="135" y="76.1045">pre_create_window</text></g><!--link PreCreate to Created--><g id="link_PreCreate_Created"><path d="M50.5,95.6394 C50.5,123.0694 50.5,161.6694 50.5,189.0894 " fill="none" id="PreCreate-to-Created" style="stroke:#181818;stroke-width:1.0;"/><polygon fill="#181818" points="50.5,195.0894,54.5,186.0894,50.5,190.0894,46.5,186.0894,50.5,195.0894" style="stroke:#181818;stroke-width:1.0;"/><text fill="#000000" font-family="sans-serif" font-size="13" lengthAdjust="spacing" textLength="57.8208" x="51.5" y="140.1045">on_create</text></g><!--link Created to Created--><g id="link_Created_Created"><path d="M84.33,205.0094 C102.47,202.4394 119,207.4794 119,220.1094 C119,232.7394 108.4107,238.621 90.2707,236.051 " fill="none" id="Created-to-Created" style="stroke:#181818;stroke-width:1.0;"/><polygon fill="#181818" points="84.33,235.2094,92.6799,240.4323,89.2806,235.9108,93.8021,232.5114,84.33,235.2094" style="stroke:#181818;stroke-width:1.0;"/><text fill="#000000" font-family="sans-serif" font-size="13" lengthAdjust="spacing" textLength="130.0762" x="156.4336" y="193.1045">on_bar_check(toolbar)</text><text fill="#000000" font-family="sans-serif" font-size="13" lengthAdjust="spacing" textLength="192.9434" x="125" y="209.4561">on_bar_check(beam_param_bar)</text><text fill="#000000" font-family="sans-serif" font-size="13" lengthAdjust="spacing" textLength="163.3125" x="139.8154" y="225.8076">on_bar_check(explorer_bar)</text><text fill="#000000" font-family="sans-serif" font-size="13" lengthAdjust="spacing" textLength="151.0298" x="145.9568" y="242.1592">on_bar_check(status_bar)</text><text fill="#000000" font-family="sans-serif" font-size="13" lengthAdjust="spacing" textLength="189.3569" x="126.7932" y="258.5107">on_update_control_bar_menu(_)</text></g><!--link Created to Closing--><g id="link_Created_Closing"><path d="M50.5,245.1394 C50.5,272.5694 50.5,311.1694 50.5,338.5894 " fill="none" id="Created-to-Closing" style="stroke:#181818;stroke-width:1.0;"/><polygon fill="#181818" points="50.5,344.5894,54.5,335.5894,50.5,339.5894,46.5,335.5894,50.5,344.5894" style="stroke:#181818;stroke-width:1.0;"/><text fill="#000000" font-family="sans-serif" font-size="13" lengthAdjust="spacing" textLength="52.0381" x="51.5" y="311.1045">on_close</text></g><!--link Closing to Closed--><g id="link_Closing_Closed"><path d="M50.5,394.8994 C50.5,417.2194 50.5,444.0994 50.5,466.3894 " fill="none" id="Closing-to-Closed" style="stroke:#181818;stroke-width:1.0;"/><polygon fill="#181818" points="50.5,472.3894,54.5,463.3894,50.5,467.3894,46.5,463.3894,50.5,472.3894" style="stroke:#181818;stroke-width:1.0;"/><text fill="#000000" font-family="sans-serif" font-size="13" lengthAdjust="spacing" textLength="46.2427" x="51.5" y="439.1045">destruct</text></g><!--SRC=[TPF1Rjim38RlUWgYkII7T6cwh5qNvD007GOiI85YEmqmP8kEXTXYGCd9Yc7lFbgE4IzDVPB8p-J_KrAmeKIOptse5WjOhhHrJwmhXE7Fbs-hPFtr-mYUsLQQN-4bw82mqbbX7IhbjzRjjC3WO-AF0laUTRRTCDNEBAaadizJfeD7AGummDjycfkM8pR8Rvdc6zpCFisoIUIUo8NBb70Jy_5Etrpk6v0hwtGf_03lynb-VjktnyHwKxmpjzFplcTKeo-TuNIY_lPdK6X31-isaElIemgqWq2GKWXKWR6CMR3aP6nnM5SxnYHZbFKLQ2ypncNSmSbdXxQOYLmBcKjKILxQjrIxVeVgIiKbzFqfTT8n7YzwgXxW93WHc-ArpyhM2T-fUm1oHrXriV5vFjMSP0Lcss4WAcKt-kN-2wUegoHEDxcGnTyxEHtaIxd6RErFcNfd6jsPd2bJ6S4ANJrCHYTvdONZw5eBpOXK5-eZyeSW1dtWEWjAEP8niDqK0IZlV1ulKirWADis9OuAG1HuE9xhTSJMxb7pib7_OUr-HBtB5fRuIiH6gj3Eo7iD1Lg6lVKsjQKDhtBJDfiIVMJsLZS0vCqxFX1lHMQkwpBuB-0e8hH7PYlgmJfXhMWfjVVN2fs1nehw1m00]--></g></svg>